<svg width="557" height="557" viewBox="0 0 557 557" fill="none" xmlns="http://www.w3.org/2000/svg">
<path d="M0 0V556.37H556.37V0H0ZM312.68 355.381C312.68 384.313 305.239 403.368 290.008 413.522C274.777 423.676 260.103 422.424 245.568 422.424H164.199C157.105 422.424 151.402 416.652 151.402 409.627C151.402 402.603 157.175 396.831 164.199 396.831H178.525V151.124H164.199C157.105 151.124 151.402 145.352 151.402 138.327C151.402 131.303 157.175 125.531 164.199 125.531H245.568C260.103 125.531 276.585 125.531 290.008 134.433C303.43 143.335 312.68 163.642 312.68 192.574V355.381ZM403.09 399.196L381.6 420.685C379.931 422.354 377.706 423.189 375.55 423.189C373.394 423.189 371.168 422.354 369.499 420.685L348.009 399.196C346.41 397.596 345.506 395.37 345.506 393.145C345.506 390.92 346.41 388.694 348.009 387.094L369.499 365.605C372.837 362.266 378.332 362.266 381.67 365.605L403.16 387.094C404.759 388.694 405.663 390.92 405.663 393.145C405.663 395.37 404.759 397.596 403.16 399.196H403.09Z" fill="white"/>
<path d="M275.82 155.784C268.866 151.124 257.599 151.124 245.637 151.124H204.188V396.831H245.637C257.599 396.831 268.866 396.831 275.82 392.171C282.775 387.512 287.087 374.785 287.087 355.381V192.574C287.087 173.101 283.331 160.721 275.82 155.784Z" fill="white"/>
</svg>
