<?xml version="1.0" encoding="UTF-8"?>
<svg id="Calque_1" xmlns="http://www.w3.org/2000/svg" version="1.1" viewBox="0 0 800 800">
  <!-- Generator: Adobe Illustrator 30.4.0, SVG Export Plug-In . SVG Version: 2.1.4 Build 226)  -->
  <path d="M0,0v800s800,0,800,0V0S0,0,0,0ZM449.6,511c0,41.6-10.7,69-32.6,83.6s-43,12.8-63.9,12.8h-117c-10.2,0-18.4-8.3-18.4-18.4s8.3-18.4,18.4-18.4h20.6V217.3h-20.6c-10.2,0-18.4-8.3-18.4-18.4s8.3-18.4,18.4-18.4h117c20.9,0,44.6,0,63.9,12.8s32.6,42,32.6,83.6v234.1ZM579.6,574l-30.9,30.9c-2.4,2.4-5.6,3.6-8.7,3.6s-6.3-1.2-8.7-3.6l-30.9-30.9c-2.3-2.3-3.6-5.5-3.6-8.7s1.3-6.4,3.6-8.7l30.9-30.9c4.8-4.8,12.7-4.8,17.5,0l30.9,30.9c2.3,2.3,3.6,5.5,3.6,8.7s-1.3,6.4-3.6,8.7Z"/>
  <path d="M396.6,224c-10-6.7-26.2-6.7-43.4-6.7h-59.6v353.3h59.6c17.2,0,33.4,0,43.4-6.7s16.2-25,16.2-52.9v-234.1c0-28-5.4-45.8-16.2-52.9Z"/>
</svg>