<svg width="260" height="304" viewBox="0 0 260 304" fill="none" xmlns="http://www.w3.org/2000/svg">
<g clip-path="url(#clip0_8907_1082)">
<path d="M96.01 0H13.06C5.85 0 0 5.85 0 13.06C0 20.27 5.85 26.12 13.06 26.12H27.65V276.48H13.06C5.85 276.48 0 282.33 0 289.54C0 296.75 5.85 302.6 13.06 302.6H96.01C123.23 302.6 164.37 302.6 164.37 234.24V68.36C164.37 0 123.23 0 96.01 0ZM138.25 234.25C138.25 254.07 134.39 266.7 126.79 271.77C119.71 276.49 108.2 276.49 96.02 276.49H53.78V26.12H96.02C108.21 26.12 119.71 26.12 126.79 30.84C134.4 35.91 138.25 48.53 138.25 68.36V234.25Z" fill="white"/>
<path d="M256.45 266.52L234.58 244.65C231.16 241.23 225.61 241.23 222.18 244.65L200.31 266.52C198.67 268.16 197.74 270.39 197.74 272.72C197.74 275.05 198.66 277.27 200.31 278.92L222.18 300.79C223.89 302.5 226.14 303.36 228.38 303.36C230.62 303.36 232.87 302.5 234.58 300.79L256.45 278.92C258.09 277.28 259.02 275.05 259.02 272.72C259.02 270.39 258.1 268.17 256.45 266.52Z" fill="white"/>
</g>
<defs>
<clipPath id="clip0_8907_1082">
<rect width="259.02" height="303.35" fill="white"/>
</clipPath>
</defs>
</svg>
