<?xml version="1.0" encoding="UTF-8"?>
<svg id="Calque_1" xmlns="http://www.w3.org/2000/svg" version="1.1" viewBox="0 0 1400 592.4">
  <!-- Generator: Adobe Illustrator 30.4.0, SVG Export Plug-In . SVG Version: 2.1.4 Build 226)  -->
  <path d="M801.3,302.3c5.6,0,10.2-4.6,10.2-10.2s-4.6-10.2-10.2-10.2h-35.6v-104.3c0-35.6,12.7-35.6,35.6-35.6s10.2-4.6,10.2-10.2-4.6-10.2-10.2-10.2h-68.7c-5.6,0-10.2,4.6-10.2,10.2s4.6,10.2,10.2,10.2h19.9c-4.5,8.2-7.2,19.6-7.2,35.6v104.3h-35.6c-5.6,0-10.2,4.6-10.2,10.2s4.6,10.2,10.2,10.2h91.6Z"/>
  <path d="M762.4,95.3c1.2,1.2,2.8,1.9,4.5,1.9s3.3-.7,4.5-1.9l16.2-16.2c2.5-2.5,2.5-6.5,0-9l-16.2-16.2c-2.5-2.5-6.5-2.5-9,0l-16.2,16.2c-1.2,1.2-1.9,2.8-1.9,4.5s.7,3.3,1.9,4.5l16.2,16.2Z"/>
  <path d="M376,281.9h-12.7v-104.3c0-56-33.7-56-56-56s-25,0-36.2,6.9c-1.4-4-5.1-6.9-9.6-6.9h-22.9c-5.6,0-10.2,4.6-10.2,10.2s4.6,10.2,10.2,10.2h12.7v139.9h-12.7c-5.6,0-10.2,4.6-10.2,10.2s4.6,10.2,10.2,10.2h22.9c5.6,0,10.2-4.6,10.2-10.2v-114.5c0-35.6,12.7-35.6,35.6-35.6s35.6,0,35.6,35.6v114.5c0,5.6,4.6,10.2,10.2,10.2h22.9c5.6,0,10.2-4.6,10.2-10.2s-4.6-10.2-10.2-10.2Z"/>
  <path d="M1171.2,292.1c0-5.6-4.6-10.2-10.2-10.2h-12.7v-150.1c0-5.6-4.6-10.2-10.2-10.2h-22.9c-5.6,0-10.2,4.6-10.2,10.2s4.6,10.2,10.2,10.2h12.7v104.3c0,35.6-12.7,35.6-35.6,35.6s-35.6,0-35.6-35.6v-114.5c0-5.6-4.6-10.2-10.2-10.2h-22.9c-5.6,0-10.2,4.6-10.2,10.2s4.6,10.2,10.2,10.2h12.7v104.3c0,56,33.7,56,56,56s25,0,36.2-6.9c1.4,4,5.1,6.9,9.6,6.9h22.9c5.6,0,10.2-4.6,10.2-10.2Z"/>
  <path d="M927.5,302.3c22.3,0,56,0,56-56s-4.6-10.2-10.2-10.2-10.2,4.6-10.2,10.2c0,35.6-12.7,35.6-35.6,35.6s-35.6,0-35.6-35.6v-104.3h58.5c5.6,0,10.2-4.6,10.2-10.2s-4.6-10.2-10.2-10.2h-58.5v-58.5c0-5.6-4.6-10.2-10.2-10.2h-22.9c-5.6,0-10.2,4.6-10.2,10.2s4.6,10.2,10.2,10.2h12.7v48.3h-12.7c-5.6,0-10.2,4.6-10.2,10.2s4.6,10.2,10.2,10.2h12.7v104.3c0,56,33.7,56,56,56Z"/>
  <path d="M1198.8,121.7c-5.6,0-10.2,4.6-10.2,10.2s4.6,10.2,10.2,10.2h12.7v104.3c0,56,33.7,56,56,56s56,0,56-56-4.6-10.2-10.2-10.2-10.2,4.6-10.2,10.2c0,35.6-12.7,35.6-35.6,35.6s-35.6,0-35.6-35.6v-104.3h58.5c5.6,0,10.2-4.6,10.2-10.2s-4.6-10.2-10.2-10.2h-58.5v-58.5c0-5.6-4.6-10.2-10.2-10.2h-22.9c-5.6,0-10.2,4.6-10.2,10.2s4.6,10.2,10.2,10.2h12.7v48.3h-12.7Z"/>
  <path d="M643.4,302.3c5.6,0,10.2-4.6,10.2-10.2s-4.6-10.2-10.2-10.2c-23,0-35.6,0-35.6-35.6v-101.2h53.8c5.6,0,10.2-4.6,10.2-10.2s-4.6-10.2-10.2-10.2h-53.8v-4.9c0-56-33.7-56-56-56h-71.7c-22.3,0-56,0-56,56s1.5,6.2,4.1,8.1l87.4,65.6c-1.2,30.6-13.7,30.6-35.5,30.6s-35.6,0-35.6-35.6-4.6-10.2-10.2-10.2-10.2,4.6-10.2,10.2v45.8c0,5.6,4.6,10.2,10.2,10.2s8.2-2.9,9.6-6.9c11.2,6.9,25.1,6.9,36.2,6.9,22.3,0,56,0,56-56s-1.5-6.2-4.1-8.1l-87.4-65.6c1.2-30.6,13.7-30.6,35.5-30.6h71.7c23,0,35.6,0,35.6,35.6v4.9h-19.1c-5.6,0-10.2,4.6-10.2,10.2s4.6,10.2,10.2,10.2h19.1v101.2c0,56,33.7,56,56,56Z"/>
  <path d="M277.1,458.6c4,4,10.4,4,14.4,0l45.8-45.8c1.9-1.9,3-4.5,3-7.2,0-56-33.7-56-56-56s-56,0-56,56v68.7c0,56,33.7,56,56,56s56,0,56-56-4.6-10.2-10.2-10.2-10.2,4.6-10.2,10.2c0,35.6-12.7,35.6-35.6,35.6s-35.6,0-35.6-35.6v-68.7c0-35.6,12.7-35.6,35.6-35.6s34.6,0,35.6,31.5l-42.8,42.8c-4,4-4,10.4,0,14.4Z"/>
  <path d="M187.5,301.3h12.7c5.6,0,10.2-4.6,10.2-10.2s-4.6-10.2-10.2-10.2h-22.9c-1.6,0-3,.4-4.4,1h-41.2V108.9c0-35.6,12.7-35.6,35.6-35.6h10.2c5.6,0,10.2-4.6,10.2-10.2s-4.6-10.2-10.2-10.2h-10.2c-3.4,0-7,0-10.8.2-.6-.1-1.3-.2-2-.2h-68.7c-5.6,0-10.2,4.6-10.2,10.2s4.6,10.2,10.2,10.2h32.7c-4.5,8.2-7.2,19.6-7.2,35.6v173h-25.4c-5.6,0-10.2,4.6-10.2,10.2s4.6,10.2,10.2,10.2h81.2v172c0,35.6-12.7,35.6-35.6,35.6s-35.6,0-35.6-35.6v-64.5l42.8-42.8c4-4,4-10.4,0-14.4-4-4-10.4-4-14.4,0l-45.8,45.8c-1.9,1.9-3,4.5-3,7.2v68.7c0,56,33.7,56,56,56s25,0,36.2-6.9c1.4,4,5.1,6.9,9.6,6.9h22.9c5.6,0,10.2-4.6,10.2-10.2s-4.6-10.2-10.2-10.2h-12.7v-208.6Z"/>
  <path d="M542.9,299.5h12.7c5.6,0,10.2-4.6,10.2-10.2s-4.6-10.2-10.2-10.2h-22.9c-5.6,0-10.2,4.6-10.2,10.2v183.2c0,35.6-12.7,35.6-35.6,35.6s-35.6,0-35.6-35.6v-64.5l42.8-42.8c4-4,4-10.4,0-14.4-4-4-10.4-4-14.4,0l-45.8,45.8c-1.9,1.9-3,4.5-3,7.2v68.7c0,56,33.7,56,56,56s25,0,36.2-6.9c1.4,4,5.1,6.9,9.6,6.9h22.9c5.6,0,10.2-4.6,10.2-10.2s-4.6-10.2-10.2-10.2h-12.7v-208.6Z"/>
  <path d="M973.9,367.9c5.6,0,10.2-4.6,10.2-10.2s-4.6-10.2-10.2-10.2h-68.7c-5.6,0-10.2,4.6-10.2,10.2s4.6,10.2,10.2,10.2h19.9c-4.5,8.2-7.2,19.6-7.2,35.6v104.3h-35.6c-5.6,0-10.2,4.6-10.2,10.2s4.6,10.2,10.2,10.2h91.6c5.6,0,10.2-4.6,10.2-10.2s-4.6-10.2-10.2-10.2h-35.6v-104.3c0-35.6,12.6-35.6,35.6-35.6Z"/>
  <path d="M1135.8,507h-17.8v-34.8c0-5.6-4.6-10.2-10.2-10.2h-45.8c-24,0-35.6-8.6-35.6-26.2v-35.6c0-35.6,12.7-35.6,35.6-35.6s31.1.9,34.5,21.1c.7,4.2,1.1,9.1,1.1,14.5s4.6,10.2,10.2,10.2,10.2-4.6,10.2-10.2v-35.6h12.7c5.6,0,10.2-4.6,10.2-10.2s-4.6-10.2-10.2-10.2h-22.9c-4.5,0-8.2,2.9-9.6,6.9-11.3-6.9-25.3-6.9-36.2-6.9-22.3,0-56,0-56,56v35.6c0,12.9,4.3,24,12.3,32,9.7,9.7,24.4,14.5,43.6,14.5h35.6v24.6h-81.4c-5.6,0-10.2,4.6-10.2,10.2,0,56,33.7,56,56,56s51.7,0,55.6-45.8h18.2c5.6,0,10.2-4.6,10.2-10.2s-4.6-10.2-10.2-10.2ZM1062.1,552.8c-20.5,0-32.8,0-35.2-25.4h70.4c-2.4,25.4-14.7,25.4-35.2,25.4Z"/>
  <path d="M640.3,456.5c4,4,10.4,4,14.4,0l45.8-45.8c1.9-1.9,3-4.5,3-7.2,0-56-33.7-56-56-56s-56,0-56,56v68.7c0,56,33.7,56,56,56s56,0,56-56-4.6-10.2-10.2-10.2-10.2,4.6-10.2,10.2c0,35.6-12.7,35.6-35.6,35.6s-35.6,0-35.6-35.6v-68.7c0-35.6,12.7-35.6,35.6-35.6s34.6,0,35.6,31.5l-42.8,42.8c-4,4-4,10.4,0,14.4Z"/>
  <path d="M845.6,347.6c-4.5,0-8.2,2.9-9.6,6.9-11.2-6.9-25.1-6.9-36.2-6.9-22.3,0-56,0-56,56s1.5,6.2,4.1,8.1l87.4,65.6c-1.2,30.6-13.7,30.6-35.5,30.6s-35.6,0-35.6-35.6-4.6-10.2-10.2-10.2-10.2,4.6-10.2,10.2v45.8c0,5.6,4.6,10.2,10.2,10.2s8.2-2.9,9.6-6.9c11.2,6.9,25.1,6.9,36.2,6.9,22.3,0,56,0,56-56s-1.5-6.2-4.1-8.1l-87.4-65.6c1.2-30.6,13.7-30.6,35.5-30.6s35.6,0,35.6,35.6,4.6,10.2,10.2,10.2,10.2-4.6,10.2-10.2v-45.8c0-5.6-4.6-10.2-10.2-10.2Z"/>
  <path d="M1314.3,507.8h-12.7v-104.3c0-56-33.7-56-56-56s-25,0-36.2,6.9c-1.4-4-5.1-6.9-9.6-6.9h-22.9c-5.6,0-10.2,4.6-10.2,10.2s4.6,10.2,10.2,10.2h12.7v139.9h-12.7c-5.6,0-10.2,4.6-10.2,10.2s4.6,10.2,10.2,10.2h22.9c5.6,0,10.2-4.6,10.2-10.2v-114.5c0-35.6,12.7-35.6,35.6-35.6s35.6,0,35.6,35.6v114.5c0,5.6,4.6,10.2,10.2,10.2h22.9c5.6,0,10.2-4.6,10.2-10.2s-4.6-10.2-10.2-10.2Z"/>
</svg>