<?xml version="1.0" encoding="UTF-8"?>
<svg id="Calque_1" xmlns="http://www.w3.org/2000/svg" version="1.1" viewBox="0 0 1357 566">
  <!-- Generator: Adobe Illustrator 30.4.0, SVG Export Plug-In . SVG Version: 2.1.4 Build 226)  -->
  <defs>
    <style>
      .st0 {
        fill: #1e1e1e;
      }
    </style>
  </defs>
  <path class="st0" d="M788,271.7c6.1,0,11.1-4.9,11.1-11s-5-11.1-11.1-11.1h-38.7v-113.3c0-38.7,13.7-38.7,38.7-38.7s11.1-4.9,11.1-11.1-5-11-11.1-11h-74.6c-6.1,0-11,4.9-11,11s4.9,11.1,11,11.1h21.7c-4.8,8.9-7.8,21.3-7.8,38.7v113.3h-38.7c-6.1,0-11.1,4.9-11.1,11.1s5,11,11.1,11h99.5,0Z"/>
  <path class="st0" d="M745.9,47c1.3,1.3,3,2,4.9,2s3.6-.7,4.9-2l17.6-17.6c2.7-2.7,2.7-7.1,0-9.8l-17.6-17.6c-2.7-2.7-7.1-2.7-9.8,0l-17.6,17.6c-1.3,1.3-2,3.1-2,4.9s.7,3.6,2,4.9l17.6,17.6Z"/>
  <path class="st0" d="M326.3,249.6h-13.8v-113.3c0-60.8-36.6-60.8-60.8-60.8s-27.2,0-39.3,7.5c-1.5-4.4-5.6-7.5-10.4-7.5h-24.9c-6.1,0-11.1,4.9-11.1,11s4.9,11.1,11.1,11.1h13.8v152h-13.8c-6.1,0-11.1,4.9-11.1,11.1s4.9,11,11.1,11h24.9c6.1,0,11-4.9,11-11v-124.3c0-38.7,13.7-38.7,38.7-38.7s38.7,0,38.7,38.7v124.3c0,6.1,5,11,11.1,11h24.9c6.1,0,11-4.9,11-11s-4.9-11.1-11-11.1Z"/>
  <path class="st0" d="M1189.8,260.7c0-6.1-5-11.1-11.1-11.1h-13.8V86.7c0-6.1-4.9-11-11-11h-24.9c-6.1,0-11.1,4.9-11.1,11s5,11.1,11.1,11.1h13.8v113.3c0,38.7-13.7,38.7-38.7,38.7s-38.7,0-38.7-38.7v-124.3c0-6.1-4.9-11-11-11h-24.9c-6.1,0-11,4.9-11,11s4.9,11.1,11,11.1h13.8v113.3c0,60.8,36.6,60.8,60.8,60.8s27.2,0,39.3-7.5c1.5,4.4,5.6,7.5,10.4,7.5h24.9c6.1,0,11.1-5,11.1-11.1h0Z"/>
  <path class="st0" d="M925.1,271.7c24.2,0,60.8,0,60.8-60.8s-5-11.1-11-11.1-11,5-11,11.1c0,38.7-13.7,38.7-38.7,38.7s-38.7,0-38.7-38.7v-113.3h63.5c6.1,0,11-4.9,11-11.1s-5-11-11-11h-63.5V12.1c0-6.1-5-11-11-11h-24.9c-6.1,0-11,5-11,11s4.9,11.1,11,11.1h13.8v52.5h-13.8c-6.1,0-11,4.9-11,11s4.9,11.1,11,11.1h13.8v113.3c0,60.8,36.6,60.8,60.8,60.8h0Z"/>
  <path class="st0" d="M1219.7,75.6c-6.1,0-11,4.9-11,11s4.9,11.1,11,11.1h13.8v113.3c0,60.8,36.6,60.8,60.8,60.8s60.8,0,60.8-60.8-4.9-11.1-11-11.1-11.1,4.9-11.1,11.1c0,38.7-13.7,38.7-38.7,38.7s-38.7,0-38.7-38.7v-113.3h63.5c6.1,0,11-5,11-11.1s-4.9-11-11-11h-63.5V12.1c0-6.1-4.9-11-11.1-11h-24.9c-6.1,0-11,5-11,11s4.9,11.1,11,11.1h13.8v52.5h-13.8Z"/>
  <path class="st0" d="M616.6,271.7c6.1,0,11.1-4.9,11.1-11s-5-11.1-11.1-11.1c-24.9,0-38.7,0-38.7-38.7v-109.9h58.5c6.1,0,11-5,11-11.1s-5-11-11-11h-58.5v-5.3c0-60.8-36.6-60.8-60.8-60.8h-77.8c-24.2,0-60.8,0-60.8,60.8s1.6,6.8,4.4,8.8l94.9,71.2c-1.3,33.2-14.9,33.2-38.6,33.2s-38.7,0-38.7-38.7-5-11-11.1-11-11,4.9-11,11v49.7c0,6.1,5,11,11,11s8.9-3.1,10.4-7.5c12.1,7.5,27.3,7.5,39.3,7.5,24.2,0,60.8,0,60.8-60.8s-1.6-6.8-4.4-8.8l-94.9-71.2c1.3-33.2,14.9-33.2,38.6-33.2h77.8c24.9,0,38.7,0,38.7,38.7v5.3h-20.8c-6.1,0-11,4.9-11,11s5,11.1,11,11.1h20.8v109.9c0,60.8,36.6,60.8,60.8,60.8Z"/>
  <path class="st0" d="M218.8,441.5c4.3,4.3,11.3,4.3,15.6,0l49.7-49.7c2.1-2.1,3.2-4.9,3.2-7.8,0-60.8-36.6-60.8-60.8-60.8s-60.8,0-60.8,60.8v74.6c0,60.8,36.6,60.8,60.8,60.8s60.8,0,60.8-60.8-5-11.1-11.1-11.1-11,5-11,11.1c0,38.7-13.7,38.7-38.7,38.7s-38.7,0-38.7-38.7v-74.6c0-38.7,13.7-38.7,38.7-38.7s37.6,0,38.6,34.2l-46.4,46.4c-4.3,4.3-4.3,11.3,0,15.6h0Z"/>
  <path class="st0" d="M121.6,270.6h13.8c6.1,0,11.1-5,11.1-11.1s-4.9-9.9-11.1-9.9H61V61.8c0-38.7,13.7-38.7,38.7-38.7h11c6.1,0,11.1-4.9,11.1-11s-5-11.1-11.1-11.1h-11c-3.7,0-7.6,0-11.7.2-.7-.1-1.4-.2-2.1-.2H11.3C5.2,1,.2,6,.2,12.1s5,11.1,11,11.1h35.5c-4.8,8.9-7.9,21.3-7.9,38.7v187.9H11.3c-6.1,0-11,4.9-11,11s5,11.1,11,11.1h88.2v186.8c0,38.7-13.7,38.7-38.7,38.7s-38.7,0-38.7-38.7v-70l46.5-46.5c4.3-4.3,4.3-11.3,0-15.6-4.3-4.3-11.3-4.3-15.6,0L3.2,376.1c-2.1,2.1-3.2,4.9-3.2,7.8v74.6c0,60.8,36.6,60.8,60.8,60.8s27.2,0,39.3-7.5c1.5,4.4,5.6,7.5,10.4,7.5h24.9c6.1,0,11.1-5,11.1-11.1s-4.9-11.1-11.1-11.1h-13.8v-226.5h0Z"/>
  <path class="st0" d="M521.3,268.7c6.1,0,11-5,11-11.1s-4.9-11-11-11h-24.9c-6.1,0-11,4.9-11,11v198.9c0,38.7-13.7,38.7-38.7,38.7s-38.7,0-38.7-38.7v-70l46.5-46.5c4.3-4.3,4.3-11.3,0-15.6-4.3-4.3-11.3-4.3-15.6,0l-49.7,49.7c-2.1,2.1-3.2,4.9-3.2,7.8v74.6c0,60.8,36.6,60.8,60.8,60.8s27.2,0,39.3-7.5c1.5,4.4,5.6,7.5,10.4,7.5h24.9c6.1,0,11.1-5,11.1-11s-5-11-11.1-11h-13.8v-226.5h13.8Z"/>
  <path class="st0" d="M975.5,343c6.1,0,11-5,11-11.1s-5-11-11-11h-74.6c-6.1,0-11,5-11,11s5,11.1,11,11.1h21.7c-4.9,8.9-7.8,21.3-7.8,38.7v113.3h-38.7c-6.1,0-11,5-11,11.1s5,11,11,11h99.5c6.1,0,11-5,11-11s-5-11.1-11-11.1h-38.7v-113.3c0-38.7,13.7-38.7,38.7-38.7Z"/>
  <path class="st0" d="M1151.3,494.1h-19.3v-37.8c0-6.1-5-11-11.1-11h-49.7c-26,0-38.7-9.3-38.7-28.5v-38.7c0-38.7,13.7-38.7,38.7-38.7s33.8.9,37.5,22.9c.8,4.5,1.2,9.9,1.2,15.8s4.9,11.1,11,11.1,11.1-5,11.1-11.1v-38.7h13.8c6.1,0,11.1-5,11.1-11s-5-11.1-11.1-11.1h-24.9c-4.9,0-8.9,3.2-10.4,7.5-12.3-7.5-27.5-7.5-39.3-7.5-24.2,0-60.8,0-60.8,60.8v38.7c0,14,4.6,26.1,13.4,34.8,10.5,10.5,26.5,15.8,47.4,15.8h38.7v26.8h-88.4c-6.1,0-11.1,5-11.1,11.1,0,60.8,36.6,60.8,60.8,60.8s56.1,0,60.3-49.7h19.7c6.1,0,11-5,11-11s-4.9-11.1-11-11.1ZM1071.2,543.8c-22.3,0-35.6,0-38.2-27.6h76.4c-2.6,27.6-15.9,27.6-38.2,27.6h0Z"/>
  <path class="st0" d="M613.2,439.2c4.3,4.3,11.3,4.3,15.6,0l49.7-49.7c2.1-2.1,3.2-4.9,3.2-7.8,0-60.8-36.6-60.8-60.8-60.8s-60.8,0-60.8,60.8v74.6c0,60.8,36.6,60.8,60.8,60.8s60.8,0,60.8-60.8-5-11-11-11-11.1,4.9-11.1,11c0,38.7-13.7,38.7-38.7,38.7s-38.7,0-38.7-38.7v-74.6c0-38.7,13.7-38.7,38.7-38.7s37.6,0,38.6,34.2l-46.4,46.4c-4.3,4.3-4.3,11.3,0,15.6h0Z"/>
  <path class="st0" d="M836.2,320.9c-4.9,0-8.9,3.1-10.4,7.5-12.1-7.5-27.3-7.5-39.3-7.5-24.2,0-60.8,0-60.8,60.8s1.6,6.8,4.4,8.8l94.9,71.2c-1.3,33.2-14.9,33.2-38.6,33.2s-38.7,0-38.7-38.7-5-11-11-11-11,4.9-11,11v49.7c0,6.1,5,11,11,11s8.9-3.1,10.4-7.5c12.1,7.5,27.3,7.5,39.3,7.5,24.2,0,60.8,0,60.8-60.8s-1.6-6.8-4.4-8.8l-94.9-71.2c1.3-33.2,14.9-33.2,38.6-33.2s38.7,0,38.7,38.7,5,11,11,11,11.1-4.9,11.1-11v-49.7c0-6.1-5-11-11.1-11Z"/>
  <path class="st0" d="M1345.1,494.9h-13.8v-113.3c0-60.8-36.6-60.8-60.8-60.8s-27.2,0-39.3,7.5c-1.5-4.4-5.6-7.5-10.4-7.5h-24.9c-6.1,0-11.1,5-11.1,11.1s4.9,11,11.1,11h13.8v152h-13.8c-6.1,0-11.1,4.9-11.1,11s4.9,11,11.1,11h24.9c6.1,0,11-5,11-11v-124.3c0-38.7,13.7-38.7,38.7-38.7s38.7,0,38.7,38.7v124.3c0,6.1,5,11,11.1,11h24.9c6.1,0,11.1-5,11.1-11s-5-11-11.1-11Z"/>
</svg>