<svg width="1357" height="566" viewBox="0 0 1357 566" fill="none" xmlns="http://www.w3.org/2000/svg">
<path d="M788.04 271.745C794.14 271.745 799.09 266.795 799.09 260.695C799.09 254.595 794.14 249.645 788.04 249.645H749.36V136.375C749.36 97.695 763.1 97.695 788.04 97.695C794.14 97.695 799.09 92.745 799.09 86.645C799.09 80.545 794.14 75.595 788.04 75.595H713.45C707.35 75.595 702.4 80.545 702.4 86.645C702.4 92.745 707.35 97.695 713.45 97.695H735.11C730.26 106.555 727.27 118.975 727.27 136.375V249.645H688.59C682.49 249.645 677.54 254.595 677.54 260.695C677.54 266.795 682.49 271.745 688.59 271.745H788.05H788.04Z" fill="black"/>
<path d="M745.86 46.955C747.16 48.255 748.91 48.975 750.74 48.975C752.57 48.975 754.33 48.245 755.62 46.955L773.2 29.375C775.9 26.675 775.9 22.305 773.2 19.605L755.62 2.025C752.92 -0.675 748.55 -0.675 745.85 2.025L728.27 19.605C726.98 20.905 726.25 22.655 726.25 24.485C726.25 26.315 726.98 28.075 728.27 29.365L745.86 46.955Z" fill="black"/>
<path d="M326.28 249.645H312.47V136.375C312.47 75.595 275.9 75.595 251.69 75.595C239.64 75.595 224.52 75.595 212.38 83.105C210.9 78.745 206.82 75.595 201.96 75.595H177.1C171 75.595 166.05 80.545 166.05 86.645C166.05 92.745 171 97.695 177.1 97.695H190.91V249.645H177.1C171 249.645 166.05 254.595 166.05 260.695C166.05 266.795 171 271.745 177.1 271.745H201.96C208.06 271.745 213.01 266.795 213.01 260.695V136.375C213.01 97.695 226.75 97.695 251.69 97.695C276.63 97.695 290.37 97.695 290.37 136.375V260.695C290.37 266.795 295.32 271.745 301.42 271.745H326.28C332.38 271.745 337.33 266.795 337.33 260.695C337.33 254.595 332.38 249.645 326.28 249.645Z" fill="black"/>
<path d="M1189.8 260.695C1189.8 254.595 1184.85 249.645 1178.75 249.645H1164.94V86.655C1164.94 80.555 1159.99 75.605 1153.89 75.605H1129.03C1122.93 75.605 1117.98 80.555 1117.98 86.655C1117.98 92.755 1122.93 97.705 1129.03 97.705H1142.84V210.975C1142.84 249.655 1129.1 249.655 1104.16 249.655C1079.22 249.655 1065.48 249.655 1065.48 210.975V86.655C1065.48 80.555 1060.53 75.605 1054.43 75.605H1029.57C1023.47 75.605 1018.52 80.555 1018.52 86.655C1018.52 92.755 1023.47 97.705 1029.57 97.705H1043.38V210.975C1043.38 271.755 1079.96 271.755 1104.16 271.755C1116.21 271.755 1131.33 271.755 1143.47 264.245C1144.95 268.595 1149.03 271.755 1153.89 271.755H1178.75C1184.85 271.755 1189.8 266.805 1189.8 260.705V260.695Z" fill="black"/>
<path d="M925.1 271.745C949.3 271.745 985.88 271.745 985.88 210.965C985.88 204.865 980.93 199.915 974.83 199.915C968.73 199.915 963.78 204.865 963.78 210.965C963.78 249.645 950.04 249.645 925.1 249.645C900.16 249.645 886.42 249.645 886.42 210.965V97.695H949.96C956.06 97.695 961.01 92.745 961.01 86.645C961.01 80.545 956.06 75.595 949.96 75.595H886.42V12.065C886.42 5.965 881.47 1.015 875.37 1.015H850.51C844.41 1.015 839.46 5.965 839.46 12.065C839.46 18.165 844.41 23.115 850.51 23.115H864.32V75.605H850.51C844.41 75.605 839.46 80.555 839.46 86.655C839.46 92.755 844.41 97.705 850.51 97.705H864.32V210.975C864.32 271.755 900.9 271.755 925.1 271.755V271.745Z" fill="black"/>
<path d="M1219.71 75.605C1213.61 75.605 1208.66 80.555 1208.66 86.655C1208.66 92.755 1213.61 97.705 1219.71 97.705H1233.52V210.975C1233.52 271.755 1270.1 271.755 1294.3 271.755C1318.5 271.755 1355.08 271.755 1355.08 210.975C1355.08 204.875 1350.13 199.925 1344.03 199.925C1337.93 199.925 1332.98 204.875 1332.98 210.975C1332.98 249.655 1319.24 249.655 1294.3 249.655C1269.36 249.655 1255.63 249.655 1255.63 210.975V97.705H1319.17C1325.27 97.705 1330.22 92.755 1330.22 86.655C1330.22 80.555 1325.27 75.605 1319.17 75.605H1255.63V12.065C1255.63 5.965 1250.68 1.015 1244.58 1.015H1219.71C1213.61 1.015 1208.66 5.965 1208.66 12.065C1208.66 18.165 1213.61 23.115 1219.71 23.115H1233.52V75.605H1219.71Z" fill="black"/>
<path d="M616.6 271.745C622.7 271.745 627.65 266.795 627.65 260.695C627.65 254.595 622.7 249.645 616.6 249.645C591.66 249.645 577.92 249.645 577.92 210.965V101.095H636.39C642.49 101.095 647.44 96.145 647.44 90.045C647.44 83.945 642.49 78.995 636.39 78.995H577.92V73.685C577.92 12.905 541.34 12.905 517.14 12.905H439.32C415.12 12.905 378.54 12.905 378.54 73.685C378.54 77.165 380.18 80.435 382.96 82.525L477.89 153.725C476.61 186.955 463.02 186.955 439.31 186.955C414.37 186.955 400.63 186.955 400.63 148.275C400.63 142.175 395.68 137.225 389.58 137.225C383.48 137.225 378.53 142.175 378.53 148.275V198.005C378.53 204.105 383.48 209.055 389.58 209.055C394.44 209.055 398.52 205.905 400 201.545C412.14 209.045 427.26 209.055 439.31 209.055C463.51 209.055 500.09 209.055 500.09 148.275C500.09 144.795 498.45 141.525 495.67 139.435L400.74 68.235C402.02 35.005 415.61 35.005 439.32 35.005H517.14C542.08 35.005 555.82 35.005 555.82 73.685V78.995H535.06C528.96 78.995 524.01 83.945 524.01 90.045C524.01 96.145 528.96 101.095 535.06 101.095H555.82V210.965C555.82 271.745 592.4 271.745 616.6 271.745Z" fill="black"/>
<path d="M218.82 441.455C223.14 445.765 230.13 445.765 234.45 441.455L284.18 391.725C286.25 389.655 287.42 386.845 287.42 383.915C287.42 323.135 250.84 323.135 226.64 323.135C202.44 323.135 165.86 323.135 165.86 383.915V458.505C165.86 519.285 202.43 519.285 226.64 519.285C250.85 519.285 287.42 519.285 287.42 458.505C287.42 452.405 282.47 447.455 276.37 447.455C270.27 447.455 265.32 452.405 265.32 458.505C265.32 497.185 251.58 497.185 226.64 497.185C201.7 497.185 187.96 497.185 187.96 458.505V383.915C187.96 345.235 201.7 345.235 226.64 345.235C251.58 345.235 264.19 345.235 265.25 379.405L218.83 425.825C214.51 430.145 214.51 437.135 218.83 441.455H218.82Z" fill="black"/>
<path d="M121.55 270.635H135.36C141.46 270.635 146.41 265.685 146.41 259.585C146.41 253.485 141.46 249.645 135.36 249.645H61.01V61.785C61.01 23.105 74.75 23.105 99.69 23.105H110.74C116.84 23.105 121.79 18.155 121.79 12.055C121.79 5.955 116.84 1.005 110.74 1.005H99.69C96.02 1.005 92.07 1.005 88.01 1.215C87.32 1.085 86.61 1.005 85.88 1.005H11.29C5.18 1.015 0.24 5.955 0.24 12.065C0.24 18.175 5.19 23.115 11.29 23.115H46.78C41.93 31.975 38.92 44.385 38.92 61.795V249.655H11.29C5.19 249.655 0.24 254.605 0.24 260.705C0.24 266.805 5.19 271.755 11.29 271.755H99.46V458.505C99.46 497.185 85.72 497.185 60.78 497.185C35.84 497.185 22.1 497.185 22.1 458.505V388.495L68.59 342.005C72.91 337.685 72.91 330.695 68.59 326.375C64.27 322.065 57.28 322.065 52.96 326.375L3.24 376.095C1.17 378.165 0 380.975 0 383.905V458.495C0 519.275 36.57 519.275 60.78 519.275C72.83 519.275 87.95 519.275 100.09 511.765C101.57 516.125 105.65 519.275 110.51 519.275H135.37C141.47 519.275 146.42 514.325 146.42 508.225C146.42 502.125 141.47 497.175 135.37 497.175H121.56V270.635H121.55Z" fill="black"/>
<path d="M521.3 268.725C527.4 268.725 532.35 263.775 532.35 257.675C532.35 251.575 527.4 246.625 521.3 246.625H496.44C490.34 246.625 485.39 251.575 485.39 257.675V456.585C485.39 495.265 471.65 495.265 446.71 495.265C421.77 495.265 408.03 495.265 408.03 456.585V386.575L454.52 340.085C458.83 335.765 458.83 328.775 454.52 324.455C450.21 320.145 443.21 320.145 438.89 324.455L389.16 374.185C387.09 376.255 385.92 379.065 385.92 381.995V456.585C385.92 517.365 422.5 517.365 446.7 517.365C458.75 517.365 473.87 517.365 486.01 509.855C487.49 514.205 491.57 517.365 496.43 517.365H521.29C527.39 517.365 532.34 512.415 532.34 506.315C532.34 500.215 527.39 495.265 521.29 495.265H507.48V268.725H521.3Z" fill="black"/>
<path d="M975.51 343.005C981.61 343.005 986.56 338.055 986.56 331.955C986.56 325.855 981.61 320.905 975.51 320.905H900.92C894.82 320.905 889.87 325.855 889.87 331.955C889.87 338.055 894.82 343.005 900.92 343.005H922.58C917.73 351.865 914.74 364.285 914.74 381.685V494.955H876.06C869.96 494.955 865.01 499.905 865.01 506.005C865.01 512.105 869.96 517.055 876.06 517.055H975.51C981.61 517.055 986.56 512.105 986.56 506.005C986.56 499.905 981.61 494.955 975.51 494.955H936.84V381.685C936.84 343.005 950.58 343.005 975.51 343.005Z" fill="black"/>
<path d="M1151.31 494.085H1132.03V456.275C1132.03 450.175 1127.08 445.225 1120.98 445.225H1071.25C1045.22 445.225 1032.57 435.905 1032.57 416.735V378.055C1032.57 339.375 1046.31 339.375 1071.25 339.375C1094.58 339.375 1105.04 340.305 1108.77 362.255C1109.54 366.795 1109.93 372.115 1109.93 378.055C1109.93 383.995 1114.88 389.105 1120.98 389.105C1127.08 389.105 1132.03 384.155 1132.03 378.055V339.375H1145.84C1151.94 339.375 1156.89 334.425 1156.89 328.325C1156.89 322.225 1151.94 317.275 1145.84 317.275H1120.98C1116.11 317.275 1112.03 320.445 1110.55 324.815C1098.29 317.285 1083.06 317.275 1071.25 317.275C1047.05 317.275 1010.47 317.275 1010.47 378.055V416.735C1010.47 430.775 1015.11 442.805 1023.87 451.535C1034.4 462.015 1050.34 467.325 1071.24 467.325H1109.92V494.085H1021.52C1015.42 494.085 1010.47 499.035 1010.47 505.135C1010.47 565.915 1047.05 565.915 1071.25 565.915C1093.89 565.915 1127.35 565.915 1131.58 516.185H1151.31C1157.41 516.185 1162.36 511.235 1162.36 505.135C1162.36 499.035 1157.41 494.085 1151.31 494.085ZM1071.25 543.815C1048.96 543.815 1035.61 543.815 1033.03 516.185H1109.46C1106.88 543.815 1093.54 543.815 1071.24 543.815H1071.25Z" fill="black"/>
<path d="M613.22 439.225C617.53 443.535 624.53 443.535 628.85 439.225L678.58 389.495C680.65 387.425 681.82 384.615 681.82 381.685C681.82 320.905 645.24 320.905 621.04 320.905C596.84 320.905 560.26 320.905 560.26 381.685V456.275C560.26 517.055 596.84 517.055 621.04 517.055C645.24 517.055 681.82 517.055 681.82 456.275C681.82 450.175 676.87 445.225 670.77 445.225C664.67 445.225 659.72 450.175 659.72 456.275C659.72 494.955 645.98 494.955 621.04 494.955C596.1 494.955 582.36 494.955 582.36 456.275V381.685C582.36 343.005 596.1 343.005 621.04 343.005C645.98 343.005 658.59 343.005 659.65 377.175L613.23 423.595C608.92 427.915 608.92 434.905 613.23 439.225H613.22Z" fill="black"/>
<path d="M836.22 320.905C831.36 320.905 827.28 324.055 825.8 328.415C813.66 320.915 798.54 320.905 786.49 320.905C762.29 320.905 725.71 320.905 725.71 381.685C725.71 385.165 727.35 388.435 730.13 390.525L825.06 461.725C823.78 494.955 810.19 494.955 786.48 494.955C761.54 494.955 747.8 494.955 747.8 456.275C747.8 450.175 742.85 445.225 736.75 445.225C730.65 445.225 725.7 450.175 725.7 456.275V506.005C725.7 512.105 730.65 517.055 736.75 517.055C741.61 517.055 745.69 513.905 747.17 509.545C759.31 517.045 774.43 517.055 786.48 517.055C810.68 517.055 847.26 517.055 847.26 456.275C847.26 452.795 845.62 449.525 842.84 447.435L747.91 376.235C749.19 343.005 762.78 343.005 786.49 343.005C811.43 343.005 825.17 343.005 825.17 381.685C825.17 387.785 830.12 392.735 836.22 392.735C842.32 392.735 847.27 387.785 847.27 381.685V331.955C847.27 325.855 842.32 320.905 836.22 320.905Z" fill="black"/>
<path d="M1345.11 494.945H1331.3V381.675C1331.3 320.895 1294.72 320.895 1270.52 320.895C1258.47 320.895 1243.35 320.895 1231.21 328.405C1229.73 324.055 1225.65 320.895 1220.79 320.895H1195.93C1189.83 320.895 1184.88 325.845 1184.88 331.945C1184.88 338.045 1189.83 342.995 1195.93 342.995H1209.74V494.945H1195.93C1189.83 494.945 1184.88 499.895 1184.88 505.995C1184.88 512.095 1189.83 517.045 1195.93 517.045H1220.79C1226.89 517.045 1231.84 512.095 1231.84 505.995V381.675C1231.84 342.995 1245.58 342.995 1270.52 342.995C1295.46 342.995 1309.19 342.995 1309.19 381.675V505.995C1309.19 512.095 1314.14 517.045 1320.24 517.045H1345.11C1351.21 517.045 1356.16 512.095 1356.16 505.995C1356.16 499.895 1351.21 494.945 1345.11 494.945Z" fill="black"/>
</svg>
