<svg width="1472" height="300" viewBox="0 0 1472 300" fill="none" xmlns="http://www.w3.org/2000/svg">
<path d="M93.1963 5.5558C93.8973 5.5558 94.5813 5.63292 95.249 5.74916C99.5573 5.55782 103.799 5.5558 107.713 5.5558C114.287 5.5558 119.616 10.8849 119.616 17.4591C119.616 24.0331 114.287 29.3615 107.713 29.3615C100.721 29.3615 94.7477 29.3837 89.3291 30.1046C84.0106 30.8125 80.0829 32.1046 77.0977 34.1017C71.9257 37.5621 65.6144 45.9864 65.6143 71.4601V275.568H119.905C126.479 275.568 131.813 280.897 131.813 287.471C131.813 294.045 126.479 299.373 119.905 299.373H11.9023C5.3284 299.373 0.000305718 294.045 0 287.471C0 280.897 5.32821 275.568 11.9023 275.568H41.8096V71.4601C41.8097 53.6728 44.5473 39.7545 50.2471 29.3615H11.9023C5.32843 29.3613 0.000360705 24.033 0 17.4591C0 10.885 5.32821 5.55594 11.9023 5.5558H93.1963Z" fill="black"/>
<path d="M219.203 86.2658C224.467 86.2663 228.923 89.6889 230.493 94.4259C244.084 85.8985 261.123 86.2658 273.204 86.2658C285.551 86.2658 303.08 85.8823 316.812 95.004C331.874 105.01 339.108 123.558 339.108 152.176V275.568H354.498C361.072 275.568 366.4 280.897 366.4 287.471C366.4 294.045 361.072 299.373 354.498 299.373H327.206C320.633 299.373 315.303 294.044 315.303 287.471V152.176C315.303 126.792 308.893 118.329 303.633 114.834C297.041 110.457 287.565 110.077 273.204 110.077C258.843 110.077 249.368 110.458 242.776 114.834C237.516 118.329 231.105 126.792 231.105 152.176V287.471C231.105 294.044 225.777 299.373 219.203 299.373H191.91C185.336 299.373 180.008 294.045 180.008 287.471C180.008 280.897 185.336 275.568 191.91 275.568H207.301V110.077H191.91C185.337 110.077 180.009 104.747 180.008 98.174C180.008 91.6 185.336 86.2659 191.91 86.2658H219.203Z" fill="black"/>
<path d="M566.653 18.3322C578.467 18.3836 593.385 19.0891 605.4 27.0704C620.463 37.0765 627.703 55.6175 627.703 84.2355V90.3322H691.287C697.861 90.3322 703.188 95.6611 703.189 102.235C703.189 108.809 697.861 114.143 691.287 114.143H627.703V233.47C627.703 258.852 634.113 267.31 639.373 270.805C645.965 275.183 655.439 275.567 669.801 275.568C676.375 275.568 681.704 280.897 681.704 287.471C681.704 294.045 676.375 299.373 669.801 299.373C657.454 299.373 639.931 299.755 626.2 290.635C611.138 280.629 603.898 262.087 603.897 233.47V114.143H580.96C574.386 114.143 569.058 108.809 569.058 102.235C569.059 95.6611 574.386 90.3322 580.96 90.3322H603.897V84.2355C603.897 58.852 597.488 50.3951 592.228 46.9005C585.636 42.522 576.161 42.1369 561.799 42.1369H477.018C470.027 42.1369 464.056 42.1534 458.639 42.8742C453.319 43.582 449.388 44.8805 446.402 46.8781C441.648 50.0598 435.946 57.4374 435.055 78.3956L538.181 156.021C541.168 158.27 542.927 161.79 542.927 165.529C542.927 194.147 535.686 212.689 520.624 222.695C508.61 230.676 493.69 231.382 481.877 231.434H472.163C460.64 231.384 446.168 230.702 434.312 223.262C432.746 228.007 428.286 231.434 423.017 231.434C416.443 231.433 411.113 226.105 411.113 219.531V165.529C411.113 158.956 416.443 153.628 423.017 153.627C429.591 153.627 434.919 158.955 434.919 165.529C434.919 190.913 441.328 199.371 446.589 202.865C453.18 207.244 462.655 207.628 477.018 207.628C491.381 207.628 500.86 207.244 507.452 202.865C512.287 199.653 518.068 192.246 518.975 171.36L415.86 93.7453C412.873 91.4964 411.113 87.975 411.113 84.2355C411.113 55.7077 418.161 37.1272 433.167 27.087C440.269 22.3362 448.135 20.2591 455.497 19.2794C462.762 18.3129 470.364 18.3322 477.018 18.3322H566.653Z" fill="black"/>
<path d="M856.2 86.2658C862.773 86.2672 868.102 91.6007 868.103 98.174C868.101 104.746 862.772 110.076 856.2 110.077C849.209 110.077 843.234 110.093 837.815 110.814C832.496 111.521 828.57 112.82 825.584 114.818C820.412 118.278 814.102 126.702 814.102 152.176V275.568H856.2C862.773 275.569 868.103 280.897 868.103 287.471C868.102 294.044 862.773 299.372 856.2 299.373H748.191C741.618 299.372 736.289 294.044 736.289 287.471C736.289 280.897 741.618 275.568 748.191 275.568H790.29V152.176C790.29 134.389 793.035 120.47 798.734 110.077H774.906C768.333 110.077 762.999 104.747 762.998 98.174C762.998 91.5998 768.332 86.2658 774.906 86.2658H856.2Z" fill="black"/>
<path d="M950.848 5.5558C957.421 5.55642 962.751 10.8852 962.751 17.4591V86.2658H1032.14C1038.72 86.2664 1044.04 91.6002 1044.04 98.174C1044.04 104.747 1038.71 110.077 1032.14 110.077H962.751V233.47C962.751 258.852 969.16 267.31 974.421 270.805C981.013 275.182 990.488 275.568 1004.85 275.568C1019.21 275.568 1028.69 275.182 1035.28 270.805C1040.54 267.31 1046.95 258.852 1046.95 233.47C1046.95 226.896 1052.28 221.567 1058.85 221.567C1065.42 221.567 1070.75 226.896 1070.75 233.47C1070.75 262.086 1063.52 280.629 1048.46 290.635C1036.44 298.617 1021.52 299.322 1009.7 299.373H999.995C988.181 299.322 973.258 298.617 961.242 290.635C946.181 280.629 938.946 262.086 938.945 233.47V110.077H923.556C916.982 110.077 911.655 104.747 911.653 98.174C911.654 91.5998 916.982 86.2658 923.556 86.2658H938.945V29.3615H923.556C916.982 29.3615 911.654 24.0331 911.653 17.4591C911.653 10.8849 916.981 5.5558 923.556 5.5558H950.848Z" fill="black"/>
<path d="M1145.37 86.2658C1151.95 86.2665 1157.28 91.6003 1157.28 98.174V233.47C1157.28 258.852 1163.68 267.31 1168.95 270.805C1175.54 275.182 1185.01 275.568 1199.37 275.568C1213.74 275.568 1223.21 275.182 1229.8 270.805C1235.06 267.31 1241.47 258.852 1241.47 233.47V110.077H1226.08C1219.51 110.076 1214.18 104.746 1214.18 98.174C1214.18 91.6006 1219.51 86.267 1226.08 86.2658H1253.38C1259.95 86.2658 1265.28 91.5998 1265.28 98.174V275.568H1280.67C1287.24 275.568 1292.57 280.897 1292.57 287.471C1292.57 294.045 1287.24 299.373 1280.67 299.373H1253.38C1248.11 299.373 1243.65 295.949 1242.08 291.207C1230.22 298.645 1215.75 299.323 1204.23 299.373H1194.52C1182.71 299.322 1167.78 298.617 1155.77 290.635C1140.71 280.629 1133.47 262.086 1133.47 233.47V110.077H1118.08C1111.51 110.077 1106.18 104.747 1106.18 98.174C1106.18 91.5999 1111.51 86.2658 1118.08 86.2658H1145.37Z" fill="black"/>
<path d="M1352.09 5.5558C1358.66 5.5558 1363.99 10.8849 1363.99 17.4591V86.2658H1432.8C1439.38 86.2663 1444.71 91.6002 1444.71 98.174C1444.71 104.747 1439.38 110.077 1432.8 110.077H1363.99V233.47C1363.99 258.852 1370.4 267.31 1375.66 270.805C1382.25 275.183 1391.73 275.567 1406.09 275.568C1420.45 275.568 1429.93 275.183 1436.52 270.805C1441.78 267.31 1448.19 258.852 1448.19 233.47C1448.19 226.896 1453.52 221.567 1460.1 221.567C1466.67 221.568 1472 226.896 1472 233.47C1472 262.087 1464.76 280.629 1449.7 290.635C1437.68 298.616 1422.76 299.322 1410.95 299.373H1401.24C1389.42 299.322 1374.5 298.616 1362.49 290.635C1347.43 280.629 1340.19 262.087 1340.19 233.47V110.077H1324.8C1318.22 110.076 1312.9 104.746 1312.89 98.174C1312.89 91.6006 1318.22 86.267 1324.8 86.2658H1340.19V29.3615H1324.8C1318.22 29.3602 1312.89 24.0323 1312.89 17.4591C1312.89 10.8856 1318.22 5.55704 1324.8 5.5558H1352.09Z" fill="black"/>
<path d="M807.121 3.48646C811.77 -1.16212 819.308 -1.16219 823.957 3.48646L843.254 22.7833C845.486 25.0154 846.741 28.0419 846.741 31.1984C846.741 34.3554 845.486 37.3869 843.254 39.6193L823.957 58.9161C819.308 63.5641 811.77 63.5643 807.121 58.9161L787.823 39.6193C783.175 34.9708 783.176 27.432 787.823 22.7833L807.121 3.48646Z" fill="black"/>
</svg>
