<?xml version="1.0" encoding="UTF-8"?>
<svg id="Calque_1" xmlns="http://www.w3.org/2000/svg" version="1.1" viewBox="0 0 483.6 181.1">
  <!-- Generator: Adobe Illustrator 30.4.0, SVG Export Plug-In . SVG Version: 2.1.4 Build 226)  -->
  <defs>
    <style>
      .st1 {
        stroke-width: 2.6px;
      }

      .st1, .st2 {
        fill: #fff;
      }

      .st1, .st3 {
        stroke: #fff;
        stroke-linecap: round;
        stroke-linejoin: round;
      }

      .st3 {
        fill: none;
        stroke-width: 4.1px;
      }
    </style>
  </defs>
  <g>
    <path class="st2" d="M396.7,65.8c-.4-5.6-1.7-9.1-4-10.3-2.1-1.2-5.3-1-8.8-.7l-11.9.8,4.9,70.4,11.9-.8c7.7-.5,11.9-.8,11.1-12.7l-3.3-46.7Z"/>
    <path class="st2" d="M468.7,4.7l-159.5,11.2,1.6,23.3h25v103.9h-17.7l2.3,32.3,159.5-11.2-11.2-159.5ZM389.5,132.5l-23.3,1.6c0,0-.2,0-.3,0-1.9,0-3.5-1.5-3.7-3.4-.1-2,1.4-3.8,3.4-3.9l4.1-.3-4.9-70.4-4.1.3c-2,.1-3.8-1.4-3.9-3.4s1.4-3.8,3.4-3.9l23.3-1.6c4.2-.3,8.9-.6,12.9,1.7,4.6,2.6,7.1,7.9,7.7,16.2l3.3,46.7c1.3,19.2-10.2,20-17.9,20.6ZM434.1,122.7l-5.7,6.6c-.5.6-1.2.9-1.9.9s-1.2-.2-1.6-.6l-6.6-5.7c-1-.9-1.1-2.5-.2-3.5l5.7-6.6c.9-1,2.5-1.1,3.5-.2l6.6,5.7c1,.9,1.1,2.5.2,3.5Z"/>
    <g>
      <g>
        <path class="st3" d="M64,64.8s4.7,0,0,0-9.3,0-9.3,9.3v37.2h-7.2"/>
        <line class="st3" x1="66.1" y1="111.3" x2="49.6" y2="111.3"/>
        <line class="st3" x1="49.6" y1="111.3" x2="56.8" y2="111.3"/>
        <line class="st3" x1="47.5" y1="64.8" x2="61.5" y2="64.8"/>
      </g>
      <g>
        <path class="st3" d="M178.9,78.7h14c-4.7,0-9.3,0-9.3,9.3v23.3h-9.3"/>
        <line class="st3" x1="183.5" y1="111.3" x2="192.9" y2="111.3"/>
        <rect class="st1" x="183.5" y="64.8" width="4.7" height="4.7" transform="translate(7 151.1) rotate(-45)"/>
      </g>
      <g>
        <path class="st3" d="M78.5,111.3h4.7v-23.3c0-9.3,4.7-9.3,9.3-9.3s9.3,0,9.3,9.3v23.3h4.7"/>
        <polyline class="st3" points="83.2 88 83.2 78.7 78.5 78.7"/>
      </g>
      <g>
        <path class="st3" d="M238,78.7h4.7v23.3c0,9.3,4.7,9.3,9.3,9.3s9.3,0,9.3-9.3v-23.3h-4.7"/>
        <polyline class="st3" points="261.3 102 261.3 111.3 266 111.3"/>
      </g>
      <g>
        <line class="st3" x1="204.5" y1="78.7" x2="223.2" y2="78.7"/>
        <path class="st3" d="M227.8,102c0,9.3-4.7,9.3-9.3,9.3s-9.3,0-9.3-9.3v-37.2h-4.7"/>
      </g>
      <g>
        <line class="st3" x1="273.6" y1="78.7" x2="292.2" y2="78.7"/>
        <path class="st3" d="M296.9,102c0,9.3-4.7,9.3-9.3,9.3s-9.3,0-9.3-9.3v-37.2h-4.7"/>
      </g>
      <g id="st0" data-name="st">
        <line class="st3" x1="118.3" y1="99.6" x2="118.3" y2="90.3"/>
        <g>
          <path class="st3" d="M151.5,76.3c0-9.3-4.7-9.3-9.3-9.3h-14.6c-4.7,0-9.3,0-9.3,9.3l18.6,14c0,9.3-4.7,9.3-9.3,9.3s-9.3,0-9.3-9.3"/>
          <path class="st3" d="M151.5,76.3v25.7c0,9.3,4.7,9.3,9.3,9.3"/>
          <line class="st3" x1="145.5" y1="79.4" x2="164.5" y2="79.4"/>
        </g>
      </g>
    </g>
  </g>
  <rect class="st3" x="9.6" y="39.2" width="326.2" height="103.9"/>
</svg>