<?xml version="1.0" standalone="no"?>
<!DOCTYPE svg PUBLIC "-//W3C//DTD SVG 1.1//EN" "http://www.w3.org/Graphics/SVG/1.1/DTD/svg11.dtd">
<svg xmlns="http://www.w3.org/2000/svg">
  <defs>
    <font id="IBMPlexMono" horiz-adv-x="600">
      <font-face font-family="IBM Plex Mono" units-per-em="1000" panose-1="2 11 5 9 5 2 3 0 2 3" ascent="1025" descent="-275" alphabetic="0"/>
      <glyph unicode=" " glyph-name="space" horiz-adv-x="600"/>
      <glyph unicode="!" glyph-name="exclam" horiz-adv-x="600" d="M280,233l17,262l34,203h86L383,495L311,233H280ZM257-9Q222-9 207,3.5T192,35q0,5 1,12t3,21q5,27 23,43t58,16q35,0 50-12.5T342,83q0-5-1-12t-3-21q-5-27-23-43T257-9Z"/>
      <glyph unicode="&quot;" glyph-name="quotedbl" horiz-adv-x="600" d="M211,464l46,276h74L285,464H211Zm174,0l46,276h74L459,464H385Z"/>
      <glyph unicode="#" glyph-name="numbersign" horiz-adv-x="600" d="M142,217H12l11,64H164l46,136H81l11,64H232l74,217h73L141,0H68l74,217ZM490,698h73L489,481H619l-11-64H467L421,281H550l-11-64H399L325,0H252L490,698Z"/>
      <glyph unicode="$" glyph-name="dollar" horiz-adv-x="600" d="M223-9Q151-1 100.5,32T23,113l62,49q29-44 64.5-69T235,61l44,266l-16,4Q102,367 102,502q0,47 17.5,85t49,65t76,41.5T343,710l17,101h60L402,707q69-9 114.5-40T585,594l-60-44q-49,75-135,87L348,388l26-6q85-20 122.5-63T534,212q0-48-17.5-88t-50-69.5t-79-47T283-12L266-113H206L223-9ZM186,508q0-46 27-69.5T292,401l39,238q-68-5-106.5-39.5T186,508ZM450,205q0,43-26,69.5T336,314L294,60q72,6 114,44.5T450,205Z"/>
      <glyph unicode="%" glyph-name="percent" horiz-adv-x="600" d="M192,357q-59,0-94,35.5T63,500q0,47 13.5,85.5T114,652t56,43t68,15q59,0 94-35.5T367,567q0-47-13.5-85.5T316,415t-56-43t-68-15Zm2,53q42,0 65.5,26.5T291,508q7,40 9,54t2,22q0,73-66,73q-42,0-65.5-26.5T139,559q-3-20-5.5-33T130,505t-1.5-13t-0.5-9q0-73 66-73ZM584,698h72L447,398H375L584,698ZM185,300h72L48,0H-24L185,300ZM394-12q-59,0-94,35.5T265,131q0,47 13.5,85.5T316,283t56,43t68,15q59,0 94-35.5T569,198q0-47-13.5-85.5T518,46T462,3T394-12Zm2,53q42,0 65.5,26.5T493,139q7,40 9,54t2,22q0,73-66,73q-42,0-65.5-26.5T341,190q-3-20-5.5-33T332,136t-1.5-13t-0.5-9q0-73 66-73Z"/>
      <glyph unicode="&amp;" glyph-name="ampersand" horiz-adv-x="600" d="M164-12Q125-12 94.5,1.5T43,39.5t-31.5,58T1,171q0,34 8.5,70.5T39,309t57.5,52.5T190,388q-23,46-33,77.5T147,531q0,41 14,74t38.5,56.5t58.5,36T333,710q72,0 118.5-41.5T498,542q0-95-54-147.5T301,327L438,59h17l78,129l55-28L538,67Q515,24 493.5,6T443-12q-43,0-70.5,36.5T322,135h-5q-6-44-22-72.5t-37-45t-45.5-23T164-12Zm12,68q56,0 84,32t38,78L209,349q-35-5-57-17t-34.5-28t-19-34.5T89,233q-3-16-4-31.5T84,175q0-65 23-92t69-27ZM327,645q-45,0-73.5-26.5T225,533q0-33 11-66.5T272,385l11-21q97,24 125,102q7,20 9,39.5t2,33.5q0,59-26,82.5T327,645Z"/>
      <glyph unicode="&apos;" glyph-name="quotesingle" horiz-adv-x="600" d="M297,464l46,276h74L371,464H297Z"/>
      <glyph unicode="(" glyph-name="parenleft" horiz-adv-x="600" d="M206,216q0,87 24.5,169T295,538t91.5,128.5T493,760h85q-50-34-96.5-78T397,586T332,475.5T295,354l-14-85q-6-36-6-74q0-53 12-101T319.5,3.5t48.5-78T429-138H352q-31,26-57.5,63t-46,82t-31,98T206,216Z"/>
      <glyph unicode=")" glyph-name="parenright" horiz-adv-x="600" d="M413,406q0-87-24.5-169T324,83.5T232.5-45T126-138H41q50,34 96.5,78T222,36t64.5,110.5T324,268l14,85q6,36 6,74q0,52-12,100.5t-32.5,91t-48.5,78T190,760h77q31-26 57.5-63t46-82t31-98T413,406Z"/>
      <glyph unicode="*" glyph-name="asterisk" horiz-adv-x="600" d="M145,55L92,99L242,267L56,336l30,60l190-64l36,216h72L348,332l205,64l9-64L355,264L450,96L392,55L296,227L145,55Z"/>
      <glyph unicode="+" glyph-name="plus" horiz-adv-x="600" d="M230,62l35,210H67l11,66H276l35,210h74L350,338H548l-11-66H339L304,62H230Z"/>
      <glyph unicode="," glyph-name="comma" horiz-adv-x="600" d="M237,135H364L205-141H139l98,276Z"/>
      <glyph unicode="-" glyph-name="hyphen" horiz-adv-x="600" d="M157,263l14,82H457l-14-82H157Z"/>
      <glyph unicode="." glyph-name="period" horiz-adv-x="600" d="M257-9Q222-9 207,4T192,36q0,6 1,14.5T196,68q5,27 24,43t57,16q35,0 50-13t15-32q0-6-1-14.5T338,50q-5-27-24-43T257-9Z"/>
      <glyph unicode="/" glyph-name="slash" horiz-adv-x="600" d="M25-138L521,760h73L97-138H25Z"/>
      <glyph unicode="0" glyph-name="zero" horiz-adv-x="600" d="M260-12Q157-12 109.5,49T62,225q0,44 5.5,97T87,429t37,104.5t57.5,90t81.5,63T372,710q103,0 150.5-61T570,473q0-44-5.5-97T545,269T508,164.5t-57.5-90T369,11.5T260-12Zm6,72q81,0 131,62t68,170l19,114q4,23 5.5,44t1.5,38q0,72-29.5,111T366,638q-81,0-131-62T167,406L148,292q-4-23-5.5-44T141,210q0-72 29.5-111T266,60Zm41,231q-30,0-43,10.5T251,328q0,5 1,12t3,16q4,23 19.5,37T325,407q30,0 43-10.5T381,370q0-5-1-12t-3-16q-4-23-19.5-37T307,291Z"/>
      <glyph unicode="1" glyph-name="one" horiz-adv-x="600" d="M42,0L54,72H254l95,564h-8L138,472L97,525L310,698H441L336,72H521L509,0H42Z"/>
      <glyph unicode="2" glyph-name="two" horiz-adv-x="600" d="M493,0H29L43,85L311,296q42,33 69,58t43.5,47.5t25,45.5T462,499q3,18 3,32q0,48-32,78t-91,30q-32,0-57-9.5t-44.5-26t-34.5-38T179,519l-72,28q15,34 36.5,63.5T195,662t68.5,35T351,710q47,0 84-13t63-36.5T537.5,604T551,532q0-42-13-79t-37.5-71.5t-60-68T359,245L132,71H505L493,0Z"/>
      <glyph unicode="3" glyph-name="three" horiz-adv-x="600" d="M293,401q72,0 114,31.5T459,518q2,8 3,16t1,16q0,42-31.5,65.5T349,639q-57,0-96-26.5T188,549l-55,47q18,23 39.5,43.5T221,676t60.5,25t75.5,9q43,0 78.5-10t61-30T536,621t14-66q0-33-11-62.5t-32-54T455,396t-71-27l-1-4q53-8 88.5-46.5T507,214q0-45-18.5-86t-53-72t-84-49.5T239-12q-48,0-83,10.5t-60.5,28T53,66T24,111l68,42q10-20 22.5-37T145,86t43-20t60-7q72,0 115.5,32T417,186q2,10 3,19.5t1,17.5q0,51-32.5,79.5T287,331H204l12,70h77Z"/>
      <glyph unicode="4" glyph-name="four" horiz-adv-x="600" d="M337,0l23,137H15l13,77L421,698H532L449,205H554l-11-68H438L415,0H337ZM103,205H371l69,409h-4L103,205Z"/>
      <glyph unicode="5" glyph-name="five" horiz-adv-x="600" d="M559,627H250L185,358h6q31,35 65,55t87,20q85,0 135.5-48T529,252q0-51-17-99T460.5,68.5T375,10T256-12q-41,0-73.5,10T124,25T79,63T48,107l70,46q11-21 24-38t30-29t39.5-19T266,60q72,0 116.5,37.5T438,203q2,14 3,22.5t1,21.5q0,55-32.5,86T312,364q-50,0-81-17t-58-42l-68,9l88,384H571l-12-71Z"/>
      <glyph unicode="6" glyph-name="six" horiz-adv-x="600" d="M259-12q-96,0-147,56.5T61,201q0,80 30.5,155.5t78,140T276,613t116,85H502q-64-41-115.5-80T294,536.5T221,445T164,336l5-2q32,42 76,71t108,29q84,0 133-48.5T535,252q0-51-19-99T461.5,68.5T375,10T259-12Zm12,70q71,0 117.5,39T447,208q2,9 3,19t1,21q0,57-32.5,87.5T322,366q-71,0-117.5-39T146,216q-2-9-3-19t-1-21q0-57 32.5-87.5T271,58Z"/>
      <glyph unicode="7" glyph-name="seven" horiz-adv-x="600" d="M131,0L503,627H199L178,497H104l33,201H602l-12-72L222,0H131Z"/>
      <glyph unicode="8" glyph-name="eight" horiz-adv-x="600" d="M255-12q-54,0-94.5,13t-67,35.5T54,90.5T41,160q0,74 45.5,128T215,364l1,8q-47,17-71.5,52T120,508q0,38 16.5,74T185,646.5t79.5,46T374,710q96,0 146-41.5T570,556q0-30-10-58t-29-52.5T484,402t-64-31l-1-8q56-16 86-52.5T535,207q0-44-18-83.5T463.5,54t-88-48T255-12Zm12,70q78,0 123.5,34T446,185q2,14 3.5,23t1.5,20q0,51-36.5,78.5T311,334q-78,0-123.5-34T132,207q-2-14-3.5-23T127,164q0-51 36.5-78.5T267,58Zm57,343q69,0 109.5,31T482,513q3,18 3,33q0,45-31.5,69.5T362,640q-69,0-109.5-31T204,528q-3-18-3-33q0-45 31.5-69.5T324,401Z"/>
      <glyph unicode="9" glyph-name="nine" horiz-adv-x="600" d="M561,497q0-80-30.5-155.5t-78-140T346,85T230,0H119q64,41 115.5,80T327,161.5T400,253t58,109l-5,2q-33-42-76.5-71T269,264q-84,0-133,48.5T87,446q0,51 19,99t54.5,84.5T247,688t116,22q96,0 147-56.5T561,497ZM300,332q71,0 117.5,39T476,482q2,9 3,19t1,21q0,57-32.5,87.5T351,640q-71,0-117.5-39T175,490q-2-9-3-19t-1-21q0-57 32.5-87.5T300,332Z"/>
      <glyph unicode=":" glyph-name="colon" horiz-adv-x="600" d="M257-9Q222-9 207,4T192,36q0,6 1,14.5T196,68q5,27 24,43t57,16q35,0 50-13t15-32q0-6-1-14.5T338,50q-5-27-24-43T257-9Zm66,398q-35,0-50,13t-15,32q0,6 1,14.5t3,17.5q5,27 24,43t57,16q35,0 50-13t15-32q0-6-1-14.5T404,448q-5-27-24-43t-57-16Z"/>
      <glyph unicode=";" glyph-name="semicolon" horiz-adv-x="600" d="M237,135H364L205-141H139l98,276Zm86,254q-35,0-50,13t-15,32q0,6 1,14.5t3,17.5q5,27 24,43t57,16q35,0 50-13t15-32q0-6-1-14.5T404,448q-5-27-24-43t-57-16Z"/>
      <glyph unicode="&lt;" glyph-name="less" horiz-adv-x="600" d="M88,268l13,76L569,593l-14-85L168,305l-1-8L486,95L473,20L88,268Z"/>
      <glyph unicode="=" glyph-name="equal" horiz-adv-x="600" d="M84,373l11,66H566l-11-66H84ZM51,174l11,66H533l-11-66H51Z"/>
      <glyph unicode="&gt;" glyph-name="greater" horiz-adv-x="600" d="M63,106L450,308l1,8L132,519l13,74L530,345l-13-76L49,20l14,86Z"/>
      <glyph unicode="?" glyph-name="question" horiz-adv-x="600" d="M233,215l26,157q53,7 90,17.5t61.5,27t38,40.5T468,515q2,9 2,18t0,11q0,44-31,69.5T356,639q-64,0-100.5-33.5T199,520l-71,30q12,31 32,60t49,51.5T276,697t87,13q91,0 141.5-45.5T555,543q0-51-18-90t-48.5-67.5t-72-46T327,315L310,215H233ZM239-9Q204-9 189,4T174,36q0,6 1,14.5T178,68q5,27 24,43t57,16q35,0 50-13t15-32q0-6-1-14.5T320,50q-5-27-24-43T239-9Z"/>
      <glyph unicode="@" glyph-name="at" horiz-adv-x="600" d="M409-112H292q-65,0-110,17.5T109.5-43t-40,85T57,159q0,69 18,179q16,100 40,171t57.5,115.5t79,65T356,710q52,0 91-14.5t64.5-40t38-60.5T562,520q0-14-1.5-27.5T557,463L496,91H426l14,85h-4q-14-40-42-68.5T320,79q-47,0-76,37T215,237q0,49 11,98t32,87t53,62t74,24q41,0 63.5-22T478,429h4l5,32q2,14 3.5,28.5T492,517q0,60-30,96T357,649q-36,0-67-11.5T234,597t-44-78T159,396L134,244q-2-11-3.5-26.5t-2-31t-1-28.5T127,138q0-44 8-79T162.5,0T214-36.5T295-49H418l-9-63ZM347,138q23,0 40,11t31,30q14,20 23,41.5T455,269l17,101q2,13 0,27t-10.5,25.5t-23,19T402,449q-43,0-66-31t-34-94l-10-60q-2-14-3-25.5T288,218q0-41 15.5-60.5T347,138Z"/>
      <glyph unicode="A" glyph-name="A" horiz-adv-x="600" d="M442,0L417,199H171L79,0H-9L321,698H431L528,0H442ZM366,614h-9L202,272H409L366,614Z"/>
      <glyph unicode="B" glyph-name="B" horiz-adv-x="600" d="M163,698H388q82,0 125-43.5T556,537q0-69-37-112t-95-59l-1-4q23-7 43-18t34.5-28T523,276t8-54q0-44-16-84T470.5,67.5t-69-49T313,0H46L163,698ZM296,72q60,0 96.5,26T438,178l5,30q2,9 3,18t1,19q0,38-28.5,60T338,327H182L139,72H296Zm40,323q57,0 88.5,24.5T464,489l5,30q3,18 3,32q0,40-26.5,57.5T374,626H231L193,395H336Z"/>
      <glyph unicode="C" glyph-name="C" horiz-adv-x="600" d="M287-12Q178-12 128,53T78,240q0,40 5.5,90.5t19.5,103t37,102T197.5,624T280,686.5T391,710q48,0 82-14t56.5-36.5T564,609t18-57l-74-24q-5,22-13.5,42T472,605t-35,24t-52,9q-84,0-133.5-63.5T184,403l-16-96q-4-23-6-45t-2-43q0-72 32-115.5T296,60q30,0 53,8.5T391.5,94T429,137t38,61l65-33q-20-41-43-74T436.5,35t-66-35T287-12Z"/>
      <glyph unicode="D" glyph-name="D" horiz-adv-x="600" d="M172,698H343q55,0 96.5-17T509,634t42-71.5T565,473q0-122-22-211T479.5,114.5T379.5,28T248,0H55L172,698ZM255,72q169,0 205,217l16,96q3,18 5,41.5t2,44.5q0,76-38,115.5T333,626H242L149,72H255Z"/>
      <glyph unicode="E" glyph-name="E" horiz-adv-x="600" d="M47,0L164,698H592l-12-72H234L194,390H529l-12-72H182L141,72H489L477,0H47Z"/>
      <glyph unicode="F" glyph-name="F" horiz-adv-x="600" d="M47,0L164,698H602l-12-72H234L194,389H521l-12-72H182L129,0H47Z"/>
      <glyph unicode="G" glyph-name="G" horiz-adv-x="600" d="M421,102h-5q-14-23-29.5-44T351,21.5T305.5-3T246-12q-89,0-134.5,63.5T66,240q0,40 5.5,90.5T91,433.5t37,102T186,624t82.5,62.5T379,710q48,0 82-14t56.5-36.5T552,609t18-57l-74-24q-5,22-13.5,42T460,605t-35,24t-52,9q-43,0-76.5-17t-58-47.5t-41-74T172,402l-16-96q-4-23-5-45.5T150,225q0-77 28-122t94-45q36,0 64.5,13.5t50,36t35,52.5T441,224l9,54H304l11,66H537L480,0H404l17,102Z"/>
      <glyph unicode="H" glyph-name="H" horiz-adv-x="600" d="M446,318H174L121,0H39L156,698h82L186,390H458l52,308h82L475,0H393l53,318Z"/>
      <glyph unicode="I" glyph-name="I" horiz-adv-x="600" d="M41,0L52,66H227l95,566H147l11,66H590l-11-66H404L309,66H484L473,0H41Z"/>
      <glyph unicode="J" glyph-name="J" horiz-adv-x="600" d="M553,698L465,170Q449,76 391.5,32T249-12q-81,0-132,41T58,151l79,17q3-22 9-41.5t18.5-34t33.5-23T251,61q114,0 136,134l72,431H205l12,72H553Z"/>
      <glyph unicode="K" glyph-name="K" horiz-adv-x="600" d="M287,345L162,221L125,0H43L160,698h82L181,335h4L319,477L541,698H645L347,402L530,0H440L287,345Z"/>
      <glyph unicode="L" glyph-name="L" horiz-adv-x="600" d="M78,0L195,698h81L172,72H503L491,0H78Z"/>
      <glyph unicode="M" glyph-name="M" horiz-adv-x="600" d="M472,350l38,224h-7L292,214L203,574h-7L159,350L101,0H26L143,698H243l74-309h6L500,698H605L488,0H413l59,350Z"/>
      <glyph unicode="N" glyph-name="N" horiz-adv-x="600" d="M223,602h-7L115,0H39L156,698H275L408,96h7L516,698h76L475,0H356L223,602Z"/>
      <glyph unicode="O" glyph-name="O" horiz-adv-x="600" d="M260-12Q157-12 109.5,49T62,225q0,44 5.5,97t19,107T123,533.5t57.5,90t81.5,63T372,710q103,0 150.5-61T570,473q0-44-5.5-97t-19-107T509,164.5t-57.5-90t-82-63T260-12Zm6,72q81,0 130,62t67,170l19,114q4,23 5.5,44t1.5,38q0,72-28.5,111T366,638q-81,0-130-62T169,406L150,292q-4-23-5.5-44T143,210q0-72 28.5-111T266,60Z"/>
      <glyph unicode="P" glyph-name="P" horiz-adv-x="600" d="M47,0L164,698H413q88,0 129.5-45.5T584,534q0-112-59.5-174.5T355,297H179L129,0H47ZM191,369H363q57,0 88.5,27T491,468l6,36q3,18 3,39q0,42-25.5,62.5T403,626H234L191,369Z"/>
      <glyph unicode="Q" glyph-name="Q" horiz-adv-x="600" d="M384-182q-23,0-38.5,12.5T316-137L229-10Q142-2 102,58.5T62,225q0,44 5.5,97t19,107T123,533.5t57.5,90t81.5,63T372,710q103,0 150.5-61T570,473q0-42-5-90.5T548.5,284T518,186.5t-47-87T404.5,32T316-6l72-108l13-3L501-27l44-37l-61-58q-16-15-28.5-26.5t-24-19t-22.5-11T384-182ZM266,60q81,0 130,62t67,170l19,114q4,23 5.5,44t1.5,38q0,72-28.5,111T366,638q-81,0-130-62T169,406L150,292q-4-23-5.5-44T143,210q0-72 28.5-111T266,60Z"/>
      <glyph unicode="R" glyph-name="R" horiz-adv-x="600" d="M129,0H47L164,698H413q88,0 129.5-45.5T584,534q0-105-55-165T374,302L501,0H412L293,299H179L129,0ZM363,369q51,0 85.5,24.5T491,468l6,36q3,18 3,39q0,42-25.5,62.5T403,626H234L191,369H363Z"/>
      <glyph unicode="S" glyph-name="S" horiz-adv-x="600" d="M266-12q-91,0-150.5,34.5T25,111l62,49q32-51 76-76T270,59q82,0 130,39.5T448,205q0,43-24.5,69T338,314l-75,17q-83,19-121,61T104,502q0,48 18.5,86.5T174,654t79,41.5T355,710q45,0 81.5-9T501,676t48-36.5T583,595l-60-44q-29,44-70.5,66.5T351,640q-76,0-119.5-35.5T188,508q0-48 28.5-72T301,399l73-17q87-20 122.5-63T532,212q0-50-18.5-91t-53-70.5t-84-46T266-12Z"/>
      <glyph unicode="T" glyph-name="T" horiz-adv-x="600" d="M403,626L298,0H216L321,626H87l12,72H649l-12-72H403Z"/>
      <glyph unicode="U" glyph-name="U" horiz-adv-x="600" d="M236,698L169,298q-5-27-7.5-46.5T157,218t-2.5-25T154,173q0-26 5-47t17.5-35.5T211,68t55-8q49,0 79,14t48,41.5T420.5,183T439,274l71,424h82L524,291q-13-78-29-135T452,61.5T381.5,6T269-12Q162-12 117.5,34T73,166q0,32 5.5,74T91,323l63,375h82Z"/>
      <glyph unicode="V" glyph-name="V" horiz-adv-x="600" d="M201,0L109,698h78l44-349L266,81h5L392,349L549,698h86L313,0H201Z"/>
      <glyph unicode="W" glyph-name="W" horiz-adv-x="600" d="M46,0l61,698h73L143,305L122,82h8L293,516h94L408,82h8l51,216l95,400h75L466,0H345L330,421h-8L167,0H46Z"/>
      <glyph unicode="X" glyph-name="X" horiz-adv-x="600" d="M533,0H445L381,141L313,290h-4L191,141L80,0H-16L275,360L114,698h88l62-135l64-138h4L441,563L547,698h96L367,353L533,0Z"/>
      <glyph unicode="Y" glyph-name="Y" horiz-adv-x="600" d="M216,0l46,272L90,698h88l71-183l59-161h4L427,515L558,698h98L345,279L298,0H216Z"/>
      <glyph unicode="Z" glyph-name="Z" horiz-adv-x="600" d="M508,0H5L17,74L503,626H129l12,72H609l-12-74L111,72H520L508,0Z"/>
      <glyph unicode="[" glyph-name="bracketleft" horiz-adv-x="600" d="M160-138L310,760H586l-10-61H367L238-77H446l-10-61H160Z"/>
      <glyph unicode="\" glyph-name="backslash" horiz-adv-x="600" d="M380-138L182,760h63L443-138H380Z"/>
      <glyph unicode="]" glyph-name="bracketright" horiz-adv-x="600" d="M436,760L286-138H10L20-77H229L358,699H149l11,61H436Z"/>
      <glyph unicode="^" glyph-name="asciicircum" horiz-adv-x="600" d="M507,293L371,630h-4L123,293L65,328L334,698h88L572,320l-65-27Z"/>
      <glyph unicode="_" glyph-name="underscore" horiz-adv-x="600" d="M2-167L14-95H489l-12-72H2Z"/>
      <glyph unicode="`" glyph-name="grave" horiz-adv-x="600" d="M229,752l74,27l52-174l-51-20L229,752Z"/>
      <glyph unicode="a" glyph-name="a" horiz-adv-x="600" d="M213-12Q137-12 96.5,38T56,188q0,52 12.5,111.5T109,410t74,84.5T296,528q56,0 93-25.5T443,426h3l15,90h78L465,70h71L524,0H466q-48,0-65.5,25T389,85l6,37h-3q-30-61-71-97.5T213-12Zm27,69q32,0 62.5,13.5T359,114q20,23 34.5,53T414,232l19,114q9,54-24.5,83.5T318,459q-72,0-113.5-45T151,297l-12-72q-2-14-3-24.5T135,180q0-58 26.5-90.5T240,57Z"/>
      <glyph unicode="b" glyph-name="b" horiz-adv-x="600" d="M177,740h78L197,394h3q30,61 72.5,97.5T383,528q78,0 119.5-50T544,328q0-52-12.5-111.5T490.5,106T415,21.5T300-12q-57,0-95.5,25.5T149,90h-3L131,0H53L177,740ZM276,57q75,0 118,45t55,117l12,72q2,14 3,24.5t1,20.5q0,58-27.5,90.5T356,459q-32,0-63-13.5T235,402q-20-22-35.5-52T178,284L159,170q-9-54 25-83.5T276,57Z"/>
      <glyph unicode="c" glyph-name="c" horiz-adv-x="600" d="M270-12q-48,0-84.5,16t-61,44.5t-37,69T75,206q0,74 21,133.5T153,441t84.5,64.5T341,528q41,0 71.5-10T465,491.5T500.5,452T521,404l-67-26q-15,48-44.5,65T332,460q-66,0-107.5-43T169,293l-10-60q-3-18-4-28t-1-20q0-66 34.5-97.5T280,56q17,0 34.5,4t38,17T397,115t55,67l56-33q-24-39-49-69.5T405.5,29t-62-30.5T270-12Z"/>
      <glyph unicode="d" glyph-name="d" horiz-adv-x="600" d="M403,122h-3q-30-61-72.5-97.5T217-12Q139-12 97.5,38T56,188q0,52 12.5,111.5t41,110.5T185,494.5T300,528q57,0 95.5-25.5T451,426h3l53,314h78L461,0H383l20,122ZM244,57q32,0 63,13.5T365,114q20,22 35.5,52T422,232l19,114q9,54-25.5,83.5T323,459q-75,0-117.5-45T151,297l-12-72q-2-14-3-24.5T135,180q0-58 27.5-90.5T244,57Z"/>
      <glyph unicode="e" glyph-name="e" horiz-adv-x="600" d="M277-12q-98,0-151,54.5T73,209q0,70 21,128.5t58.5,101t90,66T357,528q38,0 70-9t55.5-26.5T519,449t13-60q0-27-12.5-56t-52-54t-114-42T156,217q-1-8-1-14.5t0-8.5q0-27 5-52t19-44.5t39-31T284,55q28,0 50.5,6.5t43,20t40,35T459,169l55-34Q470,63 414.5,25.5T277-12Zm73,475q-78,0-127-47T163,281l-1-10q94,3 151.5,14.5t88,27.5T442,348t10,38q0,16-5.5,30T429,440.5T397.5,457T350,463Z"/>
      <glyph unicode="f" glyph-name="f" horiz-adv-x="600" d="M196-212q-16,0-30,6.5T135-185T96.5-148.5T45-93L-16-26L37,22L191-142l18,4l98,587H123l11,67H318l18,107q8,51 41,84t91,33H641l-11-67H422L396,516H605l-11-67H385L292-107q-3-21-10-40t-18.5-33.5t-28.5-23T196-212Z"/>
      <glyph unicode="g" glyph-name="g" horiz-adv-x="600" d="M212-212Q88-212 31-141L85-89q20-26 52-40t80-14q71,0 113,36T386,15l21,124h-4q-29-62-72.5-98T219,5Q139,5 98,55.5T57,201q0,50 13,107.5t42,106t75,81T300,528q57,0 95.5-25.5T451,426h3l15,90h78L461,0q-20-114-86-163T212-212ZM246,74q32,0 63,13t59,44q14,16 32,45.5T425,248l16,98q9,54-25.5,83.5T323,459q-73,0-116.5-44T151,299l-9-54q-2-14-3.5-23.5T137,201q0-62 27.5-94.5T246,74Z"/>
      <glyph unicode="h" glyph-name="h" horiz-adv-x="600" d="M183,740h78L203,394h4q29,62 69,98t103,36q65,0 102.5-39T519,379q0-15-1.5-32.5T513,312L461,0H383l51,305q3,18 4,32.5t1,22.5q0,46-21,72.5T353,459q-34,0-60.5-15T244,403q-4-5-12.5-15.5t-17.5-26t-17-35T185,285L137,0H59L183,740Z"/>
      <glyph unicode="i" glyph-name="i" horiz-adv-x="600" d="M340,631q-32,0-45,12t-13,28q0,6 1,13t3,16q4,23 20,35.5T352,748q32,0 45-12t13-28q0-6-1-13t-3-16q-4-23-20-35.5T340,631ZM272-12q-38,0-57.5,19.5T195,57q0,10 1.5,20.5T200,97l68,352H82l11,67H359L272,66l23-9L492,227l47-44L448,99q-35-33-60.5-54T342,11T305.5-7T272-12Z"/>
      <glyph unicode="j" glyph-name="j" horiz-adv-x="600" d="M275-212q-15,0-29,5.5t-30.5,19T177-151T123-93L58-22l53,48L269-142l18,4l98,587H172l11,67H474L370-107q-3-21-10-40t-18.5-33.5t-28-23T275-212ZM457,631q-32,0-45,12t-13,28q0,6 1,13t3,16q4,23 20,35.5T469,748q32,0 45-12t13-28q0-6-1-13t-3-16q-4-23-20-35.5T457,631Z"/>
      <glyph unicode="k" glyph-name="k" horiz-adv-x="600" d="M183,740h78L203,394h4q28,60 70,97t107,37q62,0 98.5-34.5T519,401q0-23-8-49.5t-31-52t-63.5-48T310,213L381,58l13-2L527,178l43-45L499,62Q460,23 434,5.5T379-12q-26,0-43.5,14T302,51L221,227q63,15 104.5,33.5t67,38.5t36,42T439,386q0,35-21.5,55T355,461q-38,0-65-16.5T242,402q-22-27-37-56t-20-61L137,0H59L183,740Z"/>
      <glyph unicode="l" glyph-name="l" horiz-adv-x="600" d="M249-12q-41,0-58,20T174,59q0,7 0.5,16T177,91L289,673H107l11,67H381L251,65l25-8L481,231l45-44L422,93q-36-33-62-53.5t-45.5-32T279.5-8T249-12Z"/>
      <glyph unicode="m" glyph-name="m" horiz-adv-x="600" d="M12,0L98,516h72l-13-81h4q18,39 43.5,66T273,528q44,0 63-28t16-70h3q20,45 50,71.5T480,528q43,0 65.5-25.5T568,429q0-14-2-33t-5-37L501,0H429l58,346q3,18 5,34.5t2,27.5q0,56-44,56q-21,0-36.5-11.5T385,424q-14-20-23-43.5T349,334L293,0H221l58,346q6,36 6,59q0,32-10.5,45.5T243,464t-38-11.5T176,424q-14-20-23-43.5T140,334L84,0H12Z"/>
      <glyph unicode="n" glyph-name="n" horiz-adv-x="600" d="M59,0l86,516h78L203,394h4q29,62 69,98t103,36q65,0 102.5-39T519,379q0-15-1.5-32.5T513,312L461,0H383l51,305q3,18 4,32.5t1,22.5q0,46-21,72.5T353,459q-34,0-60.5-15T244,403q-4-5-12.5-15.5t-17.5-26t-17-35T185,285L137,0H59Z"/>
      <glyph unicode="o" glyph-name="o" horiz-adv-x="600" d="M265-12q-50,0-87.5,16T115,48.5t-38,69T64,206q0,74 21,133.5T142.5,441T228,505.5T334,528q50,0 88-16t63.5-44.5t38-69T536,310q0-74-21-133.5T457.5,75t-86-64.5T265-12Zm4,68q73,0 116.5,44.5T442,222l10,60q3,18 4,30t1,21q0,66-34,96.5T331,460q-73,0-116.5-44.5T158,294l-10-60q-3-18-4-30t-1-21q0-66 34-96.5T269,56Z"/>
      <glyph unicode="p" glyph-name="p" horiz-adv-x="600" d="M139,516h78L197,394h3q30,61 72.5,97.5T383,528q78,0 119.5-50T544,328q0-52-12.5-111.5T490.5,106T415,21.5T300-12q-57,0-95.5,25.5T149,90h-3L97-200H19L139,516ZM277,57q75,0 117.5,45T449,219l12,72q2,14 3,24.5t1,20.5q0,58-27.5,90.5T356,459q-32,0-63-13.5T235,402q-20-22-35.5-52T178,284L159,170q-9-54 25.5-83.5T277,57Z"/>
      <glyph unicode="q" glyph-name="q" horiz-adv-x="600" d="M403,122h-3q-30-61-72.5-97.5T217-12Q139-12 97.5,38T56,188q0,52 12.5,111.5t41,110.5T185,494.5T300,528q57,0 95.5-25.5T451,426h3l15,90h78L427-200H349l54,322ZM244,57q32,0 63,13.5T365,114q20,22 35.5,52T422,232l19,114q9,54-25.5,83.5T323,459q-75,0-117.5-45T151,297l-12-72q-2-14-3-24.5T135,180q0-58 27.5-90.5T244,57Z"/>
      <glyph unicode="r" glyph-name="r" horiz-adv-x="600" d="M178,0l75,449H108l11,67H342L319,378h5q13,31 30,56.5T393.5,478T445,506t66,10h78l-13-78H488q-45,0-75-12.5T360,386q-5-6-13.5-16.5T329,344t-16.5-34T301,269L256,0H178Z"/>
      <glyph unicode="s" glyph-name="s" horiz-adv-x="600" d="M268-12q-75,0-130.5,25T48,85l58,46q30-38 70-57.5T275,54q69,0 108,26t39,73q0,36-21.5,49.5T347,221l-75,11q-28,4-55.5,11.5t-49,22.5t-35,38.5T119,364q0,41 17.5,71.5t47.5,51t70,31T340,528q68,0 116-21t77-58l-55-48q-7,10-18.5,21t-29,20t-42,14.5T331,462q-67,0-101.5-25T195,370q0-19 6.5-31T219,319.5t25.5-11T275,302l73-12q25-4 51.5-10.5t48.5-20t36.5-37T499,161q0-40-16.5-72t-47-54.5T362.5,0T268-12Z"/>
      <glyph unicode="t" glyph-name="t" horiz-adv-x="600" d="M239-12q-35,0-54.5,19T165,62q0,7 0.5,19t2.5,20l60,348H79l11,67H195q26,0 38.5,10.5T251,563l23,135h74L317,516H530l-11-67H306L242,67l20-12L487,205l39-50L413,75q-35-25-60.5-41.5T306.5,7T270-7.5T239-12Z"/>
      <glyph unicode="u" glyph-name="u" horiz-adv-x="600" d="M399,122h-4q-29-62-69-98T223-12q-65,0-102.5,39T83,137q0,32 6,67l52,312h78L168,211q-3-18-4-32.5T163,156q0-46 21-72.5T249,57q34,0 60.5,15T358,113q4,5 12.5,15.5t17.5,26t17,35T417,231l48,285h78L457,0H379l20,122Z"/>
      <glyph unicode="v" glyph-name="v" horiz-adv-x="600" d="M263,516L195,62l13-9q62,8 109.5,38T397,165t48,98t16,110q0,34-7,66.5T433,500l75,22q16-30 24.5-67t8.5-78q0-79-27.5-149T439,105.5t-109.5-83T197-8q-39,0-58,19T120,64q0,8 1,18t3,19l52,348H66l11,67H263Z"/>
      <glyph unicode="w" glyph-name="w" horiz-adv-x="600" d="M133-10Q88-10 65.5,17.5T43,92q0,16 1.5,31.5T49,159l59,357h70L122,173q-6-35-6-62q0-30 11.5-43.5T161,54q20,0 35,11t29,29q14,20 21.5,46T258,186l57,330h68L327,173q-3-19-4-33.5T322,112q0-31 10.5-44.5T366,54q28,0 52,28t41.5,73T487,256t10,111q0,38-6,74t-17,60l66,20q12-26 19.5-65t7.5-85q0-91-20-171.5T489,66Q434-10 350-10q-20,0-36.5,5.5t-28,18T268.5,46T265,95h-5q-22-49-50.5-77T133-10Z"/>
      <glyph unicode="x" glyph-name="x" horiz-adv-x="600" d="M106-12Q7-12 7,107q0,9 0.5,24.5T12,174l73,6q-2-17-3-31.5T81,123q0-38 10-55.5T125,50q34,0 60,30t43.5,74t26,93.5T263,337q0,10-0.5,26.5t-2.5,34t-5,34T247,459l-15,7L74,369L43,416l66,49q38,28 72,45.5T246,528q29,0 45-16t23.5-41.5t9-57T325,351l7-1q20,95 61,136.5T494,528q99,0 99-119q0-9-0.5-25T588,342l-73-6q2,17 3,31.5t1,25.5q0,38-10,55.5T475,466q-35,0-60.5-30t-43-74t-26-93.5T337,179q0-11 0.5-27t2.5-33.5t5.5-34T355,57l15-7L518,154l33-46L501,65Q446,18 412.5,3T356-12q-30,0-46.5,15.5T285.5,44t-9,57T275,165l-7,1Q248,71 207,29.5T106-12Z"/>
      <glyph unicode="y" glyph-name="y" horiz-adv-x="600" d="M208-212Q84-212 27-141L81-89q20-26 52-40t80-14q72,0 113.5,36.5T382,15l20,122h-3q-29-62-69.5-98T226,3Q161,3 123,42T85,152q0,14 1.5,29T91,216l50,300h78L170,223q-3-17-4-30.5T165,171q0-46 21.5-72.5T252,72q34,0 60.5,15T361,128q4,5 12.5,15.5t17.5,26t17,35T420,246l45,270h78L457,0q-20-114-86-163T208-212Z"/>
      <glyph unicode="z" glyph-name="z" horiz-adv-x="600" d="M425-10q-21,0-45,4.5T324,10L145,70l-5-4L130,0H51L62,78L420,407q-62,31-99.5,43T255,462q-29,0-46.5-10t-27-27T169,386t-3-45H102v12q0,85 40.5,130T258,528q42,0 85.5-16T445,461l20-12l5,4l10,63h79l-11-76L190,112L445,53l11,11L425,200l57,20l16-40q11-26 18.5-53.5T524,76q0-33-26-59.5T425-10Z"/>
      <glyph unicode="{" glyph-name="braceleft" horiz-adv-x="600" d="M253-138q-36,0-53,18.5T183-74q0,3 0.5,6.5t1.5,12t3,23T194,7q4,27 12.5,47T226,90t23,28.5T272,142q26,26 34,41.5t8,31.5q0,66-106,66H111l10,60h97q64,0 97.5,20.5T349,423q0,26-20,57q-12,20-24,41.5T293,581q0,4 0.5,9t1.5,15.5t3.5,27.5t7.5,46q5,35 30.5,58T402,760H577l-10-61H377q-6-33-9-53t-4.5-31.5t-2-16.5t-0.5-8q0-26 7.5-42T386,515q11-19 21-40.5T417,425q0-45-31-74.5T292,311v-4q45-5 68-27.5T383,222q0-34-19-60t-46-55q-20-21-35-43T261,1L248-77H437l-10-61H253Z"/>
      <glyph unicode="|" glyph-name="bar" horiz-adv-x="600" d="M200-138L350,760h68L268-138H200Z"/>
      <glyph unicode="}" glyph-name="braceright" horiz-adv-x="600" d="M367,760q36,0 53-18.5T437,696q0-3-0.5-7T435,677t-3-22.5T426,615q-4-27-12.5-47.5t-19.5-36t-23-28T348,480q-26-26-34-41.5T306,407q0-66 106-66h97l-10-60H402q-64,0-97.5-20.5T271,199q0-26 20-57q12-20 24-41.5T327,41q0-4-0.5-9T325,16.5t-4-28T314-57q-5-35-30.5-58T218-138H43L53-77H243q6,33 9,53t4.5,31.5t2,16.5t0.5,8q0,26-8,42t-17,33q-11,19-21,40.5T203,197q0,45 31,74.5T328,311v4q-45,5-68,27.5T237,400q0,34 19,60t46,55q10,10 18.5,20.5t16,22.5T350,585t9,36l13,78H183l10,61H367Z"/>
      <glyph unicode="~" glyph-name="asciitilde" horiz-adv-x="600" d="M398,197q-36,0-61,19t-45,51q-21,35-38,57t-41,22q-31,0-56-34.5T107,207L46,225q34,98 76,143t95,45q36,0 61-19t45-51q21-35 38-57t41-22q31,0 56,34.5T508,403l61-18q-34-98-76-143t-95-45Z"/>
      <glyph unicode="&#xa0;" glyph-name="uni00A0" horiz-adv-x="600"/>
      <glyph unicode="&#xa1;" glyph-name="exclamdown" horiz-adv-x="600" d="M183-182L217,21l72,262h31L303,21L269-182H183ZM323,389q-35,0-50,12.5T258,433q0,5 1,12t3,21q5,27 23,43t58,16q35,0 50-12.5T408,481q0-5-1-12t-3-21q-5-27-23-43t-58-16Z"/>
      <glyph unicode="&#xa2;" glyph-name="cent" horiz-adv-x="600" d="M226-8Q151,6 113,63T75,206q0,69 18.5,126t51,98.5t76.5,66T316,526l17,104h62L378,525q63-8 97-42t46-79l-67-26q-13,38-34.5,56.5T364,458L298,57q15,1 31,7t34,20t40,37.5T452,182l56-33q-23-37-47-66T411,34T354.5,2.5T288-11L271-114H209L226-8ZM154,185q0-54 23-84.5T240,60l66,398q-54-8-89.5-50T169,293l-10-60q-3-18-4-28t-1-20Z"/>
      <glyph unicode="&#xa3;" glyph-name="sterling" horiz-adv-x="600" d="M463-12q-25,0-57.5,8T338,12L111,65L101,0H18L30,79q28,13 51,28.5T120.5,145t26,51t9.5,69q0,23-3,41H52l11,68h78q-5,20-7.5,40.5T131,458q0,55 17.5,101t49,79.5T274,691t99,19q47,0 82.5-13T516,663.5t39-46T574,567l-71-28q-12,42-43,72t-92,30q-75,0-114.5-50T214,450q0-21 2-39.5t6-36.5H402l-11-68H234q2-8 2.5-18.5T237,268q0-24-5.5-47.5t-17-43t-30-32.5T140,129l-2-4L464,62l11,11L443,203l62,19l16-38q11-27 18.5-56T547,75q0-38-21-62.5T463-12Z"/>
      <glyph unicode="&#xa4;" glyph-name="currency" horiz-adv-x="600" d="M280,119q-26,0-49.5,5.5T190,140L100,23L40,60l98,126q-32,47-32,116q0,13 1.5,26t3.5,27q18,106 79,165L138,642l62,33l49-115q41,19 96,19q26,0 49.5-5.5T435,558l90,117l60-37L487,512q32-47 32-116q0-13-1.5-26T514,343q-18-106-79-165L487,56L425,23L376,138q-41-19-96-19Zm5,66q54,0 92,33t49,99l10,62q3,18 3,36q0,49-27,73.5T340,513q-54,0-92-33t-49-99l-10-62q-3-18-3-36q0-49 27-73.5T285,185Z"/>
      <glyph unicode="&#xa5;" glyph-name="yen" horiz-adv-x="600" d="M44,68H229l32,188H75l11,68H228L97,698h87L305,324h4L556,698h95L394,324H536l-11-68H339L307,68H494L483,0H33L44,68Z"/>
      <glyph unicode="&#xa6;" glyph-name="brokenbar" horiz-adv-x="600" d="M290,400l60,360h68L358,400H290ZM200-138l60,360h68L268-138H200Z"/>
      <glyph unicode="&#xa7;" glyph-name="section" horiz-adv-x="600" d="M449,19q0-38-15.5-70t-43-55T324-142t-85-13q-48,0-95.5,14.5T67-95l51,52q21-21 52.5-32.5T240-87q60,0 95,27.5T370,11q0,35-23,55t-68,34l-60,18q-40,12-65.5,27.5t-40,33.5t-20,38T88,258q0,56 33.5,96.5T228,414v7q-30,20-44.5,50T169,536q0,38 15.5,70t43,55t66,36T379,710q48,0 95.5-14.5T551,650l-51-52q-21,21-52.5,32.5T378,642q-60,0-95-27.5T248,544q0-35 23-55t68-34l60-18q40-12 65.5-27.5t40-33.5t20-38t5.5-41q0-56-33.5-96.5T390,141v-7q30-20 44.5-50T449,19Zm3,261q0,34-22.5,57T347,377l-60,17q-7,2-13,4t-12,4q-45-20-70.5-53T166,274q0-34 22.5-57T271,177l60-17q7-2 13-4t12-4q45,20 70.5,53T452,280Z"/>
      <glyph unicode="&#xa8;" glyph-name="dieresis" horiz-adv-x="600" d="M226,619q-29,0-40.5,11T174,655q0,5 1,11.5t3,13.5q5,20 17,31.5T237,723q29,0 40.5-11T289,687q0-5-1-11.5T285,662q-5-20-17-31.5T226,619Zm186,0q-29,0-40.5,11T360,655q0,5 1,11.5t3,13.5q5,20 17,31.5T423,723q29,0 40.5-11T475,687q0-5-1-11.5T471,662q-5-20-17-31.5T412,619Z"/>
      <glyph unicode="&#xa9;" glyph-name="copyright" horiz-adv-x="600" d="M271,18q-57,0-105,19.5t-82.5,56T30,182T11,300q0,84 26,154t71.5,120t109,78T356,680q57,0 104.5-19.5t82-56t54-88.5T616,398q0-84-26-154T518.5,124t-109-78T271,18Zm5,54q52,0 97,17t80,48.5t59,75T545,309q7,41 9,59.5t2,29.5q0,44-11.5,85.5t-36,73T445,607t-94,19q-52,0-97-17t-80-48.5t-59-75T82,389q-8-41-9.5-59.5T71,300q0-44 11.5-85.5t36-73T182,91t94-19Zm14,100q-63,0-95.5,38.5T162,317q0,43 13,81t37,67t57,46t74,17q48,0 77.5-22.5T461,445l-58-24q-6,24-20.5,37.5T336,472q-44,0-66-25.5T241,379l-9-57q-1-8-1.5-14T230,295q0-32 15.5-49.5T294,228q31,0 53.5,15T388,283l45-31q-23-35-58.5-57.5T290,172Z"/>
      <glyph unicode="&#xaa;" glyph-name="ordfeminine" horiz-adv-x="600" d="M379,355l9,57h-8q-13-23-38.5-43T278,349q-54,0-80,24t-26,63q0,117 166,117h74l5,27q2,7 2,13.5t0,11.5q0,27-18.5,40T348,658q-32,0-57.5-15T251,606l-38,35q18,25 53.5,47T355,710q59,0 93-26t34-71q0-7-0.5-16.5T479,577L443,355H379ZM331,506q-42,0-64.5-10T239,463q-2-10-3-16.5t-1-9.5q0-37 56-37q38,0 70,17.5T398,465l7,41H331Z"/>
      <glyph unicode="&#xab;" glyph-name="guillemotleft" horiz-adv-x="600" d="M245,57L70,231l13,78L316,483l15-60L158,265L279,107L245,57Zm229,0L299,231l13,78L545,483l15-60L387,265L508,107L474,57Z"/>
      <glyph unicode="&#xac;" glyph-name="logicalnot" horiz-adv-x="600" d="M427,78l32,194H67l11,66H538L495,78H427Z"/>
      <glyph unicode="&#xad;" glyph-name="uni00AD" horiz-adv-x="600" d="M157,263l14,82H457l-14-82H157Z"/>
      <glyph unicode="&#xae;" glyph-name="registered" horiz-adv-x="600" d="M311,346q-35,0-65.5,11.5T193,390t-34.5,50.5T146,507q0,41 15.5,78t43,64.5t64.5,44T349,710q35,0 65.5-11.5T467,666t34.5-50.5T514,549q0-41-15.5-78t-43-65T391,362t-80-16Zm-2,40q63,0 102,32t50,87q4,18 5,26.5t1,18.5q0,52-27.5,86T351,670q-63,0-102-32t-50-87q-4-18-5-26.5T193,506q0-52 27.5-86T309,386Zm-24,53H246l31,185h84q24,0 37-12.5T411,577q0-23-13-39t-34-23l33-76H353l-27,70H297l-12-70Zm52,99q25,0 30,24q1,4 1,7t0,5q0,19-21,19H311l-9-55h35Z"/>
      <glyph unicode="&#xaf;" glyph-name="macron" horiz-adv-x="600" d="M191,705H468l-11-67H180l11,67Z"/>
      <glyph unicode="&#xb0;" glyph-name="degree" horiz-adv-x="600" d="M331,368q-34,0-63,10.5t-50,30T185.5,457T174,522q0,39 14,73.5t38.5,60t59,40T361,710q34,0 63-10.5t50-30T506.5,621T518,556q0-39-14-73.5t-38.5-60t-59-40T331,368Zm2,63q25,0 46.5,9.5t37,26t24,38.5t8.5,48q0,43-23.5,68.5T359,647q-26,0-47-9.5t-36.5-26t-24-39T243,525q0-43 23.5-68.5T333,431Z"/>
      <glyph unicode="&#xb1;" glyph-name="plusminus" horiz-adv-x="600" d="M245,151l33,200H79l11,66H288l33,200h74L362,417H560l-10-66H352L319,151H245ZM21,0L32,66H505L494,0H21Z"/>
      <glyph unicode="&#xb2;" glyph-name="twosuperior" horiz-adv-x="600" d="M442,329H181l10,59l131,96q20,15 35,26.5T383,533t17.5,23t9.5,28q2,10 2,20q0,22-17.5,34.5T352,651q-33,0-51.5-19T273,591l-52,23q16,37 47.5,63.5T356,704q24,0 46.5-6t39-18.5T468,648t10-44q0-29-12-52t-31-42.5t-41-35T353,445l-94-67H450l-8-49Z"/>
      <glyph unicode="&#xb3;" glyph-name="threesuperior" horiz-adv-x="600" d="M337,545q41,0 55.5,14.5T411,595q1,5 1.5,9.5T413,613q0,18-14,30t-41,12q-26,0-49-12t-40-36l-38,34q21,28 52.5,45.5T360,704q57,0 86-27t29-66q0-38-25-62t-60-31v-2q29-5 47-24t18-54q0-49-38-82T311,323q-54,0-86.5,20T178,392l44,31q11-23 32-37t59-14q34,0 53.5,13T392,429q2,10 2,16q0,23-18.5,37T325,496H283l8,49h46Z"/>
      <glyph unicode="&#xb4;" glyph-name="acute" horiz-adv-x="600" d="M320,585l-47,28L381,779l68-39L320,585Z"/>
      <glyph unicode="&#xb5;" glyph-name="mu" horiz-adv-x="600" d="M23-200L141,516h78L168,208q-3-17-4-30.5T163,156q0-46 21.5-72.5T250,57q34,0 60.5,15T359,113q4,5 12.5,15.5t17.5,26t17,35T418,231l47,285h78L458,0H380l20,122h-4q-11-24-25.5-47.5T336,31.5T290,0T231-12q-36,0-60,17T140,55h-4L126-44L100-200H23Z"/>
      <glyph unicode="&#xb6;" glyph-name="paragraph" horiz-adv-x="600" d="M270,246q-41,0-76,13.5t-60,39T95,361T81,444q0,59 22,106t59,80t84.5,50.5T345,698H576L434-149H364L495,636H405L274-149H204l66,395Z"/>
      <glyph unicode="&#xb7;" glyph-name="periodcentered" horiz-adv-x="600" d="M297,236q-35,0-50,13t-15,32q0,6 1,14.5t3,17.5q5,27 24,43t57,16q35,0 50-13t15-32q0-6-1-14.5T378,295q-5-27-24-43t-57-16Z"/>
      <glyph unicode="&#xb8;" glyph-name="cedilla" horiz-adv-x="600" d="M285-207q-39,0-62.5,12.5T189-166l40,40q8-11 21-19t35-8t36,8.5T335-119q0,11-11,22.5T275-80l-29,4l35,96h50L302-61l2-3q11,2 21,3t16,1q28,0 43.5-15T400-119q0-23-9.5-40t-25-27.5T329-202t-44-5Z"/>
      <glyph unicode="&#xb9;" glyph-name="onesuperior" horiz-adv-x="600" d="M200,329l8,49H314l44,261L253,582l-20,44l132,72h63L374,378h94l-8-49H200Z"/>
      <glyph unicode="&#xba;" glyph-name="ordmasculine" horiz-adv-x="600" d="M320,349q-30,0-55.5,10.5T221,389t-28,45t-10,57q0,48 13.5,88t38,69.5T294,694t78,16q30,0 55.5-10.5T471,670t28-45t10-57q0-48-13.5-88t-38-69.5T398,365t-78-16Zm8,54q45,0 70.5,26T431,497l10,60q2,9 2,14t0,11q0,32-20,53t-59,21q-45,0-70.5-26T261,562l-10-60q-2-9-2-14t0-11q0-32 20-53t59-21Z"/>
      <glyph unicode="&#xbb;" glyph-name="guillemotright" horiz-adv-x="600" d="M46,117L219,275L98,433l34,50L307,309l-13-78L61,57L46,117Zm229,0L448,275L327,433l34,50L536,309l-13-78L290,57l-15,60Z"/>
      <glyph unicode="&#xbc;" glyph-name="onequarter" horiz-adv-x="600" d="M67,413h93l39,229l-95-46L87,642l116,56h67L222,413h83l-9-50H59l8,50ZM584,698h72L447,398H375L584,698ZM185,300h72L48,0H-24L185,300ZM447,64H281l10,59L466,335h86L515,112h46l-8-48H507L496,0H436l11,64Zm8,48l28,171h-3L342,112H455Z"/>
      <glyph unicode="&#xbd;" glyph-name="onehalf" horiz-adv-x="600" d="M67,413h93l39,229l-95-46L87,642l116,56h67L222,413h83l-9-50H59l8,50ZM584,698h72L447,398H375L584,698ZM185,300h72L48,0H-24L185,300ZM297,57l127,91q34,24 49,42t19,41q1,5 1.5,10t0.5,7q0,20-12.5,31T445,290q-25,0-41-14.5T374,234l-51,22q17,35 47.5,60T452,341q54,0 80.5-26.5T559,250q0-44-30-75.5T454,112L365,50H538L530,0H287l10,57Z"/>
      <glyph unicode="&#xbe;" glyph-name="threequarters" horiz-adv-x="600" d="M169,357q-55,0-82.5,21.5T48,428l49,30q8-22 23.5-36.5T169,407q61,0 70,47q1,6 1,10t0,8q0,41-60,41H145l8,47h35q31,0 49.5,11.5T258,600q1,6 1,10t0,8q0,16-13,26t-39,10q-43,0-73-42L96,647q23,26 51,41.5T217,704q50,0 78.5-21T324,627q0-38-25.5-59.5T240,540v-4q27-5 45-22t18-46q0-50-37.5-80.5T169,357ZM584,698h72L447,398H375L584,698ZM185,300h72L48,0H-24L185,300ZM447,64H281l10,59L466,335h86L515,112h46l-8-48H507L496,0H436l11,64Zm8,48l28,171h-3L342,112H455Z"/>
      <glyph unicode="&#xbf;" glyph-name="questiondown" horiz-adv-x="600" d="M238-194q-91,0-141.5,45.5T46-27q0,51 18,90t48.5,67.5t72,46T274,201l17,100h77L342,144q-53-7-90-17.5t-61.5-27T152.5,59T133,1q-2-9-2-18t0-11q0-44 31-69.5T245-123q64,0 100.5,33.5T402-4l71-30q-12-32-32-60.5t-49-51T325-181t-87-13ZM342,389q-35,0-50,13t-15,32q0,6 1,14.5t3,17.5q5,27 24,43t57,16q35,0 50-13t15-32q0-6-1-14.5T423,448q-5-27-24-43t-57-16Z"/>
      <glyph unicode="&#xc0;" glyph-name="Agrave" horiz-adv-x="600" d="M442,0L417,199H171L79,0H-9L321,698H431L528,0H442ZM366,614h-9L202,272H409L366,614ZM304,918l73,31l52-174l-51-20L304,918Z"/>
      <glyph unicode="&#xc1;" glyph-name="Aacute" horiz-adv-x="600" d="M442,0L417,199H171L79,0H-9L321,698H431L528,0H442ZM366,614h-9L202,272H409L366,614Zm28,141l-47,28L455,949l68-39L394,755Z"/>
      <glyph unicode="&#xc2;" glyph-name="Acircumflex" horiz-adv-x="600" d="M442,0L417,199H171L79,0H-9L321,698H431L528,0H442ZM366,614h-9L202,272H409L366,614Zm97,321l87-147l-46-27L408,878L271,761l-39,33L365,935h98Z"/>
      <glyph unicode="&#xc3;" glyph-name="Atilde" horiz-adv-x="600" d="M442,0L417,199H171L79,0H-9L321,698H431L528,0H442ZM366,614h-9L202,272H409L366,614Zm99,168q-25,0-43,9.5T389,810q-17,11-33.5,17T325,833q-16,0-31-7.5T262,804l-28,41q17,20 42,36t57,16q25,0 43-9.5T409,869q17-11 33.5-17t30.5-6q16,0 31,7.5T536,875l28-41q-17-20-42-36t-57-16Z"/>
      <glyph unicode="&#xc4;" glyph-name="Adieresis" horiz-adv-x="600" d="M442,0L417,199H171L79,0H-9L321,698H431L528,0H442ZM366,614h-9L202,272H409L366,614ZM300,789q-29,0-40.5,11T248,825q0,5 1,12.5t3,12.5q5,20 17,31.5T311,893q29,0 40.5-11T363,857q0-5-1-12.5T359,832q-5-20-17-31.5T300,789Zm186,0q-29,0-40.5,11T434,825q0,5 1,12.5t3,12.5q5,20 17,31.5T497,893q29,0 40.5-11T549,857q0-5-1-12.5T545,832q-5-20-17-31.5T486,789Z"/>
      <glyph unicode="&#xc5;" glyph-name="Aring" horiz-adv-x="600" d="M442,0L417,199H171L79,0H-9L321,698H431L528,0H442ZM366,614h-9L202,272H409L366,614Zm21,134q-45,0-73,27.5T286,847q0,27 10.5,50T325,937t41,27t49,10q45,0 73-27.5T516,875q0-27-10.5-50T477,785t-41.5-27T387,748Zm4,47q26,0 43.5,14.5T457,851q2,9 3,18t1,14q0,20-12.5,32T411,927q-26,0-43.5-14.5T345,871q-2-9-3-18t-1-14q0-20 12.5-32T391,795Z"/>
      <glyph unicode="&#xc6;" glyph-name="AE" horiz-adv-x="600" d="M299,201H151L62,0H-23L297,698H627l-11-69H448L408,388H564l-11-69H397L356,69H523L512,0H266l33,201Zm45,437L181,270H311l61,368H344Z"/>
      <glyph unicode="&#xc7;" glyph-name="Ccedilla" horiz-adv-x="600" d="M385,638q-84,0-133.5-63.5T184,403l-16-96q-4-23-6-45t-2-43q0-72 32-115.5T296,60q30,0 53,8.5T391.5,94T429,137t38,61l65-33q-19-39-40.5-70t-48-53.5T384,5.5T310-11L292-61l2-3q11,2 21,3t16,1q28,0 43.5-15T390-119q0-23-9.5-40t-25-27.5T319-202t-44-5q-39,0-62.5,12.5T179-166l40,40q8-11 21-19t35-8t36,8.5T325-119q0,11-11,22.5T265-80l-29,4l23,65Q165-3 121.5,61T78,240q0,40 5.5,90.5t19.5,103t37,102T197.5,624T280,686.5T391,710q48,0 82-14t56.5-36.5T564,609t18-57l-74-24q-5,22-13.5,42T472,605t-35,24t-52,9Z"/>
      <glyph unicode="&#xc8;" glyph-name="Egrave" horiz-adv-x="600" d="M47,0L164,698H592l-12-72H234L194,390H529l-12-72H182L141,72H489L477,0H47ZM309,918l73,31l52-174l-51-20L309,918Z"/>
      <glyph unicode="&#xc9;" glyph-name="Eacute" horiz-adv-x="600" d="M47,0L164,698H592l-12-72H234L194,390H529l-12-72H182L141,72H489L477,0H47ZM399,755l-47,28L460,949l68-39L399,755Z"/>
      <glyph unicode="&#xca;" glyph-name="Ecircumflex" horiz-adv-x="600" d="M47,0L164,698H592l-12-72H234L194,390H529l-12-72H182L141,72H489L477,0H47ZM468,935l87-147l-46-27L413,878L276,761l-39,33L370,935h98Z"/>
      <glyph unicode="&#xcb;" glyph-name="Edieresis" horiz-adv-x="600" d="M47,0L164,698H592l-12-72H234L194,390H529l-12-72H182L141,72H489L477,0H47ZM305,789q-29,0-40.5,11T253,825q0,5 1,12.5t3,12.5q5,20 17,31.5T316,893q29,0 40.5-11T368,857q0-5-1-12.5T364,832q-5-20-17-31.5T305,789Zm186,0q-29,0-40.5,11T439,825q0,5 1,12.5t3,12.5q5,20 17,31.5T502,893q29,0 40.5-11T554,857q0-5-1-12.5T550,832q-5-20-17-31.5T491,789Z"/>
      <glyph unicode="&#xcc;" glyph-name="Igrave" horiz-adv-x="600" d="M41,0L52,66H227l95,566H147l11,66H590l-11-66H404L309,66H484L473,0H41ZM302,918l73,31l52-174l-51-20L302,918Z"/>
      <glyph unicode="&#xcd;" glyph-name="Iacute" horiz-adv-x="600" d="M41,0L52,66H227l95,566H147l11,66H590l-11-66H404L309,66H484L473,0H41ZM392,755l-47,28L453,949l68-39L392,755Z"/>
      <glyph unicode="&#xce;" glyph-name="Icircumflex" horiz-adv-x="600" d="M41,0L52,66H227l95,566H147l11,66H590l-11-66H404L309,66H484L473,0H41ZM461,935l87-147l-46-27L406,878L269,761l-39,33L363,935h98Z"/>
      <glyph unicode="&#xcf;" glyph-name="Idieresis" horiz-adv-x="600" d="M41,0L52,66H227l95,566H147l11,66H590l-11-66H404L309,66H484L473,0H41ZM298,789q-29,0-40.5,11T246,825q0,5 1,12.5t3,12.5q5,20 17,31.5T309,893q29,0 40.5-11T361,857q0-5-1-12.5T357,832q-5-20-17-31.5T298,789Zm186,0q-29,0-40.5,11T432,825q0,5 1,12.5t3,12.5q5,20 17,31.5T495,893q29,0 40.5-11T547,857q0-5-1-12.5T543,832q-5-20-17-31.5T484,789Z"/>
      <glyph unicode="&#xd0;" glyph-name="Eth" horiz-adv-x="600" d="M111,337H31l10,62h81l50,299H343q55,0 96.5-17T509,634t42-71.5T565,473q0-122-22-211T479.5,114.5T379.5,28T248,0H55l56,337ZM255,72q169,0 205,217l16,96q3,18 5,41.5t2,44.5q0,76-38,115.5T333,626H242L204,399H343l-10-62H194L149,72H255Z"/>
      <glyph unicode="&#xd1;" glyph-name="Ntilde" horiz-adv-x="600" d="M223,602h-7L115,0H39L156,698H275L408,96h7L516,698h76L475,0H356L223,602ZM462,782q-25,0-43,9.5T386,810q-17,11-33.5,17T322,833q-16,0-31-7.5T259,804l-28,41q17,20 42,36t57,16q25,0 43-9.5T406,869q17-11 33.5-17t30.5-6q16,0 31,7.5T533,875l28-41q-17-20-42-36t-57-16Z"/>
      <glyph unicode="&#xd2;" glyph-name="Ograve" horiz-adv-x="600" d="M260-12Q157-12 109.5,49T62,225q0,44 5.5,97t19,107T123,533.5t57.5,90t81.5,63T372,710q103,0 150.5-61T570,473q0-44-5.5-97t-19-107T509,164.5t-57.5-90t-82-63T260-12Zm6,72q81,0 130,62t67,170l19,114q4,23 5.5,44t1.5,38q0,72-28.5,111T366,638q-81,0-130-62T169,406L150,292q-4-23-5.5-44T143,210q0-72 28.5-111T266,60Zm29,858l73,31l52-174l-51-20L295,918Z"/>
      <glyph unicode="&#xd3;" glyph-name="Oacute" horiz-adv-x="600" d="M260-12Q157-12 109.5,49T62,225q0,44 5.5,97t19,107T123,533.5t57.5,90t81.5,63T372,710q103,0 150.5-61T570,473q0-44-5.5-97t-19-107T509,164.5t-57.5-90t-82-63T260-12Zm6,72q81,0 130,62t67,170l19,114q4,23 5.5,44t1.5,38q0,72-28.5,111T366,638q-81,0-130-62T169,406L150,292q-4-23-5.5-44T143,210q0-72 28.5-111T266,60ZM385,755l-47,28L446,949l68-39L385,755Z"/>
      <glyph unicode="&#xd4;" glyph-name="Ocircumflex" horiz-adv-x="600" d="M260-12Q157-12 109.5,49T62,225q0,44 5.5,97t19,107T123,533.5t57.5,90t81.5,63T372,710q103,0 150.5-61T570,473q0-44-5.5-97t-19-107T509,164.5t-57.5-90t-82-63T260-12Zm6,72q81,0 130,62t67,170l19,114q4,23 5.5,44t1.5,38q0,72-28.5,111T366,638q-81,0-130-62T169,406L150,292q-4-23-5.5-44T143,210q0-72 28.5-111T266,60ZM454,935l87-147l-46-27L399,878L262,761l-39,33L356,935h98Z"/>
      <glyph unicode="&#xd5;" glyph-name="Otilde" horiz-adv-x="600" d="M260-12Q157-12 109.5,49T62,225q0,44 5.5,97t19,107T123,533.5t57.5,90t81.5,63T372,710q103,0 150.5-61T570,473q0-44-5.5-97t-19-107T509,164.5t-57.5-90t-82-63T260-12Zm6,72q81,0 130,62t67,170l19,114q4,23 5.5,44t1.5,38q0,72-28.5,111T366,638q-81,0-130-62T169,406L150,292q-4-23-5.5-44T143,210q0-72 28.5-111T266,60ZM456,782q-25,0-43,9.5T380,810q-17,11-33.5,17T316,833q-16,0-31-7.5T253,804l-28,41q17,20 42,36t57,16q25,0 43-9.5T400,869q17-11 33.5-17t30.5-6q16,0 31,7.5T527,875l28-41q-17-20-42-36t-57-16Z"/>
      <glyph unicode="&#xd6;" glyph-name="Odieresis" horiz-adv-x="600" d="M260-12Q157-12 109.5,49T62,225q0,44 5.5,97t19,107T123,533.5t57.5,90t81.5,63T372,710q103,0 150.5-61T570,473q0-44-5.5-97t-19-107T509,164.5t-57.5-90t-82-63T260-12Zm6,72q81,0 130,62t67,170l19,114q4,23 5.5,44t1.5,38q0,72-28.5,111T366,638q-81,0-130-62T169,406L150,292q-4-23-5.5-44T143,210q0-72 28.5-111T266,60Zm25,729q-29,0-40.5,11T239,825q0,5 1,12.5t3,12.5q5,20 17,31.5T302,893q29,0 40.5-11T354,857q0-5-1-12.5T350,832q-5-20-17-31.5T291,789Zm186,0q-29,0-40.5,11T425,825q0,5 1,12.5t3,12.5q5,20 17,31.5T488,893q29,0 40.5-11T540,857q0-5-1-12.5T536,832q-5-20-17-31.5T477,789Z"/>
      <glyph unicode="&#xd7;" glyph-name="multiply" horiz-adv-x="600" d="M304,261L112,95L70,145L263,311L128,474l51,43L315,352L507,517l42-50L356,301L491,138L440,95L304,261Z"/>
      <glyph unicode="&#xd8;" glyph-name="Oslash" horiz-adv-x="600" d="M260-12q-46,0-80,12.5T121,37L67-36L10,0L83,96Q62,148 62,225q0,44 5.5,97t19,107T123,533.5t57.5,90t81.5,63T372,710q46,0 80-12.5T511,661l54,73l57-36l-73-96q21-53 21-129q0-44-5.5-97t-19-107T509,164.5t-57.5-90t-82-63T260-12ZM150,292q-4-23-5.5-44T143,210q0-10 0-18.5t2-16.5L463,596q-30,42-97,42q-81,0-130-62T169,406L150,292ZM266,60q81,0 130,62t67,170l19,114q4,23 5.5,44t1.5,38q0,10 0,18.5T487,523L169,102q30-42 97-42Z"/>
      <glyph unicode="&#xd9;" glyph-name="Ugrave" horiz-adv-x="600" d="M236,698L169,298q-5-27-7.5-46.5T157,218t-2.5-25T154,173q0-26 5-47t17.5-35.5T211,68t55-8q49,0 79,14t48,41.5T420.5,183T439,274l71,424h82L524,291q-13-78-29-135T452,61.5T381.5,6T269-12Q162-12 117.5,34T73,166q0,32 5.5,74T91,323l63,375h82Zm61,220l73,31l52-174l-51-20L297,918Z"/>
      <glyph unicode="&#xda;" glyph-name="Uacute" horiz-adv-x="600" d="M236,698L169,298q-5-27-7.5-46.5T157,218t-2.5-25T154,173q0-26 5-47t17.5-35.5T211,68t55-8q49,0 79,14t48,41.5T420.5,183T439,274l71,424h82L524,291q-13-78-29-135T452,61.5T381.5,6T269-12Q162-12 117.5,34T73,166q0,32 5.5,74T91,323l63,375h82Zm151,57l-47,28L448,949l68-39L387,755Z"/>
      <glyph unicode="&#xdb;" glyph-name="Ucircumflex" horiz-adv-x="600" d="M236,698L169,298q-5-27-7.5-46.5T157,218t-2.5-25T154,173q0-26 5-47t17.5-35.5T211,68t55-8q49,0 79,14t48,41.5T420.5,183T439,274l71,424h82L524,291q-13-78-29-135T452,61.5T381.5,6T269-12Q162-12 117.5,34T73,166q0,32 5.5,74T91,323l63,375h82ZM456,935l87-147l-46-27L401,878L264,761l-39,33L358,935h98Z"/>
      <glyph unicode="&#xdc;" glyph-name="Udieresis" horiz-adv-x="600" d="M236,698L169,298q-5-27-7.5-46.5T157,218t-2.5-25T154,173q0-26 5-47t17.5-35.5T211,68t55-8q49,0 79,14t48,41.5T420.5,183T439,274l71,424h82L524,291q-13-78-29-135T452,61.5T381.5,6T269-12Q162-12 117.5,34T73,166q0,32 5.5,74T91,323l63,375h82Zm57,91q-29,0-40.5,11T241,825q0,5 1,12.5t3,12.5q5,20 17,31.5T304,893q29,0 40.5-11T356,857q0-5-1-12.5T352,832q-5-20-17-31.5T293,789Zm186,0q-29,0-40.5,11T427,825q0,5 1,12.5t3,12.5q5,20 17,31.5T490,893q29,0 40.5-11T542,857q0-5-1-12.5T538,832q-5-20-17-31.5T479,789Z"/>
      <glyph unicode="&#xdd;" glyph-name="Yacute" horiz-adv-x="600" d="M216,0l46,272L90,698h88l71-183l59-161h4L427,515L558,698h98L345,279L298,0H216ZM384,755l-47,28L445,949l68-39L384,755Z"/>
      <glyph unicode="&#xde;" glyph-name="Thorn" horiz-adv-x="600" d="M48,0L165,698h82L223,555H389q88,0 129.5-45.5T560,391q0-112-59.5-174.5T331,154H156L130,0H48ZM168,226H339q57,0 88.5,27T467,325l6,36q3,18 3,39q0,42-25.5,62.5T379,483H211L168,226Z"/>
      <glyph unicode="&#xdf;" glyph-name="germandbls" horiz-adv-x="600" d="M64,0L167,623q6,35 18.5,57.5t30,36T254,735t44,5H435l-11-67H252L226,516H568l-13-78L349,209q88-7 136-47T533,46q0-56-19.5-101T457-132.5t-92-50T240-200H170l12,67h65q41,0 75.5,8t61,24.5t42.5,42T447,2q3,24 4,35.5T452,57q0,54-41.5,75T277,153H261l11,67L478,449H215L141,0H64Z"/>
      <glyph unicode="&#xe0;" glyph-name="agrave" horiz-adv-x="600" d="M213-12Q137-12 96.5,38T56,188q0,52 12.5,111.5T109,410t74,84.5T296,528q56,0 93-25.5T443,426h3l15,90h78L465,70h71L524,0H466q-48,0-65.5,25T389,85l6,37h-3q-30-61-71-97.5T213-12Zm27,69q32,0 62.5,13.5T359,114q20,23 34.5,53T414,232l19,114q9,54-24.5,83.5T318,459q-72,0-113.5-45T151,297l-12-72q-2-14-3-24.5T135,180q0-58 26.5-90.5T240,57Zm5,695l74,27l52-174l-51-20L245,752Z"/>
      <glyph unicode="&#xe1;" glyph-name="aacute" horiz-adv-x="600" d="M213-12Q137-12 96.5,38T56,188q0,52 12.5,111.5T109,410t74,84.5T296,528q56,0 93-25.5T443,426h3l15,90h78L465,70h71L524,0H466q-48,0-65.5,25T389,85l6,37h-3q-30-61-71-97.5T213-12Zm27,69q32,0 62.5,13.5T359,114q20,23 34.5,53T414,232l19,114q9,54-24.5,83.5T318,459q-72,0-113.5-45T151,297l-12-72q-2-14-3-24.5T135,180q0-58 26.5-90.5T240,57Zm96,528l-47,28L397,779l68-39L336,585Z"/>
      <glyph unicode="&#xe2;" glyph-name="acircumflex" horiz-adv-x="600" d="M213-12Q137-12 96.5,38T56,188q0,52 12.5,111.5T109,410t74,84.5T296,528q56,0 93-25.5T443,426h3l15,90h78L465,70h71L524,0H466q-48,0-65.5,25T389,85l6,37h-3q-30-61-71-97.5T213-12Zm27,69q32,0 62.5,13.5T359,114q20,23 34.5,53T414,232l19,114q9,54-24.5,83.5T318,459q-72,0-113.5-45T151,297l-12-72q-2-14-3-24.5T135,180q0-58 26.5-90.5T240,57ZM405,765l87-147l-46-27L350,708L213,591l-39,33L307,765h98Z"/>
      <glyph unicode="&#xe3;" glyph-name="atilde" horiz-adv-x="600" d="M213-12Q137-12 96.5,38T56,188q0,52 12.5,111.5T109,410t74,84.5T296,528q56,0 93-25.5T443,426h3l15,90h78L465,70h71L524,0H466q-48,0-65.5,25T389,85l6,37h-3q-30-61-71-97.5T213-12Zm27,69q32,0 62.5,13.5T359,114q20,23 34.5,53T414,232l19,114q9,54-24.5,83.5T318,459q-72,0-113.5-45T151,297l-12-72q-2-14-3-24.5T135,180q0-58 26.5-90.5T240,57ZM407,612q-25,0-43,9.5T331,640q-17,11-33.5,17T267,663q-16,0-31-7.5T204,634l-28,41q17,20 42,36t57,16q25,0 43-9.5T351,699q17-11 33.5-17t30.5-6q16,0 31,7.5T478,705l28-41q-17-20-42-36t-57-16Z"/>
      <glyph unicode="&#xe4;" glyph-name="adieresis" horiz-adv-x="600" d="M213-12Q137-12 96.5,38T56,188q0,52 12.5,111.5T109,410t74,84.5T296,528q56,0 93-25.5T443,426h3l15,90h78L465,70h71L524,0H466q-48,0-65.5,25T389,85l6,37h-3q-30-61-71-97.5T213-12Zm27,69q32,0 62.5,13.5T359,114q20,23 34.5,53T414,232l19,114q9,54-24.5,83.5T318,459q-72,0-113.5-45T151,297l-12-72q-2-14-3-24.5T135,180q0-58 26.5-90.5T240,57Zm2,562q-29,0-40.5,11T190,655q0,5 1,11.5t3,13.5q5,20 17,31.5T253,723q29,0 40.5-11T305,687q0-5-1-11.5T301,662q-5-20-17-31.5T242,619Zm186,0q-29,0-40.5,11T376,655q0,5 1,11.5t3,13.5q5,20 17,31.5T439,723q29,0 40.5-11T491,687q0-5-1-11.5T487,662q-5-20-17-31.5T428,619Z"/>
      <glyph unicode="&#xe5;" glyph-name="aring" horiz-adv-x="600" d="M213-12Q137-12 96.5,38T56,188q0,52 12.5,111.5T109,410t74,84.5T296,528q56,0 93-25.5T443,426h3l15,90h78L465,70h71L524,0H466q-48,0-65.5,25T389,85l6,37h-3q-30-61-71-97.5T213-12Zm27,69q32,0 62.5,13.5T359,114q20,23 34.5,53T414,232l19,114q9,54-24.5,83.5T318,459q-72,0-113.5-45T151,297l-12-72q-2-14-3-24.5T135,180q0-58 26.5-90.5T240,57Zm89,521q-45,0-73,27.5T228,677q0,27 10.5,50T267,767t41,27t49,10q45,0 73-27.5T458,705q0-27-10.5-50T419,615t-41.5-27T329,578Zm4,47q26,0 43.5,14.5T399,681q2,9 3,18t1,14q0,20-12.5,32T353,757q-26,0-43.5-14.5T287,701q-2-9-3-18t-1-14q0-20 12.5-32T333,625Z"/>
      <glyph unicode="&#xe6;" glyph-name="ae" horiz-adv-x="600" d="M121-12Q69-12 34.5,20.5T0,116q0,79 56.5,121T206,284l62,3l10,56q2,14 3,25.5t1,19.5q0,81-74,81q-38,0-64-19.5T95,393L49,428q23,42 64,71t101,29q32,0 54-8.5T304,497t20.5-31.5T331,430h4q23,47 58,72.5T476,528q52,0 86-31t34-89q0-32-12.5-61.5t-43-53.5T459,253.5T331,236l-4-24q-2-14-3-28.5T323,159q0-54 20-81.5T401,50q39,0 62.5,26.5T507,141l54-27q-11-23-26-45.5T499.5,28T453-1T396-12q-55,0-91,34.5T267,122h-6q-15-65-49.5-99.5T121-12Zm17,59q39,0 69,29t38,74l14,84l-54-3q-59-3-92.5-21T71,143q-2-14-2.5-21T68,110q0-30 19-46.5T138,47ZM471,469q-27,0-48.5-13.5t-38-36t-27-51.5T342,307l-3-18q55,2 91.5,12T489,326.5t31.5,36T530,406q0,30-15,46.5T471,469Z"/>
      <glyph unicode="&#xe7;" glyph-name="ccedilla" horiz-adv-x="600" d="M341,528q41,0 71.5-10T465,491.5T500.5,452T521,404l-67-26q-15,48-44.5,65T332,460q-66,0-107.5-43T169,293l-10-60q-3-18-4-28t-1-20q0-66 34.5-97.5T280,56q17,0 34.5,4t38,17T397,115t55,67l56-33Q463,75 413,34.5T292-11L274-61l2-3q11,2 21,3t16,1q28,0 43.5-15T372-119q0-23-9.5-40t-25-27.5T301-202t-44-5q-39,0-62.5,12.5T161-166l40,40q8-11 21-19t35-8t36,8.5T307-119q0,11-11,22.5T247-80l-29,4l24,66q-41,4-72.5,22T117,58T85.5,123.5T75,206q0,74 21,133.5T153,441t84.5,64.5T341,528Z"/>
      <glyph unicode="&#xe8;" glyph-name="egrave" horiz-adv-x="600" d="M277-12q-98,0-151,54.5T73,209q0,70 21,128.5t58.5,101t90,66T357,528q38,0 70-9t55.5-26.5T519,449t13-60q0-27-12.5-56t-52-54t-114-42T156,217q-1-8-1-14.5t0-8.5q0-27 5-52t19-44.5t39-31T284,55q28,0 50.5,6.5t43,20t40,35T459,169l55-34Q470,63 414.5,25.5T277-12Zm73,475q-78,0-127-47T163,281l-1-10q94,3 151.5,14.5t88,27.5T442,348t10,38q0,16-5.5,30T429,440.5T397.5,457T350,463ZM283,752l74,27l52-174l-51-20L283,752Z"/>
      <glyph unicode="&#xe9;" glyph-name="eacute" horiz-adv-x="600" d="M277-12q-98,0-151,54.5T73,209q0,70 21,128.5t58.5,101t90,66T357,528q38,0 70-9t55.5-26.5T519,449t13-60q0-27-12.5-56t-52-54t-114-42T156,217q-1-8-1-14.5t0-8.5q0-27 5-52t19-44.5t39-31T284,55q28,0 50.5,6.5t43,20t40,35T459,169l55-34Q470,63 414.5,25.5T277-12Zm73,475q-78,0-127-47T163,281l-1-10q94,3 151.5,14.5t88,27.5T442,348t10,38q0,16-5.5,30T429,440.5T397.5,457T350,463Zm24,122l-47,28L435,779l68-39L374,585Z"/>
      <glyph unicode="&#xea;" glyph-name="ecircumflex" horiz-adv-x="600" d="M277-12q-98,0-151,54.5T73,209q0,70 21,128.5t58.5,101t90,66T357,528q38,0 70-9t55.5-26.5T519,449t13-60q0-27-12.5-56t-52-54t-114-42T156,217q-1-8-1-14.5t0-8.5q0-27 5-52t19-44.5t39-31T284,55q28,0 50.5,6.5t43,20t40,35T459,169l55-34Q470,63 414.5,25.5T277-12Zm73,475q-78,0-127-47T163,281l-1-10q94,3 151.5,14.5t88,27.5T442,348t10,38q0,16-5.5,30T429,440.5T397.5,457T350,463Zm93,302l87-147l-46-27L388,708L251,591l-39,33L345,765h98Z"/>
      <glyph unicode="&#xeb;" glyph-name="edieresis" horiz-adv-x="600" d="M277-12q-98,0-151,54.5T73,209q0,70 21,128.5t58.5,101t90,66T357,528q38,0 70-9t55.5-26.5T519,449t13-60q0-27-12.5-56t-52-54t-114-42T156,217q-1-8-1-14.5t0-8.5q0-27 5-52t19-44.5t39-31T284,55q28,0 50.5,6.5t43,20t40,35T459,169l55-34Q470,63 414.5,25.5T277-12Zm73,475q-78,0-127-47T163,281l-1-10q94,3 151.5,14.5t88,27.5T442,348t10,38q0,16-5.5,30T429,440.5T397.5,457T350,463ZM280,619q-29,0-40.5,11T228,655q0,5 1,11.5t3,13.5q5,20 17,31.5T291,723q29,0 40.5-11T343,687q0-5-1-11.5T339,662q-5-20-17-31.5T280,619Zm186,0q-29,0-40.5,11T414,655q0,5 1,11.5t3,13.5q5,20 17,31.5T477,723q29,0 40.5-11T529,687q0-5-1-11.5T525,662q-5-20-17-31.5T466,619Z"/>
      <glyph unicode="&#xec;" glyph-name="igrave" horiz-adv-x="600" d="M272-12q-38,0-57.5,19.5T195,57q0,10 1.5,20.5T200,97l68,352H82l11,67H359L272,66l23-9L492,227l47-44L448,99q-35-33-60.5-54T342,11T305.5-7T272-12ZM245,752l74,27l52-174l-51-20L245,752Z"/>
      <glyph unicode="&#xed;" glyph-name="iacute" horiz-adv-x="600" d="M272-12q-38,0-57.5,19.5T195,57q0,10 1.5,20.5T200,97l68,352H82l11,67H359L272,66l23-9L492,227l47-44L448,99q-35-33-60.5-54T342,11T305.5-7T272-12Zm64,597l-47,28L397,779l68-39L336,585Z"/>
      <glyph unicode="&#xee;" glyph-name="icircumflex" horiz-adv-x="600" d="M272-12q-38,0-57.5,19.5T195,57q0,10 1.5,20.5T200,97l68,352H82l11,67H359L272,66l23-9L492,227l47-44L448,99q-35-33-60.5-54T342,11T305.5-7T272-12ZM405,765l87-147l-46-27L350,708L213,591l-39,33L307,765h98Z"/>
      <glyph unicode="&#xef;" glyph-name="idieresis" horiz-adv-x="600" d="M272-12q-38,0-57.5,19.5T195,57q0,10 1.5,20.5T200,97l68,352H82l11,67H359L272,66l23-9L492,227l47-44L448,99q-35-33-60.5-54T342,11T305.5-7T272-12ZM242,619q-29,0-40.5,11T190,655q0,5 1,11.5t3,13.5q5,20 17,31.5T253,723q29,0 40.5-11T305,687q0-5-1-11.5T301,662q-5-20-17-31.5T242,619Zm186,0q-29,0-40.5,11T376,655q0,5 1,11.5t3,13.5q5,20 17,31.5T439,723q29,0 40.5-11T491,687q0-5-1-11.5T487,662q-5-20-17-31.5T428,619Z"/>
      <glyph unicode="&#xf0;" glyph-name="eth" horiz-adv-x="600" d="M433,645q21-26 40-58.5t34-71T530.5,432t8.5-97q0-79-18.5-143T466,82.5t-89-70T256-12q-44,0-80.5,15t-62,42.5T74,112T60,198q0,64 19,120t53.5,97T214,480t103,24q50,0 89.5-25.5T462,413l5,2q-9,47-32.5,96T373,607L269,542l-31,46l96,61q-26,26-57.5,48.5T208,740H333q14-10 30-23t33-30l104,66l31-46l-98-62ZM269,56q68,0 115,39t60,116l9,54q3,18 4,30.5t1,20.5q0,61-35,90.5T329,436q-67,0-114.5-38.5T154,281l-9-54q-3-18-4-30.5T140,176q0-61 35-90.5T269,56Z"/>
      <glyph unicode="&#xf1;" glyph-name="ntilde" horiz-adv-x="600" d="M59,0l86,516h78L203,394h4q29,62 69,98t103,36q65,0 102.5-39T519,379q0-15-1.5-32.5T513,312L461,0H383l51,305q3,18 4,32.5t1,22.5q0,46-21,72.5T353,459q-34,0-60.5-15T244,403q-4-5-12.5-15.5t-17.5-26t-17-35T185,285L137,0H59ZM428,612q-25,0-43,9.5T352,640q-17,11-33.5,17T288,663q-16,0-31-7.5T225,634l-28,41q17,20 42,36t57,16q25,0 43-9.5T372,699q17-11 33.5-17t30.5-6q16,0 31,7.5T499,705l28-41q-17-20-42-36t-57-16Z"/>
      <glyph unicode="&#xf2;" glyph-name="ograve" horiz-adv-x="600" d="M265-12q-50,0-87.5,16T115,48.5t-38,69T64,206q0,74 21,133.5T142.5,441T228,505.5T334,528q50,0 88-16t63.5-44.5t38-69T536,310q0-74-21-133.5T457.5,75t-86-64.5T265-12Zm4,68q73,0 116.5,44.5T442,222l10,60q3,18 4,30t1,21q0,66-34,96.5T331,460q-73,0-116.5-44.5T158,294l-10-60q-3-18-4-30t-1-21q0-66 34-96.5T269,56Zm3,696l74,27l52-174l-51-20L272,752Z"/>
      <glyph unicode="&#xf3;" glyph-name="oacute" horiz-adv-x="600" d="M265-12q-50,0-87.5,16T115,48.5t-38,69T64,206q0,74 21,133.5T142.5,441T228,505.5T334,528q50,0 88-16t63.5-44.5t38-69T536,310q0-74-21-133.5T457.5,75t-86-64.5T265-12Zm4,68q73,0 116.5,44.5T442,222l10,60q3,18 4,30t1,21q0,66-34,96.5T331,460q-73,0-116.5-44.5T158,294l-10-60q-3-18-4-30t-1-21q0-66 34-96.5T269,56Zm94,529l-47,28L424,779l68-39L363,585Z"/>
      <glyph unicode="&#xf4;" glyph-name="ocircumflex" horiz-adv-x="600" d="M265-12q-50,0-87.5,16T115,48.5t-38,69T64,206q0,74 21,133.5T142.5,441T228,505.5T334,528q50,0 88-16t63.5-44.5t38-69T536,310q0-74-21-133.5T457.5,75t-86-64.5T265-12Zm4,68q73,0 116.5,44.5T442,222l10,60q3,18 4,30t1,21q0,66-34,96.5T331,460q-73,0-116.5-44.5T158,294l-10-60q-3-18-4-30t-1-21q0-66 34-96.5T269,56ZM432,765l87-147l-46-27L377,708L240,591l-39,33L334,765h98Z"/>
      <glyph unicode="&#xf5;" glyph-name="otilde" horiz-adv-x="600" d="M265-12q-50,0-87.5,16T115,48.5t-38,69T64,206q0,74 21,133.5T142.5,441T228,505.5T334,528q50,0 88-16t63.5-44.5t38-69T536,310q0-74-21-133.5T457.5,75t-86-64.5T265-12Zm4,68q73,0 116.5,44.5T442,222l10,60q3,18 4,30t1,21q0,66-34,96.5T331,460q-73,0-116.5-44.5T158,294l-10-60q-3-18-4-30t-1-21q0-66 34-96.5T269,56ZM434,612q-25,0-43,9.5T358,640q-17,11-33.5,17T294,663q-16,0-31-7.5T231,634l-28,41q17,20 42,36t57,16q25,0 43-9.5T378,699q17-11 33.5-17t30.5-6q16,0 31,7.5T505,705l28-41q-17-20-42-36t-57-16Z"/>
      <glyph unicode="&#xf6;" glyph-name="odieresis" horiz-adv-x="600" d="M265-12q-50,0-87.5,16T115,48.5t-38,69T64,206q0,74 21,133.5T142.5,441T228,505.5T334,528q50,0 88-16t63.5-44.5t38-69T536,310q0-74-21-133.5T457.5,75t-86-64.5T265-12Zm4,68q73,0 116.5,44.5T442,222l10,60q3,18 4,30t1,21q0,66-34,96.5T331,460q-73,0-116.5-44.5T158,294l-10-60q-3-18-4-30t-1-21q0-66 34-96.5T269,56Zm0,563q-29,0-40.5,11T217,655q0,5 1,11.5t3,13.5q5,20 17,31.5T280,723q29,0 40.5-11T332,687q0-5-1-11.5T328,662q-5-20-17-31.5T269,619Zm186,0q-29,0-40.5,11T403,655q0,5 1,11.5t3,13.5q5,20 17,31.5T466,723q29,0 40.5-11T518,687q0-5-1-11.5T514,662q-5-20-17-31.5T455,619Z"/>
      <glyph unicode="&#xf7;" glyph-name="divide" horiz-adv-x="600" d="M67,272l11,66H549l-11-66H67ZM269,52q-32,0-44.5,11.5T212,92q0,8 1,15t2,12q4,23 19,36.5T282,169q32,0 44.5-11.5T339,129q0-8-1-15t-2-12q-4-23-19-36.5T269,52Zm65,389q-32,0-44.5,11.5T277,481q0,8 1,15t2,12q4,23 19,36.5T347,558q32,0 44.5-11.5T404,518q0-8-1-15t-2-12q-4-23-19-36.5T334,441Z"/>
      <glyph unicode="&#xf8;" glyph-name="oslash" horiz-adv-x="600" d="M8,0L91,85q-13,25-20,55.5T64,206q0,74 21,133.5T142.5,441t86,64.5T335,528q46,0 81-13.5T477,476l72,74l43-34l-83-85q13-25 20-55.5t7-65.5q0-74-21-133.5T457.5,75t-86-64.5T265-12q-46,0-81,13.5T123,40L51-34L8,0ZM331,460q-73,0-116.5-44.5T158,294l-10-60q-3-18-4-30t-1-21q0-12 1-22.5t4-20.5L426,426q-33,34-95,34ZM269,56q73,0 116.5,44.5T442,222l10,60q3,18 4,30t1,21q0,12-1,22.5T452,376L174,90q33-34 95-34Z"/>
      <glyph unicode="&#xf9;" glyph-name="ugrave" horiz-adv-x="600" d="M399,122h-4q-29-62-69-98T223-12q-65,0-102.5,39T83,137q0,32 6,67l52,312h78L168,211q-3-18-4-32.5T163,156q0-46 21-72.5T249,57q34,0 60.5,15T358,113q4,5 12.5,15.5t17.5,26t17,35T417,231l48,285h78L457,0H379l20,122ZM269,752l74,27l52-174l-51-20L269,752Z"/>
      <glyph unicode="&#xfa;" glyph-name="uacute" horiz-adv-x="600" d="M399,122h-4q-29-62-69-98T223-12q-65,0-102.5,39T83,137q0,32 6,67l52,312h78L168,211q-3-18-4-32.5T163,156q0-46 21-72.5T249,57q34,0 60.5,15T358,113q4,5 12.5,15.5t17.5,26t17,35T417,231l48,285h78L457,0H379l20,122ZM360,585l-47,28L421,779l68-39L360,585Z"/>
      <glyph unicode="&#xfb;" glyph-name="ucircumflex" horiz-adv-x="600" d="M399,122h-4q-29-62-69-98T223-12q-65,0-102.5,39T83,137q0,32 6,67l52,312h78L168,211q-3-18-4-32.5T163,156q0-46 21-72.5T249,57q34,0 60.5,15T358,113q4,5 12.5,15.5t17.5,26t17,35T417,231l48,285h78L457,0H379l20,122Zm30,643l87-147l-46-27L374,708L237,591l-39,33L331,765h98Z"/>
      <glyph unicode="&#xfc;" glyph-name="udieresis" horiz-adv-x="600" d="M399,122h-4q-29-62-69-98T223-12q-65,0-102.5,39T83,137q0,32 6,67l52,312h78L168,211q-3-18-4-32.5T163,156q0-46 21-72.5T249,57q34,0 60.5,15T358,113q4,5 12.5,15.5t17.5,26t17,35T417,231l48,285h78L457,0H379l20,122ZM266,619q-29,0-40.5,11T214,655q0,5 1,11.5t3,13.5q5,20 17,31.5T277,723q29,0 40.5-11T329,687q0-5-1-11.5T325,662q-5-20-17-31.5T266,619Zm186,0q-29,0-40.5,11T400,655q0,5 1,11.5t3,13.5q5,20 17,31.5T463,723q29,0 40.5-11T515,687q0-5-1-11.5T511,662q-5-20-17-31.5T452,619Z"/>
      <glyph unicode="&#xfd;" glyph-name="yacute" horiz-adv-x="600" d="M208-212Q84-212 27-141L81-89q20-26 52-40t80-14q72,0 113.5,36.5T382,15l20,122h-3q-29-62-69.5-98T226,3Q161,3 123,42T85,152q0,14 1.5,29T91,216l50,300h78L170,223q-3-17-4-30.5T165,171q0-46 21.5-72.5T252,72q34,0 60.5,15T361,128q4,5 12.5,15.5t17.5,26t17,35T420,246l45,270h78L457,0q-20-114-86-163T208-212ZM365,585l-47,28L426,779l68-39L365,585Z"/>
      <glyph unicode="&#xfe;" glyph-name="thorn" horiz-adv-x="600" d="M177,740h78L197,394h3q30,61 72.5,97.5T383,528q78,0 119.5-50T544,328q0-52-12.5-111.5T490.5,106T415,21.5T300-12q-57,0-95.5,25.5T149,90h-3L97-200H19L177,740ZM277,57q75,0 117.5,45T449,219l12,72q2,14 3,24.5t1,20.5q0,58-27.5,90.5T356,459q-32,0-63-13.5T235,402q-20-22-35.5-52T178,284L159,170q-9-54 25.5-83.5T277,57Z"/>
      <glyph unicode="&#xff;" glyph-name="ydieresis" horiz-adv-x="600" d="M208-212Q84-212 27-141L81-89q20-26 52-40t80-14q72,0 113.5,36.5T382,15l20,122h-3q-29-62-69.5-98T226,3Q161,3 123,42T85,152q0,14 1.5,29T91,216l50,300h78L170,223q-3-17-4-30.5T165,171q0-46 21.5-72.5T252,72q34,0 60.5,15T361,128q4,5 12.5,15.5t17.5,26t17,35T420,246l45,270h78L457,0q-20-114-86-163T208-212Zm63,831q-29,0-40.5,11T219,655q0,5 1,11.5t3,13.5q5,20 17,31.5T282,723q29,0 40.5-11T334,687q0-5-1-11.5T330,662q-5-20-17-31.5T271,619Zm186,0q-29,0-40.5,11T405,655q0,5 1,11.5t3,13.5q5,20 17,31.5T468,723q29,0 40.5-11T520,687q0-5-1-11.5T516,662q-5-20-17-31.5T457,619Z"/>
      <glyph unicode="&#x2013;" glyph-name="endash" horiz-adv-x="600" d="M63,268l12,72H550l-12-72H63Z"/>
      <glyph unicode="&#x2014;" glyph-name="emdash" horiz-adv-x="600" d="M4,268l12,72H610l-12-72H4Z"/>
      <glyph unicode="&#x2018;" glyph-name="quoteleft" horiz-adv-x="600" d="M391,740h66L359,464H232L391,740Z"/>
      <glyph unicode="&#x2019;" glyph-name="quoteright" horiz-adv-x="600" d="M358,740H485L326,464H260l98,276Z"/>
      <glyph unicode="&#x201a;" glyph-name="quotesinglbase" horiz-adv-x="600" d="M237,135H364L205-141H139l98,276Z"/>
      <glyph unicode="&#x201c;" glyph-name="quotedblleft" horiz-adv-x="600" d="M278,740h66L246,464H119L278,740Zm239,0h66L485,464H358L517,740Z"/>
      <glyph unicode="&#x201d;" glyph-name="quotedblright" horiz-adv-x="600" d="M245,740H372L213,464H147l98,276Zm239,0H611L452,464H386l98,276Z"/>
      <glyph unicode="&#x201e;" glyph-name="quotedblbase" horiz-adv-x="600" d="M143,135H270L111-141H45l98,276Zm239,0H509L350-141H284l98,276Z"/>
      <glyph unicode="&#x2022;" glyph-name="bullet" horiz-adv-x="600" d="M288,187q-57,0-80.5,23.5T184,270q0,5 1,14t5,32q8,45 39.5,75.5T327,422q57,0 80.5-23.5T431,339q0-5-1-14t-5-32q-8-45-39.5-75.5T288,187Z"/>
      <glyph unicode="&#x2039;" glyph-name="guilsinglleft" horiz-adv-x="600" d="M341,57L166,231l13,78L412,483l15-60L254,265L375,107L341,57Z"/>
      <glyph unicode="&#x203a;" glyph-name="guilsinglright" horiz-adv-x="600" d="M178,117L351,275L230,433l34,50L439,309l-13-78L193,57l-15,60Z"/>
    </font>
</defs>
</svg>
