<?xml version="1.0" standalone="no"?>
<!DOCTYPE svg PUBLIC "-//W3C//DTD SVG 1.1//EN" "http://www.w3.org/Graphics/SVG/1.1/DTD/svg11.dtd">
<svg xmlns="http://www.w3.org/2000/svg">
  <defs>
    <font id="IBMPlexSans" horiz-adv-x="554">
      <font-face font-family="IBM Plex Sans" units-per-em="1000" panose-1="2 11 5 3 5 2 3 0 2 3" ascent="1025" descent="-275" alphabetic="0"/>
      <glyph unicode=" " glyph-name="gid261" horiz-adv-x="236"/>
      <glyph unicode="!" glyph-name="gid88" horiz-adv-x="320" d="M193,220H130L83,504V698H239V504L193,220ZM160-12q-47,0-68,22T71,64V88q0,32 21,54t68,22t68-22t21-54V64q0-32-21-54T160-12Z"/>
      <glyph unicode="&quot;" glyph-name="gid76" horiz-adv-x="493" d="M200,414H68V740H200V414Zm225,0H293V740H425V414Z"/>
      <glyph unicode="#" glyph-name="gid115" horiz-adv-x="632" d="M336,0l30,173H206L176,0H82l30,173H11v90H128l29,172H56v90H173l30,173h93L266,525H426l30,173h94L520,525H621V435H504L475,263H576V173H459L429,0H336ZM221,263H381l30,172H251L221,263Z"/>
      <glyph unicode="$" glyph-name="gid133" horiz-adv-x="601" d="M364-82H250V53l13,20V625l-13,20V780H364V645l-12-20V73l12-20V-82ZM290,8Q228,8 178.5,23T93,62.5T32,115l90,82q20-20 46-38t60-29t76-11q45,0 70.5,13.5t36,33.5T421,206q0,15-6,30.5t-23,28T342,284l-66,14q-83,18-132,45.5T73.5,409T52,496q0,53 25.5,97T160,663.5T311,690q86,0 144-27t92-67l-91-82q-19,21-57.5,43.5T301,580q-64,0-87.5-24.5T190,500q0-19 8-33t25.5-23.5T269,427l79-18q71-16 118-41t70-62t23-89T531.5,117T445,38.5T290,8Z"/>
      <glyph unicode="%" glyph-name="gid101" horiz-adv-x="974" d="M311,0H179L663,698H795L311,0ZM230,314q-58,0-98,22.5T71,403T50,512T71,621t61,66.5T230,710t98-22.5T389,621t21-109T389,403t-61-66.5T230,314Zm0,86q17,0 28.5,9T276,437t6,49v52q0,30-6,49t-17.5,28T230,624t-28.5-9T184,587t-6-49V486q0-30 6-49t17.5-28t28.5-9ZM744-12q-58,0-98,22.5T585,77T564,186t21,109t61,66.5T744,384t98-22.5T903,295t21-109T903,77T842,10.5T744-12Zm0,86q17,0 28.5,9T790,111t6,49v52q0,30-6,49t-17.5,28T744,298t-28.5-9T698,261t-6-49V160q0-30 6-49t17.5-28T744,74Z"/>
      <glyph unicode="&amp;" glyph-name="gid64" horiz-adv-x="721" d="M539,0L488,56h-2q-21-17-49-33T372.5-2.5T287-12q-77,0-130,25.5T77,83T50,183q0,48 18,82.5T118,327t72,50q-29,33-53.5,75.5T112,543q0,46 25.5,84T210,687.5T321,710q57,0 102.5-18.5t72-54.5T522,550q0-44-19-77.5t-50.5-60T383,363L491,246q13,32 20,68t9,71H687V262H624q-8-31-19.5-59T579,151L718,0H539ZM317,597q-27,0-45.5-15T253,540v-4q0-13 5.5-26T277,481t33-39q24,14 39.5,28T373,500t8,36v4q0,18-8.5,30.5t-23,19.5T317,597Zm-8-486q20,0 38,3.5t34,9.5t29,15L263,298q-22-13-36-27t-20-29t-6-33V199q0-38 27-63t81-25Z"/>
      <glyph unicode="&apos;" glyph-name="gid75" horiz-adv-x="268" d="M200,414H68V740H200V414Z"/>
      <glyph unicode="(" glyph-name="gid91" horiz-adv-x="338" d="M37,312q0,97 23,182.5t62.5,154T212,760H351q-53-50-92.5-114T198,506.5T177,346V276q0-88 21.5-164T259-26.5T351-138H211Q163-96 123.5-27.5T60.5,128T37,312Z"/>
      <glyph unicode=")" glyph-name="gid92" horiz-adv-x="338" d="M301,312q0-96-23-182.5t-62.5-155T126-138H-13Q41-88 80-24t60,139.5T161,276v70q0,88-21.5,164T79,649T-13,760H127q49-42 88-110t62.5-154T301,312Z"/>
      <glyph unicode="*" glyph-name="gid114" horiz-adv-x="601" d="M236,747H365l-9-187l2-2l172,72l39-114L389,462l-1-3L512,308L408,239L301,400h-2L192,238L88,308L214,459l-1,3L32,516L71,630l172-72l2,2l-9,187Z"/>
      <glyph unicode="+" glyph-name="gid118" horiz-adv-x="600" d="M364,63H236V247H67V365H236V549H364V365H533V247H364V63Z"/>
      <glyph unicode="," glyph-name="gid73" horiz-adv-x="310" d="M155,169q45,0 66.5-22.5T243,89V69q0-61-29.5-120T136-147H36q35,33 60,65.5T134-9Q100-3 83.5,18.5T67,69V89q0,35 21.5,57.5T155,169Z"/>
      <glyph unicode="-" glyph-name="gid66" horiz-adv-x="403" d="M350,233H53V377H350V233Z"/>
      <glyph unicode="." glyph-name="gid70" horiz-adv-x="310" d="M155-11q-45,0-66.5,23T67,69V89q0,35 21.5,57.5T155,169t66.5-22.5T243,89V69q0-34-21.5-57T155-11Z"/>
      <glyph unicode="/" glyph-name="gid97" horiz-adv-x="460" d="M125-151H3L301,740H423L125-151Z"/>
      <glyph unicode="0" glyph-name="gid54" horiz-adv-x="600" d="M300-12q-91,0-151,43T60,154.5T31,349T60,544t89,123.5T300,710q92,0 151.5-42.5T540,544t29-195T540,154.5T451.5,31T300-12Zm0,127q40,0 63,20t33,57.5T406,283V415q0,53-10,90.5T363,563t-63,20t-63-20t-33-57.5T194,415V283q0-53 10-90.5T237,135t63-20Z"/>
      <glyph unicode="1" glyph-name="gid55" horiz-adv-x="600" d="M580,0H94V121H282V589h-9L131,403L35,478L202,698H432V121H580V0Z"/>
      <glyph unicode="2" glyph-name="gid56" horiz-adv-x="600" d="M551,126V0H57V137L272,321q59,50 82,85.5T377,486v14q0,40-29,60t-63,20q-49,0-75-29t-37-69L42,532q16,49 48.5,89T175,685.5T299,710q76,0 129-27.5T509,608t28-108q0-60-25.5-106.5t-68-86T351,228L221,126H551Z"/>
      <glyph unicode="3" glyph-name="gid57" horiz-adv-x="600" d="M197,422h65q56,0 81.5,21.5T369,497v7q0,38-25,61t-69,23q-42,0-79-21.5T133,505L39,593q27,35 60,61t77,41t104,15q75,0 130.5-23t86-64.5T527,525q0-67-39.5-107T394,368v-6q42-7 74.5-28.5T520,277t19-83q0-62-33.5-108.5t-93-72T274-12Q203-12 154,6.5T72,56T16,122l111,86q23-43 57-70.5T274,110q51,0 79.5,26T382,205v6q0,43-32.5,64.5T260,297H197V422Z"/>
      <glyph unicode="4" glyph-name="gid58" horiz-adv-x="600" d="M480,0H337V134H30V262L302,698H480V250h88V134H480V0ZM327,543L150,250H337V543H327Z"/>
      <glyph unicode="5" glyph-name="gid59" horiz-adv-x="600" d="M522,698V567H205L190,346h8q14,33 32,58t46,39t72,14q60,0 108.5-26.5t77.5-76T563,235q0-71-31-127T441,20T295-12Q228-12 180,6.5T99.5,56T46,122l109,86q23-40 55-69t86-29t81.5,31T405,223v8q0,48-28,76t-77,28q-40,0-67-16.5T192,286L69,303L95,698H522Z"/>
      <glyph unicode="6" glyph-name="gid60" horiz-adv-x="600" d="M304-12q-83,0-141.5,34T73,118.5T42,265q0,74 22,139t58.5,120.5T203,624t89,74H499q-85-61-147-115.5t-100.5-111T199,348l9-3q12,27 31,51t49,39t74,15q58,0 104-26.5T539,348t27-115q0-71-32.5-126.5t-91-87T304-12Zm0,117q33,0 56.5,12.5t36.5,36T410,211v18q0,34-13,57.5t-36.5,36T304,335t-56.5-12.5t-36.5-36T198,229V211q0-34 13-57.5t36.5-36T304,105Z"/>
      <glyph unicode="7" glyph-name="gid61" horiz-adv-x="600" d="M324,0H166L400,576H182V449H55V698H549V568L324,0Z"/>
      <glyph unicode="8" glyph-name="gid62" horiz-adv-x="600" d="M300-12q-82,0-140.5,26.5T70.5,87T40,191q0,67 37.5,109.5T177,360v8q-51,19-83.5,58T61,526q0,80 62,132t177,52q116,0 177.5-52T539,526q0-61-32.5-100T423,368v-8q62-17 99.5-59.5T560,191q0-58-30.5-104T441,14.5T300-12Zm0,115q50,0 76.5,24T403,192v20q0,41-26.5,65T300,301q-49,0-76-24t-27-65V192q0-41 27-65t76-24Zm0,308q47,0 72.5,22.5T398,495v16q0,39-25.5,61.5T300,595t-72.5-22.5T202,511V495q0-39 25.5-61.5T300,411Z"/>
      <glyph unicode="9" glyph-name="gid63" horiz-adv-x="600" d="M558,433q0-73-22-138.5t-58.5-121T397,74T308,0H101q85,61 147,115.5T348.5,227T401,350l-9,3q-12-26-31-50.5T312.5,263T238,248q-57,0-103.5,27T61,350.5T34,465q0,72 32.5,127T158,678.5T296,710q83,0 141.5-34T527,579.5T558,433ZM296,363q33,0 56.5,12.5t36.5,36T402,469v18q0,34-13,57.5t-36.5,36T296,593t-56.5-12.5t-36.5-36T190,487V469q0-34 13-57.5t36.5-36T296,363Z"/>
      <glyph unicode=":" glyph-name="gid72" horiz-adv-x="330" d="M165-11q-45,0-66.5,23T77,69V89q0,35 21.5,57.5T165,169t66.5-22.5T253,89V69q0-34-21.5-57T165-11Zm0,367q-45,0-66.5,23T77,436v20q0,35 21.5,57.5T165,536t66.5-22.5T253,456V436q0-34-21.5-57T165,356Z"/>
      <glyph unicode=";" glyph-name="gid74" horiz-adv-x="330" d="M165,169q45,0 66.5-22.5T253,89V69q0-61-29.5-120T146-147H46q35,33 60,65.5T144-9Q110-3 93.5,18.5T77,69V89q0,35 21.5,57.5T165,169Zm0,187q-45,0-66.5,23T77,436v20q0,35 21.5,57.5T165,536t66.5-22.5T253,456V436q0-34-21.5-57T165,356Z"/>
      <glyph unicode="&lt;" glyph-name="gid124" horiz-adv-x="600" d="M497-2L103,258v87L497,604V455L259,305v-7L497,148V-2Z"/>
      <glyph unicode="=" glyph-name="gid123" horiz-adv-x="600" d="M533,362H67V480H533V362Zm0-232H67V248H533V130Z"/>
      <glyph unicode="&gt;" glyph-name="gid125" horiz-adv-x="600" d="M103-2V148L341,298v7L103,455V604L497,346V259L103-2Z"/>
      <glyph unicode="?" glyph-name="gid90" horiz-adv-x="500" d="M298,233H158V386q79,3 118.5,27T316,492v14q0,38-22.5,58T235,584q-39,0-64.5-24T136,499L14,550q12,40 39,76.5t73,60T240,710q70,0 122.5-26T444,611.5T473,504q0-56-24-98t-64-67.5T298,305V233ZM230-12q-47,0-68,22T141,64V88q0,32 21,54t68,22t68-22t21-54V64q0-32-21-54T230-12Z"/>
      <glyph unicode="@" glyph-name="gid65" horiz-adv-x="903" d="M672-33v-88H462q-126,0-216,52T108.5,76T61,291t49,216.5t139,148T462,709q86,0 156.5-26T740,607.5t78.5-118T846,335q0-79-23-136t-65-87T659,82q-54,0-88,26t-37,68h-5q-10-41-37.5-66.5T414,84q-44,0-79,23.5T280,177T260,291t20,114t55,69.5T414,498q41,0 67.5-22.5T517,420h5v69H633V220q0-25 11.5-37.5T677,170q34,0 55,37t21,113v28q0,86-37.5,147t-103,94T462,622q-70,0-127-23t-97.5-65t-62-99T154,310V272q0-68 21.5-124t62-96.5T335-11T462-33H672ZM455,175q17,0 32.5,9t25,23.5T522,237V353q0,16-9.5,28T488,400t-33,7q-36,0-57.5-23T376,325V257q0-36 21.5-59T455,175Z"/>
      <glyph unicode="A" glyph-name="gid28" horiz-adv-x="685" d="M665,0H507L457,166H224L174,0H20L250,698H438L665,0ZM420,295L377,440L342,560h-5L303,440L260,295H420Z"/>
      <glyph unicode="B" glyph-name="gid29" horiz-adv-x="667" d="M77,0V698H416q86,0 135-49t49-130q0-53-17.5-85.5t-47-47.5T470,369v-6q25,0 52-9t51-28t39-50.5T627,199q0-55-23.5-100t-64-72T447,0H77ZM229,288V128H404q20,0 34.5,7.5T461,157t8,34v34q0,20-8,34t-22.5,21.5T404,288H229Zm0,282V412H380q20,0 34.5,7.5t22,22T444,476v30q0,20-7.5,34.5t-22,22T380,570H229Z"/>
      <glyph unicode="C" glyph-name="gid30" horiz-adv-x="651" d="M359-12q-94,0-163.5,40T88,147T50,344T88,543.5t107.5,124T359,710q96,0 159.5-40T620,546L489,478q-13,44-43.5,70.5T359,575q-67,0-107.5-43.5T211,405V293q0-82 40.5-126T359,123q56,0 89.5,30.5T498,227l124-72Q583,76 519,32T359-12Z"/>
      <glyph unicode="D" glyph-name="gid31" horiz-adv-x="697" d="M77,0V698H340q93,0 162-39T609,542.5T647,349T609,155.5T502,39T340,0H77ZM229,135H340q45,0 78,17t50.5,52.5T486,295V403q0,56-17.5,91T418,546t-78,17H229V135Z"/>
      <glyph unicode="E" glyph-name="gid32" horiz-adv-x="607" d="M552,0H77V698H552V563H229V420H506V286H229V135H552V0Z"/>
      <glyph unicode="F" glyph-name="gid33" horiz-adv-x="585" d="M229,0H77V698H540V563H229V420H494V286H229V0Z"/>
      <glyph unicode="G" glyph-name="gid34" horiz-adv-x="719" d="M520,0V111h-5q-7-52-53.5-87.5T336-12q-80,0-145,41T88,149.5T50,346q0,118 39.5,199t111,123T366,710q93,0 161.5-41T635,548L511,477q-16,41-50,69.5T366,575q-47,0-82-18.5t-54-56T211,405V293q0-58 19-95.5t54-56T366,123q38,0 69,12t49.5,35T503,227v35H373V389H648V0H520Z"/>
      <glyph unicode="H" glyph-name="gid35" horiz-adv-x="724" d="M495,0V286H229V0H77V698H229V420H495V698H647V0H495Z"/>
      <glyph unicode="I" glyph-name="gid36" horiz-adv-x="432" d="M382,0H50V121h90V577H50V698H382V577H292V121h90V0Z"/>
      <glyph unicode="J" glyph-name="gid37" horiz-adv-x="559" d="M122,698H486V202q0-64-27.5-112t-79-74.5T256-11Q153-11 96.5,43T25,185l142,28q8-44 30-67.5T254,122q33,0 56.5,21T334,209V576H122V698Z"/>
      <glyph unicode="K" glyph-name="gid38" horiz-adv-x="696" d="M505,0L320,304L229,194V0H77V698H229V501V366h6l99,135L491,698H663L428,411L684,0H505Z"/>
      <glyph unicode="L" glyph-name="gid39" horiz-adv-x="530" d="M495,0H77V698H229V135H495V0Z"/>
      <glyph unicode="M" glyph-name="gid40" horiz-adv-x="819" d="M77,0V698H238l93-178l78-149h2l77,149l92,178H742V0H599V350V458h-3L545,356L409,109L276,355L223,465h-3V350V0H77Z"/>
      <glyph unicode="N" glyph-name="gid41" horiz-adv-x="724" d="M481,0L290,330L223,470h-3V324V0H77V698H243L434,368l67-140h3V374V698H647V0H481Z"/>
      <glyph unicode="O" glyph-name="gid42" horiz-adv-x="714" d="M357-12q-92,0-161.5,41T88,150.5T50,349q0,119 38,199T195.5,669T357,710q93,0 162-41T626,548t38-199q0-118-38-198.5T519,29T357-12Zm0,135q46,0 78.5,20.5t50,59.5T503,297V401q0,56-17.5,94.5t-50,59T357,575q-45,0-78-20.5t-50.5-59T211,401V297q0-55 17.5-94T279,143.5T357,123Z"/>
      <glyph unicode="P" glyph-name="gid43" horiz-adv-x="656" d="M229,0H77V698H407q65,0 112.5-28T593,591.5T619,475T593,359t-73.5-78.5T407,252H229V0Zm0,566V384H389q23,0 39,8t25,23.5t9,37.5v44q0,23-9,38t-25,23t-39,8H229Z"/>
      <glyph unicode="Q" glyph-name="gid44" horiz-adv-x="714" d="M542-60V-184H448q-81,0-118,38T293-36V-7Q219,7 164,51.5t-84.5,119T50,349q0,119 38,199T195.5,669T357,710q93,0 162-41T626,548t38-199q0-101-28-174.5T557,56T435-4V-60H542ZM357,123q46,0 78.5,20.5t50,59.5T503,297V401q0,56-17.5,94.5t-50,59T357,575q-45,0-78-20.5t-50.5-59T211,401V297q0-55 17.5-94T279,143.5T357,123Z"/>
      <glyph unicode="R" glyph-name="gid45" horiz-adv-x="674" d="M229,256V0H77V698H408q65,0 112-28t73-78t26-117q0-70-31.5-123.5T492,274L629,0H460L338,256H229Zm0,128H389q23,0 39,8t25,23.5t9,37.5v44q0,23-9,38t-25,23t-39,8H229V384Z"/>
      <glyph unicode="S" glyph-name="gid46" horiz-adv-x="624" d="M303-12q-91,0-155.5,32T38,101L138,202q35-40 79.5-60T313,122q56,0 83,23t27,61q0,19-6.5,34.5t-24,26T342,281l-69,9q-73,10-120.5,36.5T82,396.5T59,498q0,63 31.5,110.5t90,74.5T321,710q79,0 139-25.5T563,612L462,510q-25,29-60.5,47.5T312,576q-51,0-76-18t-25-50q0-24 8.5-39t27-23T294,433l69-11q72-11 119-37t70-68t23-102q0-67-31.5-118T451,17T303-12Z"/>
      <glyph unicode="T" glyph-name="gid47" horiz-adv-x="584" d="M557,563H368V0H216V563H27V698H557V563Z"/>
      <glyph unicode="U" glyph-name="gid48" horiz-adv-x="694" d="M73,698H221V270q0-49 12.5-81.5t40.5-49T347,123t72.5,16.5t40.5,49T473,270V698H621V286q0-103-27-169T507,19.5T347-12T187,19.5T100,117T73,286V698Z"/>
      <glyph unicode="V" glyph-name="gid49" horiz-adv-x="650" d="M409,0H239L14,698H168L272,363l55-219h3l53,219L487,698H636L409,0Z"/>
      <glyph unicode="W" glyph-name="gid50" horiz-adv-x="973" d="M361,0H187L29,698H179l66-335l37-194h3l44,194l77,335H572l78-335l43-194h3l37,194l67,335H944L782,0H609L521,378L487,531h-3L449,378L361,0Z"/>
      <glyph unicode="X" glyph-name="gid51" horiz-adv-x="673" d="M16,0L240,361L27,698H204L340,462h3L481,698H645L430,358L657,0H481L330,257h-3L180,0H16Z"/>
      <glyph unicode="Y" glyph-name="gid52" horiz-adv-x="649" d="M401,0H248V273L9,698H179L329,420h2L475,698H640L401,274V0Z"/>
      <glyph unicode="Z" glyph-name="gid53" horiz-adv-x="607" d="M568,134V0H39V135L384,564H56V698H560V563L214,134H568Z"/>
      <glyph unicode="[" glyph-name="gid93" horiz-adv-x="334" d="M284-138H77V760H284V656H214V-34h70V-138Z"/>
      <glyph unicode="\" glyph-name="gid98" horiz-adv-x="460" d="M456-151H334L36,740H158L456-151Z"/>
      <glyph unicode="]" glyph-name="gid94" horiz-adv-x="334" d="M50,760H257V-138H50V-34h70V656H50V760Z"/>
      <glyph unicode="^" glyph-name="gid116" horiz-adv-x="600" d="M559,334L440,277L300,537h-6L154,277L42,334L242,698H362L559,334Z"/>
      <glyph unicode="_" glyph-name="gid69" horiz-adv-x="556" d="M526-190H30V-67H526V-190Z"/>
      <glyph unicode="`" glyph-name="gid234" horiz-adv-x="600" d="M284,579L150,755l123,61l99-194l-88-43Z"/>
      <glyph unicode="a" glyph-name="gid1" horiz-adv-x="569" d="M539,0H457q-27,0-50.5,13.5T369,53.5T355,117v13l32-38H351q-12-51-53-77.5T197-12Q118-12 76,30.5T34,141q0,56 27.5,92t78,54T259,305h83v33q0,38-20,60.5T255,421q-44,0-70-19t-43-43L54,437q32,47 81,73.5T266,537q111,0 167.5-49.5T490,345V115h49V0ZM342,221H270q-43,0-65-15t-22-44V147q0-28 18-42t51-14q25,0 45,7t32.5,22T342,159v62Z"/>
      <glyph unicode="b" glyph-name="gid2" horiz-adv-x="608" d="M69,0V740H217V437h5q11,44 50.5,72T363,537q67,0 111.5-31.5T542,413t23-150T542,112.5t-67.5-93T363-12q-51,0-90.5,28.5T222,88h-5V0H69ZM314,108q42,0 69.5,30T411,217v91q0,50-27.5,79.5T314,417q-28,0-50-9t-34.5-26.5T217,340V185q0-24 12.5-41.5T264,117t50-9Z"/>
      <glyph unicode="c" glyph-name="gid3" horiz-adv-x="517" d="M281-12Q163-12 99.5,62.5T36,263T99.5,463T281,537q80,0 133.5-36T491,400L371,348q-7,30-29,51t-61,21q-45,0-68-29.5T190,311V213q0-49 23-79t68-30q44,0 65.5,24T379,183l115-50Q468,58 413,23T281-12Z"/>
      <glyph unicode="d" glyph-name="gid4" horiz-adv-x="608" d="M391,0V88h-5q-11-43-50.5-71.5T245-12q-66,0-111,31.5t-68,93T43,263T66,413t68,92.5T245,537q51,0 90.5-28T386,437h5V740H539V0H391ZM294,108q28,0 50,9t34.5,26.5T391,185V340q0,24-12.5,41.5T344,408t-50,9q-42,0-69.5-29.5T197,308V217q0-49 27.5-79T294,108Z"/>
      <glyph unicode="e" glyph-name="gid5" horiz-adv-x="562" d="M288-12q-80,0-136.5,33.5T65.5,117T36,263q0,83 28.5,144.5T148,503t134,34q87,0 140.5-37.5T501,401t25-132V225H189v-8q0-52 28.5-82.5T305,104q47,0 75.5,19T434,167l74-92q-35-40-91.5-63.5T288-12Zm-3,440q-30,0-51.5-13.5t-33-37.5T189,320v-8H373v9q0,32-9.5,56t-29,37.5T285,428Z"/>
      <glyph unicode="f" glyph-name="gid6" horiz-adv-x="361" d="M95,0V410H21V525H95v62q0,76 40.5,114.5T252,740h96V625H243V525H348V410H243V0H95Z"/>
      <glyph unicode="g" glyph-name="gid7" horiz-adv-x="552" d="M555-38q0-55-26.5-94T440-191.5T271-212q-91,0-145.5,14.5t-79,42T22-90q0,44 26,69t72,31V21Q83,28 63.5,53.5T44,113q0,41 30.5,63.5T142,206v4q-47,22-70.5,60.5T48,360q0,53 25,93t75,62t125,22q25,0 47.5-2.5T362,527v20q0,41 21,60t58,19h83V516H408v-6q46-22 68-61t22-89q0-52-24.5-91.5t-74.5-61T273,186q-26,0-49.5,3T180,197q-10-7-16.5-17.5T157,155q0-19 14.5-29.5T220,115H372q96,0 139.5-40T555-38ZM416-58q0,23-18.5,35T335-11H155q-10-10-14.5-22.5T136-58q0-28 25-42t85-14h60q60,0 85,14t25,42ZM273,283q44,0 65.5,19T360,355v12q0,35-21.5,53.5T273,439q-43,0-65-18.5T186,367V355q0-34 22-53t65-19Z"/>
      <glyph unicode="h" glyph-name="gid9" horiz-adv-x="596" d="M69,0V740H217V436h6q14,41 49,71t97,30q80,0 122-54.5T533,329V0H385V317q0,50-16,75t-57,25q-24,0-45.5-8.5T231,383t-14-43V0H69Z"/>
      <glyph unicode="i" glyph-name="gid10" horiz-adv-x="286" d="M143,581q-45,0-65.5,21T57,654v22q0,32 20.5,52.5T143,749t65.5-20.5T229,676V654q0-31-20.5-52T143,581ZM69,0V525H217V0H69Z"/>
      <glyph unicode="j" glyph-name="gid11" horiz-adv-x="286" d="M69-85V525H217V-56q0-70-35.5-107T69-200H-9V-85H69Zm74,666q-45,0-65.5,21T57,654v22q0,32 20.5,52.5T143,749t65.5-20.5T229,676V654q0-31-20.5-52T143,581Z"/>
      <glyph unicode="k" glyph-name="gid12" horiz-adv-x="577" d="M69,0V740H217V415V303h6l65,97L393,525H557L382,324L577,0H401L283,222l-66-74V0H69Z"/>
      <glyph unicode="l" glyph-name="gid13" horiz-adv-x="303" d="M283,0H216Q140,0 104.5,37T69,144V740H217V115h66V0Z"/>
      <glyph unicode="m" glyph-name="gid14" horiz-adv-x="894" d="M217,0H69V525H217V436h6q14,42 48.5,71.5T364,537q54,0 92-27t55-79h3q14,44 57,75t103,31q76,0 116.5-54.5T831,329V0H683V317q0,51-17.5,75.5T611,417q-22,0-42-8.5T536.5,383T524,340V0H376V317q0,51-18,75.5T304,417q-21,0-41-8.5T230,383t-13-43V0Z"/>
      <glyph unicode="n" glyph-name="gid15" horiz-adv-x="596" d="M217,0H69V525H217V436h6q14,41 49,71t97,30q80,0 122-54.5T533,329V0H385V317q0,50-16,75t-57,25q-24,0-45.5-8.5T231,383t-14-43V0Z"/>
      <glyph unicode="o" glyph-name="gid16" horiz-adv-x="564" d="M282-12q-77,0-132,33.5T65.5,117T36,263q0,85 29.5,146T150,503.5T282,537t132-33.5T498.5,409T528,263q0-84-29.5-146T414,21.5T282-12Zm0,117q44,0 68,27.5T374,209V316q0,50-24,77t-68,27q-43,0-67.5-27T190,316V209q0-49 24.5-76.5T282,105Z"/>
      <glyph unicode="p" glyph-name="gid17" horiz-adv-x="608" d="M69-200V525H217V437h5q11,44 50.5,72T363,537q67,0 111.5-31.5T542,413t23-150T542,112.5t-67.5-93T363-12q-51,0-90.5,28.5T222,88h-5V-200H69ZM314,108q42,0 69.5,30T411,217v91q0,50-27.5,79.5T314,417q-28,0-50-9t-34.5-26.5T217,340V185q0-24 12.5-41.5T264,117t50-9Z"/>
      <glyph unicode="q" glyph-name="gid18" horiz-adv-x="608" d="M391-200V88h-5q-11-43-50.5-71.5T245-12q-66,0-111,31.5t-68,93T43,263T66,413t68,92.5T245,537q51,0 90.5-28T386,437h5v88H539V-200H391ZM294,108q28,0 50,9t34.5,26.5T391,185V340q0,24-12.5,41.5T344,408t-50,9q-42,0-69.5-29.5T197,308V217q0-49 27.5-79T294,108Z"/>
      <glyph unicode="r" glyph-name="gid19" horiz-adv-x="404" d="M217,0H69V525H217V411h5q6,29 22,55t43.5,42.5T356,525h26V387H345q-43,0-71.5-7.5T231,355t-14-48V0Z"/>
      <glyph unicode="s" glyph-name="gid20" horiz-adv-x="504" d="M247-12q-76,0-128,24.5T26,82l87,88q28-31 62-49t77-18q44,0 61,13.5T330,153q0,20-12.5,30T277,197l-57,7q-59,8-98.5,28t-59,53.5T43,366q0,76 55,123.5T247,537q55,0 93-9.5t66.5-28T461,455l-85-87q-25,25-56.5,39.5T255,422q-37,0-53.5-12T185,378q0-21 11.5-32.5T240,329l59-8q86-11 129.5-50.5T472,163q0-50-28-90T365.5,10.5T247-12Z"/>
      <glyph unicode="t" glyph-name="gid21" horiz-adv-x="383" d="M341,0H253Q177,0 137,39T97,153V410H23V525H60q30,0 41,14.5T112,581v86H245V525H349V410H245V115h96V0Z"/>
      <glyph unicode="u" glyph-name="gid22" horiz-adv-x="596" d="M379,0V88h-5q-13-40-47.5-70T227-12q-80,0-122,54T63,195V525H211V208q0-48 17.5-74T286,108q23,0 44.5,8.5t35,25.5T379,184V525H527V0H379Z"/>
      <glyph unicode="v" glyph-name="gid23" horiz-adv-x="538" d="M357,0H181L9,525H155l65-212l49-190h8l49,190l63,212H529L357,0Z"/>
      <glyph unicode="w" glyph-name="gid24" horiz-adv-x="841" d="M166,0L19,525H162l51-212l36-160h4l42,160l60,212H490l61-212l43-160h4l36,160l51,212H822L677,0H522L458,222L421,358h-3L382,222L318,0H166Z"/>
      <glyph unicode="x" glyph-name="gid25" horiz-adv-x="560" d="M18,0L191,267L20,525H188l98-165h4l95,165H541L367,262L542,0H374L273,171h-4L172,0H18Z"/>
      <glyph unicode="y" glyph-name="gid26" horiz-adv-x="534" d="M313,280l77,245H528L326-81q-13-40-33.5-66.5T241-187t-76-13H73V-85h99l18,58L6,525H153l77-245l38-152h6l39,152Z"/>
      <glyph unicode="z" glyph-name="gid27" horiz-adv-x="518" d="M479,0H39V117L300,410H48V525H472V409L210,115H479V0Z"/>
      <glyph unicode="{" glyph-name="gid95" horiz-adv-x="372" d="M322-138H213q-40,0-68.5,26T116-37V166q0,44-27.5,66.5T19,255V368q42,0 69.5,23T116,457V659q0,49 28.5,75T213,760H322V656H253V441q0-32-14.5-59t-38-45T149,313v-4q28-5 51.5-23t38-45T253,181V-34h69V-138Z"/>
      <glyph unicode="|" glyph-name="gid102" horiz-adv-x="402" d="M264-138H138V760H264V-138Z"/>
      <glyph unicode="}" glyph-name="gid96" horiz-adv-x="372" d="M50,760H159q41,0 69-26t28-75V457q0-43 27.5-66T353,368V255q-42,0-69.5-22.5T256,166V-37q0-49-28-75t-69-26H50V-34h69V182q0,33 14.5,60t38,45T223,310v4q-28,6-51.5,24t-38,45T119,442V656H50V760Z"/>
      <glyph unicode="~" glyph-name="gid117" horiz-adv-x="600" d="M416,212q-37,0-65,10t-61,26q-27,14-53,23.5T180,281q-22,0-39-6.5T102,254L53,338q18,26 50,44t81,18q37,0 65-9.5T310,364q27-13 53-23t57-10q23,0 39.5,6.5T498,358l49-84q-18-25-50-43.5T416,212Z"/>
      <glyph unicode="&#xa0;" glyph-name="gid262" horiz-adv-x="236"/>
      <glyph unicode="&#xa1;" glyph-name="gid87" horiz-adv-x="320" d="M238-173H82V21l46,284h63L238,21V-173ZM160,361q-47,0-68,22T71,437v24q0,32 21,54t68,22t68-22t21-54V437q0-32-21-54t-68-22Z"/>
      <glyph unicode="&#xa2;" glyph-name="gid130" horiz-adv-x="552" d="M347-114H237V-7Q144,11 92.5,80T41,258T93,436.5T237,523V630H347V524q61-10 100-42.5T508,402L402,344q-10,22-25.5,40T338,411V104q26,9 43.5,28T411,173l105-59q-22-47-64-80T347-8V-114ZM182,216q0-40 16.5-68.5T247,106V410q-31-13-48-41.5T182,300V216Z"/>
      <glyph unicode="&#xa3;" glyph-name="gid132" horiz-adv-x="582" d="M554,0H66V136q38,17 60.5,48T149,258q0,8-1,16.5T145,291H34V411h66q-7,21-12.5,44.5T82,505q0,62 31,108t87,71.5T332,710q81,0 138.5-30.5T568,589L458,512q-28,36-57,51.5T336,579q-49,0-75-25.5T235,481q0-19 4-36t10-34H445V291H295q1-7 1.5-13.5T297,263q0-52-25.5-82T220,137v-9H554V0Z"/>
      <glyph unicode="&#xa4;" glyph-name="gid129" horiz-adv-x="628" d="M314,107q-38,0-72,8t-60,22L91,45L10,125l91,91q-16,27-24,60.5T69,349t8,72.5T101,482L10,573l81,80l91-92q26,14 60,22t72,8t72-8t60-22l91,92l81-80l-91-91q16-27 24-60.5t8-72.5t-8-72.5T527,216l91-91L537,45l-91,92q-26-14-60-22t-72-8Zm0,107q46,0 71.5,28T411,321v56q0,51-25.5,79T314,484t-71.5-28T217,377V321q0-51 25.5-79T314,214Z"/>
      <glyph unicode="&#xa5;" glyph-name="gid134" horiz-adv-x="650" d="M567,133H399V0H246V133H78v90H246v68H78v90H188L19,698H191L329,423h2L468,698H631L457,381H567V291H399V223H567V133Z"/>
      <glyph unicode="&#xa6;" glyph-name="gid103" horiz-adv-x="402" d="M264,401H138V760H264V401Zm0-539H138V221H264V-138Z"/>
      <glyph unicode="&#xa7;" glyph-name="gid104" horiz-adv-x="569" d="M488,13q0-54-27.5-93T384-140T271-161q-52,0-104,16T72-89L144-1q26-26 58-40.5T273-56q41,0 66,16T364,7q0,19-9,31.5t-28.5,22T277,78L200,99q-56,16-89,39.5T64,190T50,247q0,43 26,79t81,59v17q-35,23-56,58T80,541q0,55 28,92.5t76.5,57T296,710q53,0 105.5-15.5T497,638l-73-88q-26,26-56.5,40.5T293,605q-38,0-63.5-13.5T204,546q0-17 9.5-29.5T242,495t49-17l77-21q57-15 90-39t47-52.5T519,307q0-43-26-79t-82-59V153q35-23 56-58t21-82ZM396,262q0,17-6.5,32.5t-24,28.5T316,345l-76,21q-8,2-16,4.5T208,376q-17-19-26.5-40T172,292q0-25 16-46t64-35l76-21q8-2 16.5-5t16.5-6q17,20 26,40.5t9,42.5Z"/>
      <glyph unicode="&#xa8;" glyph-name="gid231" horiz-adv-x="600" d="M190,600q-45,0-62.5,18.5T110,663v25q0,26 17.5,44.5T190,751t62.5-18.5T270,688V663q0-26-17.5-44.5T190,600Zm220,0q-45,0-62.5,18.5T330,663v25q0,26 17.5,44.5T410,751t62.5-18.5T490,688V663q0-26-17.5-44.5T410,600Z"/>
      <glyph unicode="&#xa9;" glyph-name="gid106" horiz-adv-x="792" d="M396-12Q295-12 216,32T92.5,157T48,349q0,112 44.5,192.5T216,666t180,44q102,0 180.5-44t123-124.5T744,349q0-111-44.5-192T576.5,32T396-12Zm0,64q80,0 141.5,35t97,94.5T670,315v68q0,74-35.5,133.5t-97,94.5T396,646q-79,0-141-35t-97.5-94.5T122,383V315q0-74 35.5-133.5T255,87T396,52Zm7,82q-97,0-152.5,59T195,349q0,98 55.5,156.5T403,564q73,0 117-31.5T584,451L484,403q-12,26-30,42t-51,16t-52-19.5T332,389V309q0-33 19-52.5T403,237t54,16.5T491,295l101-47q-21-46-65-80T403,134Z"/>
      <glyph unicode="&#xaa;" glyph-name="gid109" horiz-adv-x="449" d="M405,405V330H345q-27,0-50.5,16.5T271,409v15l31-30H268q-10-34-38.5-52T160,324q-51,0-82.5,28.5T46,433q0,56 41,83.5T206,544h56v19q0,33-14,49t-49,16q-32,0-52.5-12.5T112,583L56,633q18,32 56.5,51.5T211,704q72,0 113.5-34.5T366,567V405h39ZM262,488H209q-30,0-46-11t-16-32V431q0-20 14.5-29.5T200,392q26,0 44,13t18,39v44Z"/>
      <glyph unicode="&#xab;" glyph-name="gid85" horiz-adv-x="558" d="M267,141L224,49L38,209V335L224,495l43-92L148,273v-2L267,141Zm241,0L465,49L279,209V335L465,495l43-92L389,273v-2L508,141Z"/>
      <glyph unicode="&#xac;" glyph-name="gid128" horiz-adv-x="600" d="M533,78H412V247H52V365H533V78Z"/>
      <glyph unicode="&#xad;" glyph-name="gid265" horiz-adv-x="0"/>
      <glyph unicode="&#xae;" glyph-name="gid107" horiz-adv-x="464" d="M232,298q-56,0-102,27T57,398.5T30,504T57,609.5T130,683t102,27q57,0 102.5-27T407,609.5T434,504T407,398.5T334.5,325T232,298Zm0,47q40,0 73.5,17t54,49T380,488v32q0,45-20.5,77t-54,49T232,663t-73.5-17t-54-49T84,520V488q0-45 20.5-77t54-49T232,345ZM209,461V400H145V609H247q42,0 61-20t19-50q0-25-10-41.5T290,473l43-73H264l-32,61H209Zm0,47h25q14,0 21,5.5t7,17.5v7q0,12-7,17.5T234,561H209V508Z"/>
      <glyph unicode="&#xaf;" glyph-name="gid230" horiz-adv-x="600" d="M147,624V727H453V624H147Z"/>
      <glyph unicode="&#xb0;" glyph-name="gid111" horiz-adv-x="470" d="M235,334q-52,0-94,24.5t-66.5,67T50,522t24.5,96.5t66.5,67T235,710q53,0 94.5-24.5t66-67T420,522t-24.5-96.5t-66-67T235,334Zm0,95q26,0 44.5,12t29,33.5T319,522q0,27-10.5,48t-29,33T235,615q-25,0-44-12t-29.5-33T151,523q0-27 10.5-48.5T191,441t44-12Z"/>
      <glyph unicode="&#xb1;" glyph-name="gid120" horiz-adv-x="600" d="M364,184H236V351H67V470H236V635H364V470H533V351H364V184ZM533,0H67V119H533V0Z"/>
      <glyph unicode="&#xb2;" glyph-name="gid206" horiz-adv-x="347" d="M322,412V329H33v88l109,83q38,29 52.5,45T209,583v1q0,20-14.5,27T166,618q-25,0-37.5-13.5T111,573L22,606q14,42 52.5,70T176,704q68,0 105-32t37-82q0-51-35-85.5T204,445l-59-33H322Z"/>
      <glyph unicode="&#xb3;" glyph-name="gid207" horiz-adv-x="345" d="M117,558h34q27,0 39,8t12,19v4q0,14-11.5,25T157,625q-21,0-42.5-11T77,582L15,641q26,31 59.5,47T160,704q71,0 110.5-28T310,603q0-34-22.5-55.5T234,522v-4q38-6 60-28t22-57q0-51-43.5-80.5T159,323q-64,0-99.5,22T4,398l76,58q11-23 30-38.5T159,402q23,0 36.5,11T209,442v2q0,17-17,24.5T148,476H117v82Z"/>
      <glyph unicode="&#xb4;" glyph-name="gid233" horiz-adv-x="600" d="M450,755L316,579l-88,43l99,194l123-61Z"/>
      <glyph unicode="&#xb5;" glyph-name="gid203" horiz-adv-x="602" d="M217-200H69V525H217V206q0-47 17-72.5T291,108q24,0 45.5,9t35,26T385,184V525H533V0H385V88h-5q-13-40-42-70T264-12q-28,0-46,12T192,30h-5l30-136v-94Z"/>
      <glyph unicode="&#xb6;" glyph-name="gid105" horiz-adv-x="677" d="M242-149V260q-59,0-107,29.5T59,369T31,479T59,589t76,79.5T242,698H624V592H558V-149H449V592H351V-149H242Z"/>
      <glyph unicode="&#xb7;" glyph-name="gid126" horiz-adv-x="358" d="M179,213q-45,0-66.5,23T91,293v20q0,35 21.5,57.5T179,393t66.5-22.5T267,313V293q0-34-21.5-57T179,213Z"/>
      <glyph unicode="&#xb8;" glyph-name="gid240" horiz-adv-x="600" d="M314-212q-52,0-81.5,14.5T190-168l46,56q10-12 26.5-20.5T302-141q19,0 31.5,6T346-116q0,11-14,23.5T271-76l-21,2L272,30h67L321-55l4-4q12,3 24,5t24,2q30,0 51.5-16T446-121q0-34-19-54t-49-28.5T314-212Z"/>
      <glyph unicode="&#xb9;" glyph-name="gid205" horiz-adv-x="344" d="M324,329H49v79h93V618h-6L75,535L8,583L93,698H243V408h81V329Z"/>
      <glyph unicode="&#xba;" glyph-name="gid110" horiz-adv-x="433" d="M217,324q-84,0-131.5,51T38,514T85.5,653T217,704t131.5-51T396,514T348.5,375T217,324Zm0,78q34,0 53,21t19,62v58q0,41-19,62t-53,21t-53-21t-19-62V485q0-41 19-62t53-21Z"/>
      <glyph unicode="&#xbb;" glyph-name="gid86" horiz-adv-x="558" d="M50,141L169,271v2L50,403l43,92L279,335V209L93,49L50,141Zm241,0L410,271v2L291,403l43,92L520,335V209L334,49l-43,92Z"/>
      <glyph unicode="&#xbc;" glyph-name="gid225" horiz-adv-x="837" d="M324,329H49v79h93V618h-6L75,535L8,583L93,698H243V408h81V329ZM222,0H114L643,698H751L222,0ZM772,0H674V70H508v85L657,369H772V146h46V70H772V0ZM674,146V259h-7L587,146h87Z"/>
      <glyph unicode="&#xbd;" glyph-name="gid224" horiz-adv-x="859" d="M324,329H49v79h93V618h-6L75,535L8,583L93,698H243V408h81V329ZM222,0H114L643,698H751L222,0ZM834,83V0H545V88l109,83q38,29 52.5,45T721,254v1q0,20-14.5,27T678,289q-25,0-37.5-13.5T623,244l-89,33q14,42 52.5,70T688,375q68,0 105-32t37-82q0-51-35-85.5T716,116L657,83H834Z"/>
      <glyph unicode="&#xbe;" glyph-name="gid226" horiz-adv-x="828" d="M117,558h34q27,0 39,8t12,19v4q0,14-11.5,25T157,625q-21,0-42.5-11T77,582L15,641q26,31 59.5,47T160,704q71,0 110.5-28T310,603q0-34-22.5-55.5T234,522v-4q38-6 60-28t22-57q0-51-43.5-80.5T159,323q-64,0-99.5,22T4,398l76,58q11-23 30-38.5T159,402q23,0 36.5,11T209,442v2q0,17-17,24.5T148,476H117v82ZM213,0H105L634,698H742L213,0ZM763,0H665V70H499v85L648,369H763V146h46V70H763V0ZM665,146V259h-7L578,146h87Z"/>
      <glyph unicode="&#xbf;" glyph-name="gid89" horiz-adv-x="494" d="M260-185q-70,0-122.5,26T56-86.5T27,21q0,56 24,98t64,68t87,33v72H342V139q-79-3-118.5-26.5T184,33V19q0-38 22.5-58T265-59q39,0 64.5,24T364,26L486-25q-11-40-38.5-76.5t-73.5-60T260-185Zm10,546q-47,0-68,22t-21,54v24q0,32 21,54t68,22t68-22t21-54V437q0-32-21-54t-68-22Z"/>
      <glyph unicode="&#xc0;" glyph-name="gid174" horiz-adv-x="685" d="M665,0H507L457,166H224L174,0H20L250,698H438L665,0ZM420,295L377,440L342,560h-5L303,440L260,295H420ZM323,740L189,916l123,61l99-194l-88-43Z"/>
      <glyph unicode="&#xc1;" glyph-name="gid171" horiz-adv-x="685" d="M665,0H507L457,166H224L174,0H20L250,698H438L665,0ZM420,295L377,440L342,560h-5L303,440L260,295H420Zm69,621L355,740l-88,43l99,194l123-61Z"/>
      <glyph unicode="&#xc2;" glyph-name="gid172" horiz-adv-x="685" d="M665,0H507L457,166H224L174,0H20L250,698H438L665,0ZM420,295L377,440L342,560h-5L303,440L260,295H420ZM277,956H401L533,797l-73-58L339,854L218,739l-73,58L277,956Z"/>
      <glyph unicode="&#xc3;" glyph-name="gid176" horiz-adv-x="685" d="M665,0H507L457,166H224L174,0H20L250,698H438L665,0ZM420,295L377,440L342,560h-5L303,440L260,295H420Zm-5,467q-22,0-40,6t-37,14q-22,9-40,15.5T260,804q-17,0-30-6t-29-19l-52,68q18,27 46,45.5T263,911q23,0 40.5-6T340,891q22-9 40.5-15.5T418,869q17,0 30,6t29,19l52-68q-18-27-46-45.5T415,762Z"/>
      <glyph unicode="&#xc4;" glyph-name="gid173" horiz-adv-x="685" d="M665,0H507L457,166H224L174,0H20L250,698H438L665,0ZM420,295L377,440L342,560h-5L303,440L260,295H420ZM229,761q-45,0-62.5,18.5T149,824v25q0,26 17.5,44.5T229,912t62.5-18.5T309,849V824q0-26-17.5-44.5T229,761Zm220,0q-45,0-62.5,18.5T369,824v25q0,26 17.5,44.5T449,912t62.5-18.5T529,849V824q0-26-17.5-44.5T449,761Z"/>
      <glyph unicode="&#xc5;" glyph-name="gid175" horiz-adv-x="685" d="M665,0H507L457,166H224L174,0H20L250,698H438L665,0ZM420,295L377,440L342,560h-5L303,440L260,295H420ZM339,719q-41,0-75,18.5t-53.5,51T191,862q0,42 19.5,74T264,986.5t75,18.5q42,0 75.5-18.5t53-50.5T487,862q0-41-19.5-73.5t-53-51T339,719Zm0,75q25,0 38,14t13,37v34q0,23-13,37t-38,14t-38-14t-13-37V845q0-23 13-37t38-14Z"/>
      <glyph unicode="&#xc6;" glyph-name="gid177" horiz-adv-x="968" d="M438,0V166H229L151,0H-1L340,698H913V563H589V420H867V286H589V135H913V0H438Zm0,563H415L290,295H438V563Z"/>
      <glyph unicode="&#xc7;" glyph-name="gid178" horiz-adv-x="651" d="M359,575q-67,0-107.5-43.5T211,405V293q0-82 40.5-126T359,123q56,0 89.5,30.5T498,227l124-72Q583,76 519.5,32T364-12l-9-43l4-4q12,3 24,5t24,2q30,0 51.5-16T480-121q0-34-19-54t-49-28.5T348-212q-52,0-81.5,14.5T224-168l46,56q10-12 26.5-20.5T336-141q19,0 31.5,6T380-116q0,11-14,23.5T305-76l-21,2L298-7Q222,5 166,48T80,165T50,344q0,118 38,199.5t107.5,124T359,710q96,0 159.5-40T620,546L489,478q-13,44-43.5,70.5T359,575Z"/>
      <glyph unicode="&#xc8;" glyph-name="gid184" horiz-adv-x="607" d="M552,0H77V698H552V563H229V420H506V286H229V135H552V0ZM299,740L165,916l123,61l99-194l-88-43Z"/>
      <glyph unicode="&#xc9;" glyph-name="gid181" horiz-adv-x="607" d="M552,0H77V698H552V563H229V420H506V286H229V135H552V0ZM465,916L331,740l-88,43l99,194l123-61Z"/>
      <glyph unicode="&#xca;" glyph-name="gid182" horiz-adv-x="607" d="M552,0H77V698H552V563H229V420H506V286H229V135H552V0ZM253,956H377L509,797l-73-58L315,854L194,739l-73,58L253,956Z"/>
      <glyph unicode="&#xcb;" glyph-name="gid183" horiz-adv-x="607" d="M552,0H77V698H552V563H229V420H506V286H229V135H552V0ZM205,761q-45,0-62.5,18.5T125,824v25q0,26 17.5,44.5T205,912t62.5-18.5T285,849V824q0-26-17.5-44.5T205,761Zm220,0q-45,0-62.5,18.5T345,824v25q0,26 17.5,44.5T425,912t62.5-18.5T505,849V824q0-26-17.5-44.5T425,761Z"/>
      <glyph unicode="&#xcc;" glyph-name="gid188" horiz-adv-x="432" d="M382,0H50V121h90V577H50V698H382V577H292V121h90V0ZM200,740L66,916l123,61l99-194l-88-43Z"/>
      <glyph unicode="&#xcd;" glyph-name="gid185" horiz-adv-x="432" d="M382,0H50V121h90V577H50V698H382V577H292V121h90V0ZM366,916L232,740l-88,43l99,194l123-61Z"/>
      <glyph unicode="&#xce;" glyph-name="gid186" horiz-adv-x="432" d="M382,0H50V121h90V577H50V698H382V577H292V121h90V0ZM154,956H278L410,797l-73-58L216,854L95,739L22,797L154,956Z"/>
      <glyph unicode="&#xcf;" glyph-name="gid187" horiz-adv-x="432" d="M382,0H50V121h90V577H50V698H382V577H292V121h90V0ZM106,761q-45,0-62.5,18.5T26,824v25q0,26 17.5,44.5T106,912t62.5-18.5T186,849V824q0-26-17.5-44.5T106,761Zm220,0q-45,0-62.5,18.5T246,824v25q0,26 17.5,44.5T326,912t62.5-18.5T406,849V824q0-26-17.5-44.5T326,761Z"/>
      <glyph unicode="&#xd0;" glyph-name="gid180" horiz-adv-x="702" d="M82,0V297H7V411H82V698H345q93,0 162-39T614,542.5T652,349T614,155.5T507,39T345,0H82ZM234,135H345q45,0 78,17t50.5,52.5T491,295V403q0,56-17.5,91T423,546t-78,17H234V411H353V297H234V135Z"/>
      <glyph unicode="&#xd1;" glyph-name="gid189" horiz-adv-x="724" d="M481,0L290,330L223,470h-3V324V0H77V698H243L434,368l67-140h3V374V698H647V0H481ZM437,762q-22,0-40,6t-37,14q-22,9-40,15.5T282,804q-17,0-30-6t-29-19l-52,68q18,27 46,45.5T285,911q23,0 40.5-6T362,891q22-9 40.5-15.5T440,869q17,0 30,6t29,19l52-68q-18-27-46-45.5T437,762Z"/>
      <glyph unicode="&#xd2;" glyph-name="gid193" horiz-adv-x="714" d="M357-12q-92,0-161.5,41T88,150.5T50,349q0,119 38,199T195.5,669T357,710q93,0 162-41T626,548t38-199q0-118-38-198.5T519,29T357-12Zm0,135q46,0 78.5,20.5t50,59.5T503,297V401q0,56-17.5,94.5t-50,59T357,575q-45,0-78-20.5t-50.5-59T211,401V297q0-55 17.5-94T279,143.5T357,123ZM341,740L207,916l123,61l99-194l-88-43Z"/>
      <glyph unicode="&#xd3;" glyph-name="gid190" horiz-adv-x="714" d="M357-12q-92,0-161.5,41T88,150.5T50,349q0,119 38,199T195.5,669T357,710q93,0 162-41T626,548t38-199q0-118-38-198.5T519,29T357-12Zm0,135q46,0 78.5,20.5t50,59.5T503,297V401q0,56-17.5,94.5t-50,59T357,575q-45,0-78-20.5t-50.5-59T211,401V297q0-55 17.5-94T279,143.5T357,123ZM507,916L373,740l-88,43l99,194l123-61Z"/>
      <glyph unicode="&#xd4;" glyph-name="gid191" horiz-adv-x="714" d="M357-12q-92,0-161.5,41T88,150.5T50,349q0,119 38,199T195.5,669T357,710q93,0 162-41T626,548t38-199q0-118-38-198.5T519,29T357-12Zm0,135q46,0 78.5,20.5t50,59.5T503,297V401q0,56-17.5,94.5t-50,59T357,575q-45,0-78-20.5t-50.5-59T211,401V297q0-55 17.5-94T279,143.5T357,123ZM295,956H419L551,797l-73-58L357,854L236,739l-73,58L295,956Z"/>
      <glyph unicode="&#xd5;" glyph-name="gid195" horiz-adv-x="714" d="M357-12q-92,0-161.5,41T88,150.5T50,349q0,119 38,199T195.5,669T357,710q93,0 162-41T626,548t38-199q0-118-38-198.5T519,29T357-12Zm0,135q46,0 78.5,20.5t50,59.5T503,297V401q0,56-17.5,94.5t-50,59T357,575q-45,0-78-20.5t-50.5-59T211,401V297q0-55 17.5-94T279,143.5T357,123Zm76,639q-22,0-40,6t-37,14q-22,9-40,15.5T278,804q-17,0-30-6t-29-19l-52,68q18,27 46,45.5T281,911q23,0 40.5-6T358,891q22-9 40.5-15.5T436,869q17,0 30,6t29,19l52-68q-18-27-46-45.5T433,762Z"/>
      <glyph unicode="&#xd6;" glyph-name="gid192" horiz-adv-x="714" d="M357-12q-92,0-161.5,41T88,150.5T50,349q0,119 38,199T195.5,669T357,710q93,0 162-41T626,548t38-199q0-118-38-198.5T519,29T357-12Zm0,135q46,0 78.5,20.5t50,59.5T503,297V401q0,56-17.5,94.5t-50,59T357,575q-45,0-78-20.5t-50.5-59T211,401V297q0-55 17.5-94T279,143.5T357,123ZM247,761q-45,0-62.5,18.5T167,824v25q0,26 17.5,44.5T247,912t62.5-18.5T327,849V824q0-26-17.5-44.5T247,761Zm220,0q-45,0-62.5,18.5T387,824v25q0,26 17.5,44.5T467,912t62.5-18.5T547,849V824q0-26-17.5-44.5T467,761Z"/>
      <glyph unicode="&#xd7;" glyph-name="gid121" horiz-adv-x="600" d="M439,71L300,217L161,71L79,153L218,299L79,445l82,82L300,381L439,527l82-82L382,299L521,153L439,71Z"/>
      <glyph unicode="&#xd8;" glyph-name="gid194" horiz-adv-x="714" d="M357-12q-42,0-80,9T207,22L154-56L62,3l61,90Q88,138 69,202.5T50,349q0,119 38,199T195.5,669T357,710q42,0 80-8.5T507,676l53,78l92-59l-61-90q35-45 54-109t19-147q0-118-38-198.5T519,29T357-12Zm0,598q-48,0-82.5-21.5t-52.5-62T204,404V294q0-22 3-43t8-38h2L357,435l82,130q-16,11-37,16t-45,5Zm0-474q48,0 82.5,21.5t52.5,62T510,294V404q0,23-3,43.5T499,485h-2L357,263L275,133q17-10 37.5-15.5T357,112Z"/>
      <glyph unicode="&#xd9;" glyph-name="gid201" horiz-adv-x="694" d="M73,698H221V270q0-49 12.5-81.5t40.5-49T347,123t72.5,16.5t40.5,49T473,270V698H621V286q0-103-27-169T507,19.5T347-12T187,19.5T100,117T73,286V698Zm258,42L197,916l123,61l99-194l-88-43Z"/>
      <glyph unicode="&#xda;" glyph-name="gid198" horiz-adv-x="694" d="M73,698H221V270q0-49 12.5-81.5t40.5-49T347,123t72.5,16.5t40.5,49T473,270V698H621V286q0-103-27-169T507,19.5T347-12T187,19.5T100,117T73,286V698ZM497,916L363,740l-88,43l99,194l123-61Z"/>
      <glyph unicode="&#xdb;" glyph-name="gid199" horiz-adv-x="694" d="M73,698H221V270q0-49 12.5-81.5t40.5-49T347,123t72.5,16.5t40.5,49T473,270V698H621V286q0-103-27-169T507,19.5T347-12T187,19.5T100,117T73,286V698ZM285,956H409L541,797l-73-58L347,854L226,739l-73,58L285,956Z"/>
      <glyph unicode="&#xdc;" glyph-name="gid200" horiz-adv-x="694" d="M73,698H221V270q0-49 12.5-81.5t40.5-49T347,123t72.5,16.5t40.5,49T473,270V698H621V286q0-103-27-169T507,19.5T347-12T187,19.5T100,117T73,286V698Zm164,63q-45,0-62.5,18.5T157,824v25q0,26 17.5,44.5T237,912t62.5-18.5T317,849V824q0-26-17.5-44.5T237,761Zm220,0q-45,0-62.5,18.5T377,824v25q0,26 17.5,44.5T457,912t62.5-18.5T537,849V824q0-26-17.5-44.5T457,761Z"/>
      <glyph unicode="&#xdd;" glyph-name="gid202" horiz-adv-x="649" d="M401,0H248V273L9,698H179L329,420h2L475,698H640L401,274V0Zm74,916L341,740l-88,43l99,194l123-61Z"/>
      <glyph unicode="&#xde;" glyph-name="gid197" horiz-adv-x="656" d="M229,0H77V698H229V578H407q65,0 112.5-28.5t73.5-79T619,355T593,239.5t-73.5-79T407,132H229V0Zm0,446V264H389q23,0 39,8t25,23.5t9,37.5v44q0,23-9,38t-25,23t-39,8H229Z"/>
      <glyph unicode="&#xdf;" glyph-name="gid163" horiz-adv-x="692" d="M667,173q0-85-54-135T473-12Q410-12 363,6T287,63l84,86q23-27 47.5-39T471,98q27,0 43.5,14.5T531,155q0,26-15.5,39.5T465,219l-31,10q-34,11-59.5,29.5t-39,47T322,374q0,60 37,100t104,55v2q0,58-27.5,84.5T353,642t-82.5-26.5T243,531V0H95V410H21V525H95v4q0,70 32.5,120T217,725.5T349,752t131.5-26T568,650.5T599,531V434H543q-31,0-49.5-4.5t-27-14.5T458,387q0-24 15.5-34.5T520,331l31-10q54-17 85-51.5T667,173Z"/>
      <glyph unicode="&#xe0;" glyph-name="gid139" horiz-adv-x="569" d="M539,0H457q-27,0-50.5,13.5T369,53.5T355,117v13l32-38H351q-12-51-53-77.5T197-12Q118-12 76,30.5T34,141q0,56 27.5,92t78,54T259,305h83v33q0,38-20,60.5T255,421q-44,0-70-19t-43-43L54,437q32,47 81,73.5T266,537q111,0 167.5-49.5T490,345V115h49V0ZM342,221H270q-43,0-65-15t-22-44V147q0-28 18-42t51-14q25,0 45,7t32.5,22T342,159v62ZM252,579L118,755l123,61l99-194l-88-43Z"/>
      <glyph unicode="&#xe1;" glyph-name="gid136" horiz-adv-x="569" d="M539,0H457q-27,0-50.5,13.5T369,53.5T355,117v13l32-38H351q-12-51-53-77.5T197-12Q118-12 76,30.5T34,141q0,56 27.5,92t78,54T259,305h83v33q0,38-20,60.5T255,421q-44,0-70-19t-43-43L54,437q32,47 81,73.5T266,537q111,0 167.5-49.5T490,345V115h49V0ZM342,221H270q-43,0-65-15t-22-44V147q0-28 18-42t51-14q25,0 45,7t32.5,22T342,159v62Zm76,534L284,579l-88,43l99,194l123-61Z"/>
      <glyph unicode="&#xe2;" glyph-name="gid137" horiz-adv-x="569" d="M539,0H457q-27,0-50.5,13.5T369,53.5T355,117v13l32-38H351q-12-51-53-77.5T197-12Q118-12 76,30.5T34,141q0,56 27.5,92t78,54T259,305h83v33q0,38-20,60.5T255,421q-44,0-70-19t-43-43L54,437q32,47 81,73.5T266,537q111,0 167.5-49.5T490,345V115h49V0ZM342,221H270q-43,0-65-15t-22-44V147q0-28 18-42t51-14q25,0 45,7t32.5,22T342,159v62ZM206,795H330L462,636l-73-58L268,693L147,578L74,636L206,795Z"/>
      <glyph unicode="&#xe3;" glyph-name="gid141" horiz-adv-x="569" d="M539,0H457q-27,0-50.5,13.5T369,53.5T355,117v13l32-38H351q-12-51-53-77.5T197-12Q118-12 76,30.5T34,141q0,56 27.5,92t78,54T259,305h83v33q0,38-20,60.5T255,421q-44,0-70-19t-43-43L54,437q32,47 81,73.5T266,537q111,0 167.5-49.5T490,345V115h49V0ZM342,221H270q-43,0-65-15t-22-44V147q0-28 18-42t51-14q25,0 45,7t32.5,22T342,159v62Zm2,380q-22,0-40,6t-37,14q-22,9-40,15.5T189,643q-17,0-30-6t-29-19L78,686q18,27 46,45.5T192,750q23,0 40.5-6T269,730q22-9 40.5-15.5T347,708q17,0 30,6t29,19l52-68q-18-27-46-45.5T344,601Z"/>
      <glyph unicode="&#xe4;" glyph-name="gid138" horiz-adv-x="569" d="M539,0H457q-27,0-50.5,13.5T369,53.5T355,117v13l32-38H351q-12-51-53-77.5T197-12Q118-12 76,30.5T34,141q0,56 27.5,92t78,54T259,305h83v33q0,38-20,60.5T255,421q-44,0-70-19t-43-43L54,437q32,47 81,73.5T266,537q111,0 167.5-49.5T490,345V115h49V0ZM342,221H270q-43,0-65-15t-22-44V147q0-28 18-42t51-14q25,0 45,7t32.5,22T342,159v62ZM158,600q-45,0-62.5,18.5T78,663v25q0,26 17.5,44.5T158,751t62.5-18.5T238,688V663q0-26-17.5-44.5T158,600Zm220,0q-45,0-62.5,18.5T298,663v25q0,26 17.5,44.5T378,751t62.5-18.5T458,688V663q0-26-17.5-44.5T378,600Z"/>
      <glyph unicode="&#xe5;" glyph-name="gid140" horiz-adv-x="569" d="M539,0H457q-27,0-50.5,13.5T369,53.5T355,117v13l32-38H351q-12-51-53-77.5T197-12Q118-12 76,30.5T34,141q0,56 27.5,92t78,54T259,305h83v33q0,38-20,60.5T255,421q-44,0-70-19t-43-43L54,437q32,47 81,73.5T266,537q111,0 167.5-49.5T490,345V115h49V0ZM342,221H270q-43,0-65-15t-22-44V147q0-28 18-42t51-14q25,0 45,7t32.5,22T342,159v62ZM268,558q-41,0-75,18.5t-53.5,51T120,701q0,42 19.5,74T193,825.5T268,844q42,0 75.5-18.5t53-50.5T416,702q0-42-19.5-74.5t-53-51T268,558Zm0,75q25,0 38,13.5T319,684v34q0,24-13,37.5T268,769t-38-13.5T217,718V684q0-24 13-37.5T268,633Z"/>
      <glyph unicode="&#xe6;" glyph-name="gid142" horiz-adv-x="864" d="M342,225H270q-40,0-63.5-15T183,166V152q0-29 17.5-45T254,91q23,0 43,7t32.5,22T342,159v66Zm149,87H675v9q0,32-9.5,56t-29,37.5T587,428q-29,0-51-13.5T502.5,377T491,320v-8ZM610,106q46,0 76.5,19.5T739,167l74-92q-35-40-91.5-63.5T593-12q-49,0-90.5,13.5T432,38.5T389,91h-6q-11-28-33.5-51.5T290,2T198-12Q119-12 76.5,32.5T34,144q0,57 29,94t80,55.5T259,312h83v26q0,38-20,60.5T255,421q-44,0-70-19t-43-43L54,437q32,47 81,73.5T266,537q32,0 59.5-7.5t50-24T414,463h6q16,25 41,41.5T518.5,529t69.5,8q87,0 140-37.5T804.5,401T828,269V225H490v-8q0-51 31.5-81T610,106Z"/>
      <glyph unicode="&#xe7;" glyph-name="gid143" horiz-adv-x="517" d="M281,537q80,0 133.5-36T491,400L371,348q-7,30-29,51t-61,21q-45,0-68-29.5T190,311V213q0-49 23-79t68-30q44,0 65.5,24T379,183l115-50Q469,60 416.5,25T291-12l-9-43l4-4q12,3 24,5t24,2q30,0 51.5-16T407-121q0-34-19-54t-49-28.5T275-212q-52,0-81.5,14.5T151-168l46,56q10-12 26.5-20.5T263-141q19,0 31.5,6T307-116q0,11-14,23.5T232-76l-21,2L225-7Q134,10 85,81.5T36,263q0,126 63.5,200T281,537Z"/>
      <glyph unicode="&#xe8;" glyph-name="gid148" horiz-adv-x="562" d="M288-12q-80,0-136.5,33.5T65.5,117T36,263q0,83 28.5,144.5T148,503t134,34q87,0 140.5-37.5T501,401t25-132V225H189v-8q0-52 28.5-82.5T305,104q47,0 75.5,19T434,167l74-92q-35-40-91.5-63.5T288-12Zm-3,440q-30,0-51.5-13.5t-33-37.5T189,320v-8H373v9q0,32-9.5,56t-29,37.5T285,428ZM271,579L137,755l123,61l99-194l-88-43Z"/>
      <glyph unicode="&#xe9;" glyph-name="gid145" horiz-adv-x="562" d="M288-12q-80,0-136.5,33.5T65.5,117T36,263q0,83 28.5,144.5T148,503t134,34q87,0 140.5-37.5T501,401t25-132V225H189v-8q0-52 28.5-82.5T305,104q47,0 75.5,19T434,167l74-92q-35-40-91.5-63.5T288-12Zm-3,440q-30,0-51.5-13.5t-33-37.5T189,320v-8H373v9q0,32-9.5,56t-29,37.5T285,428ZM437,755L303,579l-88,43l99,194l123-61Z"/>
      <glyph unicode="&#xea;" glyph-name="gid146" horiz-adv-x="562" d="M288-12q-80,0-136.5,33.5T65.5,117T36,263q0,83 28.5,144.5T148,503t134,34q87,0 140.5-37.5T501,401t25-132V225H189v-8q0-52 28.5-82.5T305,104q47,0 75.5,19T434,167l74-92q-35-40-91.5-63.5T288-12Zm-3,440q-30,0-51.5-13.5t-33-37.5T189,320v-8H373v9q0,32-9.5,56t-29,37.5T285,428ZM225,795H349L481,636l-73-58L287,693L166,578L93,636L225,795Z"/>
      <glyph unicode="&#xeb;" glyph-name="gid147" horiz-adv-x="562" d="M288-12q-80,0-136.5,33.5T65.5,117T36,263q0,83 28.5,144.5T148,503t134,34q87,0 140.5-37.5T501,401t25-132V225H189v-8q0-52 28.5-82.5T305,104q47,0 75.5,19T434,167l74-92q-35-40-91.5-63.5T288-12Zm-3,440q-30,0-51.5-13.5t-33-37.5T189,320v-8H373v9q0,32-9.5,56t-29,37.5T285,428ZM177,600q-45,0-62.5,18.5T97,663v25q0,26 17.5,44.5T177,751t62.5-18.5T257,688V663q0-26-17.5-44.5T177,600Zm220,0q-45,0-62.5,18.5T317,663v25q0,26 17.5,44.5T397,751t62.5-18.5T477,688V663q0-26-17.5-44.5T397,600Z"/>
      <glyph unicode="&#xec;" glyph-name="gid153" horiz-adv-x="286" d="M217,0H69V525H217V0ZM127,579L-7,755l123,61l99-194l-88-43Z"/>
      <glyph unicode="&#xed;" glyph-name="gid150" horiz-adv-x="286" d="M217,0H69V525H217V0Zm76,755L159,579L71,622l99,194l123-61Z"/>
      <glyph unicode="&#xee;" glyph-name="gid151" horiz-adv-x="286" d="M217,0H69V525H217V0ZM81,795H205L337,636l-73-58L143,693L22,578l-73,58L81,795Z"/>
      <glyph unicode="&#xef;" glyph-name="gid152" horiz-adv-x="286" d="M217,0H69V525H217V0ZM33,600q-45,0-62.5,18.5T-47,663v25q0,26 17.5,44.5T33,751t62.5-18.5T113,688V663q0-26-17.5-44.5T33,600Zm220,0q-45,0-62.5,18.5T173,663v25q0,26 17.5,44.5T253,751t62.5-18.5T333,688V663q0-26-17.5-44.5T253,600Z"/>
      <glyph unicode="&#xf0;" glyph-name="gid144" horiz-adv-x="603" d="M429,753l50-60l-73-44q48-50 81.5-108.5T538,416t17-138q0-101-32-165.5T434,18T301-12q-81,0-139.5,32T72,111.5T41,253q0,75 24.5,130.5t69.5,86T239,500q56,0 94-26.5T395,402l7,3q-13,47-42,91.5T290,581l-89-53l-51,60l80,47q-37,30-77,56.5T71,740H297q13-8 25-17.5T346,704l83,49ZM298,98q32,0 55.5,13.5t36,40T402,216v54q0,38-12.5,64.5t-36,40T298,388t-55.5-13.5t-36-40T194,270V216q0-38 12.5-64.5t36-40T298,98Z"/>
      <glyph unicode="&#xf1;" glyph-name="gid155" horiz-adv-x="596" d="M217,0H69V525H217V436h6q14,41 49,71t97,30q80,0 122-54.5T533,329V0H385V317q0,50-16,75t-57,25q-24,0-45.5-8.5T231,383t-14-43V0ZM375,601q-22,0-40,6t-37,14q-22,9-40,15.5T220,643q-17,0-30-6t-29-19l-52,68q18,27 46,45.5T223,750q23,0 40.5-6T300,730q22-9 40.5-15.5T378,708q17,0 30,6t29,19l52-68q-18-27-46-45.5T375,601Z"/>
      <glyph unicode="&#xf2;" glyph-name="gid159" horiz-adv-x="564" d="M282-12q-77,0-132,33.5T65.5,117T36,263q0,85 29.5,146T150,503.5T282,537t132-33.5T498.5,409T528,263q0-84-29.5-146T414,21.5T282-12Zm0,117q44,0 68,27.5T374,209V316q0,50-24,77t-68,27q-43,0-67.5-27T190,316V209q0-49 24.5-76.5T282,105ZM265,579L131,755l123,61l99-194l-88-43Z"/>
      <glyph unicode="&#xf3;" glyph-name="gid156" horiz-adv-x="564" d="M282-12q-77,0-132,33.5T65.5,117T36,263q0,85 29.5,146T150,503.5T282,537t132-33.5T498.5,409T528,263q0-84-29.5-146T414,21.5T282-12Zm0,117q44,0 68,27.5T374,209V316q0,50-24,77t-68,27q-43,0-67.5-27T190,316V209q0-49 24.5-76.5T282,105ZM431,755L297,579l-88,43l99,194l123-61Z"/>
      <glyph unicode="&#xf4;" glyph-name="gid157" horiz-adv-x="564" d="M282-12q-77,0-132,33.5T65.5,117T36,263q0,85 29.5,146T150,503.5T282,537t132-33.5T498.5,409T528,263q0-84-29.5-146T414,21.5T282-12Zm0,117q44,0 68,27.5T374,209V316q0,50-24,77t-68,27q-43,0-67.5-27T190,316V209q0-49 24.5-76.5T282,105ZM219,795H343L475,636l-73-58L281,693L160,578L87,636L219,795Z"/>
      <glyph unicode="&#xf5;" glyph-name="gid161" horiz-adv-x="564" d="M282-12q-77,0-132,33.5T65.5,117T36,263q0,85 29.5,146T150,503.5T282,537t132-33.5T498.5,409T528,263q0-84-29.5-146T414,21.5T282-12Zm0,117q44,0 68,27.5T374,209V316q0,50-24,77t-68,27q-43,0-67.5-27T190,316V209q0-49 24.5-76.5T282,105Zm75,496q-22,0-40,6t-37,14q-22,9-40,15.5T202,643q-17,0-30-6t-29-19L91,686q18,27 46,45.5T205,750q23,0 40.5-6T282,730q22-9 40.5-15.5T360,708q17,0 30,6t29,19l52-68q-18-27-46-45.5T357,601Z"/>
      <glyph unicode="&#xf6;" glyph-name="gid158" horiz-adv-x="564" d="M282-12q-77,0-132,33.5T65.5,117T36,263q0,85 29.5,146T150,503.5T282,537t132-33.5T498.5,409T528,263q0-84-29.5-146T414,21.5T282-12Zm0,117q44,0 68,27.5T374,209V316q0,50-24,77t-68,27q-43,0-67.5-27T190,316V209q0-49 24.5-76.5T282,105ZM171,600q-45,0-62.5,18.5T91,663v25q0,26 17.5,44.5T171,751t62.5-18.5T251,688V663q0-26-17.5-44.5T171,600Zm220,0q-45,0-62.5,18.5T311,663v25q0,26 17.5,44.5T391,751t62.5-18.5T471,688V663q0-26-17.5-44.5T391,600Z"/>
      <glyph unicode="&#xf7;" glyph-name="gid122" horiz-adv-x="600" d="M532,247H67V365H532V247ZM300,28q-46,0-66.5,20.5T213,97v24q0,28 20.5,48.5T300,190q47,0 67-20.5T387,121V97q0-28-20-48.5T300,28Zm0,392q-46,0-66.5,20.5T213,489v24q0,28 20.5,48.5T300,582q47,0 67-20.5T387,513V489q0-28-20-48.5T300,420Z"/>
      <glyph unicode="&#xf8;" glyph-name="gid160" horiz-adv-x="572" d="M94-50L14,10L81,93q-20,34-30.5,76.5T40,263q0,85 29.5,146T154,503.5T286,537q38,0 71-8.5T418,503l60,72l80-60l-68-84q21-33 31.5-76T532,262q0-84-29.5-145.5T418,21.5T286-12q-38,0-71.5,8.5T154,21L94-50ZM286,96q46,0 71.5,32.5T383,214v50q0,7 0,15t0,16t0,15h-2L286,196l-64-77q12-11 28.5-17T286,96Zm0,333q-46,0-71.5-32.5T189,311V262q0-7 0-15t0-16t0-15h2l95,114l63,76q-12,11-28,17t-35,6Z"/>
      <glyph unicode="&#xf9;" glyph-name="gid168" horiz-adv-x="596" d="M379,0V88h-5q-13-40-47.5-70T227-12q-80,0-122,54T63,195V525H211V208q0-48 17.5-74T286,108q23,0 44.5,8.5t35,25.5T379,184V525H527V0H379ZM279,579L145,755l123,61l99-194l-88-43Z"/>
      <glyph unicode="&#xfa;" glyph-name="gid165" horiz-adv-x="596" d="M379,0V88h-5q-13-40-47.5-70T227-12q-80,0-122,54T63,195V525H211V208q0-48 17.5-74T286,108q23,0 44.5,8.5t35,25.5T379,184V525H527V0H379Zm66,755L311,579l-88,43l99,194l123-61Z"/>
      <glyph unicode="&#xfb;" glyph-name="gid166" horiz-adv-x="596" d="M379,0V88h-5q-13-40-47.5-70T227-12q-80,0-122,54T63,195V525H211V208q0-48 17.5-74T286,108q23,0 44.5,8.5t35,25.5T379,184V525H527V0H379ZM233,795H357L489,636l-73-58L295,693L174,578l-73,58L233,795Z"/>
      <glyph unicode="&#xfc;" glyph-name="gid167" horiz-adv-x="596" d="M379,0V88h-5q-13-40-47.5-70T227-12q-80,0-122,54T63,195V525H211V208q0-48 17.5-74T286,108q23,0 44.5,8.5t35,25.5T379,184V525H527V0H379ZM185,600q-45,0-62.5,18.5T105,663v25q0,26 17.5,44.5T185,751t62.5-18.5T265,688V663q0-26-17.5-44.5T185,600Zm220,0q-45,0-62.5,18.5T325,663v25q0,26 17.5,44.5T405,751t62.5-18.5T485,688V663q0-26-17.5-44.5T405,600Z"/>
      <glyph unicode="&#xfd;" glyph-name="gid169" horiz-adv-x="534" d="M313,280l77,245H528L326-81q-13-40-33.5-66.5T241-187t-76-13H73V-85h99l18,58L6,525H153l77-245l38-152h6l39,152ZM421,755L287,579l-88,43l99,194l123-61Z"/>
      <glyph unicode="&#xfe;" glyph-name="gid164" horiz-adv-x="608" d="M69-200V740H217V437h5q11,44 50.5,72T363,537q67,0 111.5-31.5T542,413t23-150T542,112.5t-67.5-93T363-12q-51,0-90.5,28.5T222,88h-5V-200H69ZM314,108q42,0 69.5,30T411,217v91q0,50-27.5,79.5T314,417q-28,0-50-9t-34.5-26.5T217,340V185q0-24 12.5-41.5T264,117t50-9Z"/>
      <glyph unicode="&#xff;" glyph-name="gid170" horiz-adv-x="534" d="M313,280l77,245H528L326-81q-13-40-33.5-66.5T241-187t-76-13H73V-85h99l18,58L6,525H153l77-245l38-152h6l39,152ZM161,600q-45,0-62.5,18.5T81,663v25q0,26 17.5,44.5T161,751t62.5-18.5T241,688V663q0-26-17.5-44.5T161,600Zm220,0q-45,0-62.5,18.5T301,663v25q0,26 17.5,44.5T381,751t62.5-18.5T461,688V663q0-26-17.5-44.5T381,600Z"/>
      <glyph unicode="&#x2013;" glyph-name="gid67" horiz-adv-x="588" d="M552,244H36V364H552V244Z"/>
      <glyph unicode="&#x2014;" glyph-name="gid68" horiz-adv-x="780" d="M744,244H36V364H744V244Z"/>
      <glyph unicode="&#x2018;" glyph-name="gid77" horiz-adv-x="300" d="M148,440q-45,0-65.5,20.5T62,512v21q0,59 31.5,115.5T171,740h93q-33-30-56.5-61T172,610q32-6 47-26.5T234,537V512q0-31-20.5-51.5T148,440Z"/>
      <glyph unicode="&#x2019;" glyph-name="gid78" horiz-adv-x="300" d="M152,750q45,0 65.5-20.5T238,678V657q0-58-31.5-115T129,450H36q33,30 56.5,61.5T128,580q-32,6-47,26.5T66,653v25q0,31 20.5,51.5T152,750Z"/>
      <glyph unicode="&#x201a;" glyph-name="gid81" horiz-adv-x="304" d="M155,183q46,0 65.5-21T240,109V87q0-58-30.5-113T134-117H38Q72-87 96-55.5T132,13Q99,19 84.5,40T70,87v22q0,32 19.5,53T155,183Z"/>
      <glyph unicode="&#x201c;" glyph-name="gid79" horiz-adv-x="535" d="M148,440q-45,0-65.5,20.5T62,512v21q0,59 31.5,115.5T171,740h93q-33-30-56.5-61T172,610q32-6 47-26.5T234,537V512q0-31-20.5-51.5T148,440Zm235,0q-45,0-65.5,20.5T297,512v21q0,59 31.5,115.5T406,740h93q-33-30-56.5-61T407,610q32-6 47-26.5T469,537V512q0-31-20.5-51.5T383,440Z"/>
      <glyph unicode="&#x201d;" glyph-name="gid80" horiz-adv-x="535" d="M152,750q45,0 65.5-20.5T238,678V657q0-58-31.5-115T129,450H36q33,30 56.5,61.5T128,580q-32,6-47,26.5T66,653v25q0,31 20.5,51.5T152,750Zm235,0q45,0 65.5-20.5T473,678V657q0-58-31.5-115T364,450H271q33,30 56.5,61.5T363,580q-32,6-47,26.5T301,653v25q0,31 20.5,51.5T387,750Z"/>
      <glyph unicode="&#x201e;" glyph-name="gid82" horiz-adv-x="539" d="M155,183q46,0 65.5-21T240,109V87q0-58-30.5-113T134-117H38Q72-87 96-55.5T132,13Q99,19 84.5,40T70,87v22q0,32 19.5,53T155,183Zm235,0q46,0 65.5-21T475,109V87q0-58-30.5-113T369-117H273q34,30 58,61.5T367,13q-33,6-47.5,27T305,87v22q0,32 19.5,53T390,183Z"/>
      <glyph unicode="&#x2022;" glyph-name="gid127" horiz-adv-x="430" d="M215,150q-83,0-118,37.5T62,281v36q0,56 35,93.5T215,448t118-37.5T368,317V281q0-56-35-93.5T215,150Z"/>
      <glyph unicode="&#x2039;" glyph-name="gid83" horiz-adv-x="317" d="M267,141L224,49L38,209V335L224,495l43-92L148,273v-2L267,141Z"/>
      <glyph unicode="&#x203a;" glyph-name="gid84" horiz-adv-x="317" d="M50,141L169,271v2L50,403l43,92L279,335V209L93,49L50,141Z"/>
    </font>
</defs>
</svg>
