<?xml version="1.0" standalone="no"?>
<!DOCTYPE svg PUBLIC "-//W3C//DTD SVG 1.1//EN" "http://www.w3.org/Graphics/SVG/1.1/DTD/svg11.dtd">
<svg xmlns="http://www.w3.org/2000/svg">
  <defs>
    <font id="IBMPlexSans" horiz-adv-x="541">
      <font-face font-family="IBM Plex Sans" units-per-em="1000" panose-1="2 11 5 3 5 2 3 0 2 3" ascent="1025" descent="-275" alphabetic="0"/>
      <glyph unicode=" " glyph-name="gid261" horiz-adv-x="236"/>
      <glyph unicode="!" glyph-name="gid88" horiz-adv-x="314" d="M181,220H119l11,284l38,194H320L282,504L181,220ZM104-12Q62-12 44.5,4.5T27,46q0,5 1,12.5T33,88q7,35 31.5,55.5T134,164q42,0 59.5-16.5T211,106q0-4-0.5-12T205,64q-7-34-31.5-55T104-12Z"/>
      <glyph unicode="&quot;" glyph-name="gid76" horiz-adv-x="488" d="M228,414H96l65,326H293L228,414Zm225,0H321l65,326H518L453,414Z"/>
      <glyph unicode="#" glyph-name="gid115" horiz-adv-x="640" d="M283,0l65,174H191L126,0H36l65,174H-7l18,88H134l65,174H90l18,88H231l65,174h90L321,524H478l65,174h90L568,524H676l-18-88H535L470,262H579l-18-88H438L373,0H283ZM224,262H380l65,174H289L224,262Z"/>
      <glyph unicode="$" glyph-name="gid133" horiz-adv-x="561" d="M265-82H155L184,62l16,20L304,616l-6,20l29,144H437L408,636l-18-20L286,82l8-20L265-82ZM516,236q0-55-30-107.5T396.5,42T248,8Q178,8 127,24T43,63.5T-5,111l93,85q12-19 34.5-37t56-30T257,117q48,0 75,15t37.5,37T380,213q0,23-13,44t-51,30l-66,15q-90,20-133,64T74,479q0,59 30,107t88,76.5T334,691q69,0 116-14.5T525.5,640T568,596l-93-82q-9,13-25.5,28.5t-45.5,27T328,581q-45,0-71-13.5t-36.5-33T210,496q0-24 15-42.5T274,427l73-18q83-20 126-61t43-112Z"/>
      <glyph unicode="%" glyph-name="gid101" horiz-adv-x="939" d="M289,626q-25,0-39.5-21.5T226,538l-10-50q-2-11-3.5-21.5T211,448q0-24 11.5-37T253,398q26,0 40,21.5T316,486l10,50q2,11 3.5,21.5T331,576q0,24-11,37t-31,13ZM687,72q26,0 40,21.5T750,160l10,50q2,11 3.5,21.5T765,250q0,24-11,37t-31,13q-25,0-39.5-21.5T660,212l-10-50q-2-11-3.5-21.5T645,122q0-24 11.5-37T687,72ZM295,710q71,0 113-40t42-121q0-14-1.5-27.5T445,495q-10-56-40-97t-71.5-62.5T247,314q-70,0-112.5,40T92,475q0,14 1.5,27.5T97,529q11,57 40.5,97.5t71,62T295,710ZM729,384q71,0 113-40t42-121q0-14-1.5-27.5T879,169q-10-56-40-97T767.5,9.5T681-12q-70,0-112.5,40T526,149q0,14 1.5,27.5T531,203q11,57 40.5,97.5t71,62T729,384ZM268,0H144L708,698H832L268,0Z"/>
      <glyph unicode="&amp;" glyph-name="gid64" horiz-adv-x="704" d="M476,0L436,56h-2Q399,28 351,8T236-12Q134-12 82.5,36.5T31,158q0,57 22.5,96.5t62,69.5T206,380q-19,28-35.5,63T154,516q0,59 30,102.5T265.5,686T383,710q53,0 94-17t64-50t23-82q0-36-14-65.5t-39-53T454,399t-67-38l83-117q17,31 29,67t19,74H691L667,265H588q-8-31-21-60t-30-55L643,0H476ZM363,602q-25,0-43-14t-23-37q-1-5-2-13.5T294,522q0-18 8.5-36.5T330,441q31,17 51.5,32t31,33T423,548q0,25-16.5,39.5T363,602ZM272,107q30,0 57,8t49,23L262,301q-21-11-38.5-24T195,247.5T179,209q-1-6-2-13t-1-14q0-37 24.5-56T272,107Z"/>
      <glyph unicode="&apos;" glyph-name="gid75" horiz-adv-x="263" d="M228,414H96l65,326H293L228,414Z"/>
      <glyph unicode="(" glyph-name="gid91" horiz-adv-x="353" d="M62,222q0,87 24,167t65,150t93.5,126T355,760H506q-70-51-131-112.5t-104-132T212,367L192,267q-3-15-3.5-25.5T188,222q0-111 39-200.5T328-137H195q-35,40-65.5,96T80.5,82T62,222Z"/>
      <glyph unicode=")" glyph-name="gid92" horiz-adv-x="353" d="M316,401q0-87-24-167T227,84T133.5-42T23-137H-128Q-58-86 3-24.5T107.5,108T166,256l20,100q3,15 3.5,25.5T190,401q0,111-39,200.5T50,760H183q36-39 66-95.5T297.5,541T316,401Z"/>
      <glyph unicode="*" glyph-name="gid114" horiz-adv-x="595" d="M325,398L187,239L95,320L241,461l-1,2L85,516l51,115l157-71l2,2l28,185H453L411,565l2-2l162,65l32-112L424,457l-1-2l87-150L402,239L327,398h-2Z"/>
      <glyph unicode="+" glyph-name="gid118" horiz-adv-x="600" d="M322,63H196l37,185H64L87,364H256l36,185H418L381,364H550L527,248H358L322,63Z"/>
      <glyph unicode="," glyph-name="gid73" horiz-adv-x="307" d="M129,169q43,0 60-20t17-46q0-8-2-20.5T200,59q-7-35-26-72.5T126-86T59-147H-47q42,33 73.5,66T78-8Q50-2 38.5,14.5T27,49q0,8 2.5,21.5T34,95q7,34 31,54t64,20Z"/>
      <glyph unicode="-" glyph-name="gid66" horiz-adv-x="395" d="M340,238H45L72,372H367L340,238Z"/>
      <glyph unicode="." glyph-name="gid70" horiz-adv-x="307" d="M102-11Q60-11 43,8T26,49q0,8 2.5,22T33,95q6,33 30.5,53.5T130,169t59-19t17-41q0-8-2.5-21.5T199,63q-6-33-30.5-53.5T102-11Z"/>
      <glyph unicode="/" glyph-name="gid97" horiz-adv-x="479" d="M55-151H-73L401,740H529L55-151Z"/>
      <glyph unicode="0" glyph-name="gid54" horiz-adv-x="600" d="M262-12q-66,0-108,23.5t-65.5,61T56,155.5T47,244q0,24 1.5,47T53,337t7,45q13,68 39,127.5T163.5,614t89,70.5T364,710q66,0 108-23.5t65.5-61T570,543t9-89q0-23-1.5-46.5t-4-46T566,316q-13-68-39-127.5T462.5,84T374,13.5T262-12Zm13,118q39,0 64,23t40.5,64T405,287l25,124q4,20 6,37.5t2,34.5q0,51-20,80t-67,29q-39,0-64-23t-40-63.5T221,411L196,287q-4-20-6-37.5T188,215q0-51 20-80t67-29Z"/>
      <glyph unicode="1" glyph-name="gid55" horiz-adv-x="600" d="M522,0H57L80,118H260l93,471h-9L169,403L84,478L291,698H517L401,118H545L522,0Z"/>
      <glyph unicode="2" glyph-name="gid56" horiz-adv-x="600" d="M512,121L488,0H12L39,134L289,319q43,32 69.5,58.5t40,51T417,478q2,8 2.5,14t0.5,13q0,24-10.5,42t-29,28T337,585q-45,0-74.5-30T217,485L95,534q23,50 57.5,90t83,63T349,710q69,0 119-24.5T545,618t27-101q0-60-26-107t-74-89.5T357,230L205,121H512Z"/>
      <glyph unicode="3" glyph-name="gid57" horiz-adv-x="600" d="M231,421h65q55,0 84.5,20.5T416,492q2,8 3,15t1,13q0,33-23,52t-63,19t-74.5-19T193,509l-80,90q47,50 102.5,80.5T359,710q66,0 114-20.5T547,632t26-86q0-46-20-82.5T497,403t-86-36l-1-5q53-10 82-48t29-98q0-65-32.5-117t-94-81.5T244-12Q177-12 131.5,6.5T59,55.5T17,121l105,75q15-40 45.5-65T253,106q50,0 80,24t38,65q2,8 2,13.5t0,12.5q0,37-25,58t-69,21H207l24,121Z"/>
      <glyph unicode="4" glyph-name="gid58" horiz-adv-x="600" d="M424,0H289l27,134H11L36,261L392,698H564L473,246h86L536,134H451L424,0ZM385,534L154,246H338l58,288H385Z"/>
      <glyph unicode="5" glyph-name="gid59" horiz-adv-x="600" d="M589,698L564,572H256L199,346h9q29,53 65,81t98,28q53,0 92-22.5T523.5,367T545,262q0-52-19-101T470,73T379,11T255-12Q183-12 137,7T64,57T22,123l116,74q12-39 42.5-64.5T262,107q53,0 83.5,30T385,212q2,11 3.5,20.5T390,253q0,40-24,62t-66,22q-39,0-66-15.5T190,287L77,303L179,698H589Z"/>
      <glyph unicode="6" glyph-name="gid60" horiz-adv-x="600" d="M264-12Q159-12 102,51.5T45,223q0,19 1.5,37.5T52,297q17,87 65,162.5T232,596T370,698H577q-92-57-164-109.5t-122-110T215,347l8-3q17,27 38,51t51,39t72,15q77,0 121.5-53T550,257q0-13-1.5-26.5T545,204q-11-59-48-108.5T401,17T264-12Zm13,114q33,0 57.5,12.5t40,36T396,206q2,11 3.5,22t1.5,21q0,41-22,64.5T312,337q-33,0-57.5-12.5T215,289t-22-56q-2-11-3.5-21.5T188,190q0-40 22-64t67-24Z"/>
      <glyph unicode="7" glyph-name="gid61" horiz-adv-x="600" d="M266,0H112L459,579H239L214,452H93l49,246H626L601,572L266,0Z"/>
      <glyph unicode="8" glyph-name="gid62" horiz-adv-x="600" d="M257-12Q142-12 86.5,37.5T31,165q0,50 20.5,90t58,67.5T198,361l1,7q-40,17-62,51.5T115,505t28.5,98t86,77T375,710q104,0 155-44.5T581,550q0-43-18.5-78T512,410.5T437,368l-1-8q48-15 74.5-51T537,210q0-55-33-106T408.5,20.5T257-12Zm10,112q33,0 57,11t39.5,31.5T384,190q2,11 3,18.5t1,17.5q0,36-22.5,56.5T299,303q-32,0-56.5-11T203,261t-21-48q-2-11-3-18.5T178,177q0-36 23-56.5T267,100Zm61,311q48,0 74.5,23.5T436,492q2,11 4,21.5t2,17.5q0,30-21,48.5T357,598q-48,0-74.5-23.5T249,517q-2-11-4-21.5T243,478q0-30 21-48.5T328,411Z"/>
      <glyph unicode="9" glyph-name="gid63" horiz-adv-x="600" d="M245,249q-77,0-121.5,53T79,441q0,14 1.5,27T84,494q12,60 48.5,109T228,681t137,29q105,0 162-63.5T584,475q0-19-1.5-37.5T577,401q-16-87-64.5-162.5t-115-136T259,0H52q92,58 164,110T338,220t76,131l-8,3q-17-27-38-51t-50.5-39T245,249Zm72,112q34,0 58,12.5t39.5,36T436,465q2,11 3.5,22t1.5,21q0,41-22,64.5T352,596q-33,0-57.5-12.5T255,548t-22-56q-2-11-3.5-21.5T228,449q0-40 22-64t67-24Z"/>
      <glyph unicode=":" glyph-name="gid72" horiz-adv-x="327" d="M112-11Q70-11 53,8T36,49q0,8 2.5,22T43,95q6,33 30.5,53.5T140,169t59-19t17-41q0-8-2.5-21.5T209,63q-6-33-30.5-53.5T112-11Zm75,367q-42,0-59,19t-17,41q0,8 2.5,22t4.5,24q6,33 30.5,53.5T215,536t59-19t17-41q0-8-2.5-21.5T284,430q-6-33-30.5-53.5T187,356Z"/>
      <glyph unicode=";" glyph-name="gid74" horiz-adv-x="327" d="M139,169q43,0 60-20t17-46q0-8-2-20.5T210,59q-7-35-26-72.5T136-86T69-147H-37Q5-114 36.5-81T88-8Q60-2 48.5,14.5T37,49q0,8 2.5,21.5T44,95q7,34 31,54t64,20Zm48,187q-42,0-59,19t-17,41q0,8 2.5,22t4.5,24q6,33 30.5,53.5T215,536t59-19t17-41q0-8-2.5-21.5T284,430q-6-33-30.5-53.5T187,356Z"/>
      <glyph unicode="&lt;" glyph-name="gid124" horiz-adv-x="600" d="M440-1L98,258l18,87L562,603L530,444L262,295l-2-7L468,138L440-1Z"/>
      <glyph unicode="=" glyph-name="gid123" horiz-adv-x="600" d="M552,363H89l23,116H575L552,363ZM506,132H43L66,248H529L506,132Z"/>
      <glyph unicode="&gt;" glyph-name="gid125" horiz-adv-x="600" d="M55-1L87,158L355,307l2,7L149,464l28,139L519,344l-18-87L55-1Z"/>
      <glyph unicode="?" glyph-name="gid90" horiz-adv-x="490" d="M286,233H149l32,153q80,8 123.5,33.5T358,488q2,7 3.5,16.5T363,524q0,33-22,48.5T289,588q-40,0-67.5-24.5T178,499L64,550q33,71 92,115.5T309,710q95,0 149-45.5T512,542q0-56-27.5-104.5t-75-82T303,309l-17-76ZM175-12q-42,0-59.5,16.5T98,46q0,5 1,12.5T104,88q7,35 31.5,55.5T205,164q42,0 59.5-16.5T282,106q0-4-0.5-12T276,64q-7-34-31.5-55T175-12Z"/>
      <glyph unicode="@" glyph-name="gid65" horiz-adv-x="891" d="M573-121H384q-100,0-173,42T98.5,38T59,211q0,26 2.5,52.5T70,320q23,115 86,202.5t157,137T523,709q91,0 165.5-38T807,562t44-169q0-20-2-40t-6-39q-13-65-46-117.5T717.5,113T618,82t-82.5,22.5T506,164q0,3 0,5.5t0,5.5h-5q-12-35-43-63T383,84q-61,0-96,38T252,233q0,15 1.5,31.5T259,299q20,99 72.5,149T444,498q44,0 67-19t30-48h4l12,58H667L615,227q-1-8-2-14.5T612,201q0-16 8.5-24.5T643,168q32,0 60,34.5T747,316l6,30q3,15 4.5,31.5T759,408q0,69-33,117t-89.5,73.5T509,624q-63,0-118.5-21t-100-59.5t-75-92T172,332l-8-40q-4-22-7-42.5T154,209q0-75 30.5-130t86-85T401-36H590l-17-85ZM424,174q21,0 39,11.5t30,28T508,245l20,100q4,18-4,32t-23.5,22.5T464,408q-35,0-55-23t-28-61l-14-70q-1-7-1.5-11.5T365,233q0-28 14-43.5T424,174Z"/>
      <glyph unicode="A" glyph-name="gid28" horiz-adv-x="658" d="M588,0H441L425,170H202L120,0H-35L324,698H509L588,0ZM415,291L403,451l-9,116h-8L333,451L259,291H415Z"/>
      <glyph unicode="B" glyph-name="gid29" horiz-adv-x="651" d="M22,0L162,698H460q76,0 125-35t49-108q0-46-15-85t-45-67t-76-41l-1-5q55-15 79.5-50.5T601,222q0-66-27-116T493.5,28T360,0H22ZM193,124H360q35,0 55.5,15.5T443,189q5,26 7,38t2,19q0,20-13,32.5T397,291H226L193,124Zm57,286H391q35,0 55.5,14T474,472q5,26 7,37t2,18q0,21-13,34t-41,13H283L250,410Z"/>
      <glyph unicode="C" glyph-name="gid30" horiz-adv-x="635" d="M306-12q-74,0-130,32T88.5,115T57,272q0,28 2.5,54.5T67,378q14,72 45.5,133T190,616.5t103,69T415,710q93,0 152-45t84-125L522,486q-12,40-37,67.5T404,581q-46,0-81-22t-58-61t-34-92L209,296q-3-15-4-27.5T204,246q0-64 28.5-96.5T319,117q59,0 94.5,29T472,221l121-55Q547,75 472,31.5T306-12Z"/>
      <glyph unicode="D" glyph-name="gid31" horiz-adv-x="682" d="M22,0L162,698H386q83,0 143-29.5T621.5,581T654,437q0-33-3-64.5T642,312q-14-69-43.5-126T524,87T420,22.5T288,0H22ZM193,128H300q45,0 81.5,18.5T444,202t37,94l19,94q4,19 5.5,36t1.5,26q0,63-30.5,90.5T395,570H282L193,128Z"/>
      <glyph unicode="E" glyph-name="gid32" horiz-adv-x="578" d="M481,0H22L162,698H611L585,570H282L251,417H519L493,289H225L193,128H507L481,0Z"/>
      <glyph unicode="F" glyph-name="gid33" horiz-adv-x="557" d="M167,0H22L162,698H599L573,570H281L250,417H507L481,289H224L167,0Z"/>
      <glyph unicode="G" glyph-name="gid34" horiz-adv-x="700" d="M460,0l22,111h-8q-26-51-73-87T283-12q-66,0-117,31.5T86,113T57,268q0,22 1.5,43.5t4.5,42T70,393q15,70 47,128t77.5,100.5t104,65.5T425,710q92,0 160.5-42.5T677,545L556,481q-12,49-49,74.5T417,581t-91-21t-61-60t-34-93L209,297q-3-15-4.5-29T203,241q0-65 34.5-94.5T318,117q43,0 79,15t60,40.5T487,230l7,34H368l24,122H656L579,0H460Z"/>
      <glyph unicode="H" glyph-name="gid35" horiz-adv-x="700" d="M427,0l58,289H225L167,0H22L162,698H307L251,417H511l56,281H712L572,0H427Z"/>
      <glyph unicode="I" glyph-name="gid36" horiz-adv-x="415" d="M314,0H-4L20,118h86l93,462H113l23,118H454L430,580H344L251,118h86L314,0Z"/>
      <glyph unicode="J" glyph-name="gid37" horiz-adv-x="536" d="M201,698H549L447,190Q429,99 371,44T215-11q-67,0-112,25.5t-69,69T5,180l139,28q4-42 19-67.5T215,115q31,0 55.5,21T305,205l75,375H177l24,118Z"/>
      <glyph unicode="K" glyph-name="gid38" horiz-adv-x="657" d="M436,0L319,299L203,179L167,0H22L162,698H307L266,494L240,364h7L357,495L545,698H721L433,398L596,0H436Z"/>
      <glyph unicode="L" glyph-name="gid39" horiz-adv-x="510" d="M423,0H22L162,698H307L193,128H449L423,0Z"/>
      <glyph unicode="M" glyph-name="gid40" horiz-adv-x="801" d="M535,0l66,327l27,134h-6L526,327L371,115L297,342L258,463h-5L229,342L160,0H22L162,698H314l64-211l37-121h4l85,121L652,698H813L673,0H535Z"/>
      <glyph unicode="N" glyph-name="gid41" horiz-adv-x="700" d="M415,0L302,336L260,475h-6L226,336L159,0H22L162,698H319L432,362l42-139h6l28,139l67,336H712L572,0H415Z"/>
      <glyph unicode="O" glyph-name="gid42" horiz-adv-x="695" d="M308-12q-67,0-124,29.5t-92,92T57,271q0,29 3,56.5T68,382q14,71 45.5,130.5t77,104t103,69T417,710q67,0 124-29.5t92-92T668,427q0-28-3-56t-8-55q-14-70-45.5-130t-77-104.5t-103-69T308-12Zm10,129q47,0 82.5,21T460,199t35,97l21,105q3,15 4,28.5t1,23.5q0,63-28.5,95.5T407,581q-46,0-82-21t-59.5-61T230,402L209,297q-3-15-4-28t-1-24q0-63 28.5-95.5T318,117Z"/>
      <glyph unicode="P" glyph-name="gid43" horiz-adv-x="637" d="M167,0H22L162,698H425q104,0 162-49t58-138q0-76-35-134t-96-90T374,255H218L167,0ZM281,570L244,383H393q34,0 59,18t32,55q3,15 5.5,26.5t4,20T495,516q0,23-15.5,38.5T431,570H281Z"/>
      <glyph unicode="Q" glyph-name="gid44" horiz-adv-x="695" d="M460-65L438-183H328q-60,0-84,23.5T220-93q0,13 2,26t5,27l8,37q-50,14-90.5,47.5t-64,90T57,271q0,29 3,56.5T68,382q14,71 45.5,130.5t77,104t103,69T417,710q67,0 124-29.5t92-92T668,427q0-28-3-56t-8-55q-13-63-39.5-118T552,100T464.5,29T360-8L349-65H460ZM407,581q-46,0-82-21t-59.5-61T230,402L209,297q-3-15-4-28t-1-24q0-63 28.5-95.5T318,117q47,0 82.5,21T460,199t35,97l21,105q3,15 4,28.5t1,23.5q0,63-28.5,95.5T407,581Z"/>
      <glyph unicode="R" glyph-name="gid45" horiz-adv-x="655" d="M219,259L167,0H22L162,698H434q100,0 155.5-47T645,518q0-52-19.5-100.5T568,332t-94-56L558,0H403L334,259H219Zm25,124H393q34,0 59,18t32,55q3,15 5.5,26.5t4,20T495,516q0,23-15.5,38.5T431,570H281L244,383Z"/>
      <glyph unicode="S" glyph-name="gid46" horiz-adv-x="586" d="M255-12q-87,0-154.5,28T-5,112l111,87q26-41 60.5-61.5T255,117q42,0 71.5,13T372,165.5T388,217q0,32-23,48.5T308,289l-46,10q-76,17-121.5,59.5T95,485q0,64 33.5,114.5T223,680t141,30q78,0 140.5-24.5T603,613L498,519q-24,33-55.5,47.5T358,581q-36,0-62.5-10.5t-40.5-29T241,498q0-30 19.5-45T316,430l44-10q80-18 129-61.5T538,233q0-45-19-88.5t-56-79T373.5,9T255-12Z"/>
      <glyph unicode="T" glyph-name="gid47" horiz-adv-x="569" d="M602,570H418L304,0H159L273,570H89l26,128H628L602,570Z"/>
      <glyph unicode="U" glyph-name="gid48" horiz-adv-x="678" d="M160,698H303L219,280q-3-13-5-31t-2-32q0-49 26-74.5T314,117q40,0 69,16t48,49.5T460,267l87,431H690L605,275q-19-98-56-161.5T453.5,19T308-12q-76,0-128.5,25.5t-80,76T72,214q0,20 2,42t7,47l79,395Z"/>
      <glyph unicode="V" glyph-name="gid49" horiz-adv-x="631" d="M344,0H181L99,698H245l26-281l17-263h7L414,417L551,698H705L344,0Z"/>
      <glyph unicode="W" glyph-name="gid50" horiz-adv-x="941" d="M302,0H130L116,698H259l-4-279L244,144h10l97,257L477,698H636l7-282l-7-282h10l87,250L851,698H997L706,0H538l-8,291V536h-9L432,312L302,0Z"/>
      <glyph unicode="X" glyph-name="gid51" horiz-adv-x="641" d="M419,347L571,0H414L315,243h-8L128,0H-40L250,369L104,698H260l95-230h8L538,698H706L419,347Z"/>
      <glyph unicode="Y" glyph-name="gid52" horiz-adv-x="624" d="M330,0H185l54,271L91,698H239l94-294h7L541,698H701L382,258L330,0Z"/>
      <glyph unicode="Z" glyph-name="gid53" horiz-adv-x="573" d="M512,128L486,0H-11L15,128L425,570H119l26,128H623L597,570L187,128H512Z"/>
      <glyph unicode="[" glyph-name="gid93" horiz-adv-x="323" d="M213-138H-5L175,760H392l-19-97H283L141-41h91l-19-97Z"/>
      <glyph unicode="\" glyph-name="gid98" horiz-adv-x="479" d="M379-151H265L148,740H262L379-151Z"/>
      <glyph unicode="]" glyph-name="gid94" horiz-adv-x="323" d="M129,760H347L167-138H-50l19,97H59L201,663H110l19,97Z"/>
      <glyph unicode="^" glyph-name="gid116" horiz-adv-x="600" d="M584,325L466,280L364,551H353L154,280L49,343L313,698H444L584,325Z"/>
      <glyph unicode="_" glyph-name="gid69" horiz-adv-x="548" d="M431-187H-62L-39-68H454L431-187Z"/>
      <glyph unicode="`" glyph-name="gid234" horiz-adv-x="585" d="M279,580L174,756l126,59l68-196l-89-39Z"/>
      <glyph unicode="a" glyph-name="gid1" horiz-adv-x="591" d="M523,0H430q-37,0-62.5,20T342,77q0,8 1,17t2,13l3,15h-6q-31-64-70-99T171-12q-49,0-80,23.5t-45.5,65T31,170q0,32 3,60.5T42,286q16,78 50,134t81.5,86.5T275,537q55,0 90.5-30T406,434h5l18,91H569L486,112h59L523,0ZM240,103q27,0 49,14.5T327,151q17,20 29.5,47.5T375,255l16,80q5,25-4,44.5t-29,31T309,422q-46,0-74.5-29T194,305l-14-70q-2-10-4-27.5T174,178q0-23 8-40t23-26t35-9Z"/>
      <glyph unicode="b" glyph-name="gid2" horiz-adv-x="583" d="M14,0L162,740H302L235,403h6q31,64 70.5,99T412,537q49,0 80-23.5T537.5,449T552,355q0-34-3.5-65.5T539,229q-16-75-50.5-129T408,17T308-12q-55,0-90.5,30T177,91h-5L154,0H14ZM274,103q47,0 75,29t40,88l14,70q2,11 4,28t2,29q0,24-8,40.5T378.5,413T343,422q-27,0-49-14t-38-34t-29-47.5T208,270l-16-80q-5-26 3.5-46t29-30.5T274,103Z"/>
      <glyph unicode="c" glyph-name="gid3" horiz-adv-x="494" d="M237-12q-57,0-103.5,23T59,84T31,215q0,21 2,41.5T39,296q15,72 53,126.5T186.5,507T310,537q75,0 126.5-37T498,401L380,356q-9,31-24.5,49.5T302,424q-44,0-71-27t-38-83l-18-89q-2-10-3.5-20.5T170,183q0-24 8.5-42.5t26-29T249,101q41,0 61.5,23T353,184l107-50Q426,61 369,24.5T237-12Z"/>
      <glyph unicode="d" glyph-name="gid4" horiz-adv-x="591" d="M523,0H430q-37,0-62.5,20T342,77q0,8 1,17t2,13l3,15h-6q-31-64-70-99T171-12q-49,0-80,23.5t-45.5,65T31,170q0,34 3.5,66T44,296q17,75 51,129t80.5,83T275,537q55,0 90.5-30T406,434h5l61,306H612L486,112h59L523,0ZM240,103q27,0 49,14.5T327,151q17,20 29.5,47.5T375,255l16,80q6,27-3,46.5t-29.5,30T309,422q-46,0-74.5-29T194,305l-14-70q-2-10-4-27.5T174,178q0-23 8-40t23-26t35-9Z"/>
      <glyph unicode="e" glyph-name="gid5" horiz-adv-x="515" d="M253-12Q141-12 86,49T31,214q0,19 1.5,37T38,287q14,69 51.5,125.5t95,90.5T316,537q30,0 62.5-7t61-23.5T486,462t18-71q0-32-12-59.5T455,282t-64.5-37.5t-93.5-25T172,208q-1-9-1.5-14t-0.5-9q0-37 20.5-60.5T263,101q35,0 64,14.5T391,174l86-68Q428,42 374.5,15T253-12Zm55,442q-29,0-53.5-13.5t-41-38T191,320l-4-23q56,3 91.5,10t55,17.5t27,23.5t7.5,29q0,34-20.5,43.5T308,430Z"/>
      <glyph unicode="f" glyph-name="gid6" horiz-adv-x="353" d="M273,413L181-50q-15-74-62.5-112T-11-200H-87L-63-88H33L133,413H64L86,525h69l13,65q15,74 62.5,112T360,740h76L412,628H316L296,525H398L376,413H273Z"/>
      <glyph unicode="g" glyph-name="gid7" horiz-adv-x="535" d="M497-22q0-34-14-67.5T435.5-151T343-195.5T193-212q-88,0-136,15.5t-67.5,42T-30-96q0,49 33,73.5T85,13v7Q57,26 41.5,47T26,96q0,44 35.5,70.5T141,202l1,7q-37,19-56.5,52T66,340q0,49 25.5,94T171,508t140,29q26,0 48.5-3.5T401,524l5,23q8,41 30,59.5T494,625h79L551,517H444l-3-13q31-19 47.5-50.5T505,381q0-48-25.5-93.5T400,213T260,184q-22,0-42.5,2.5T179,194q-16-7-27-20t-11-29t12.5-24.5T194,112H323q87,0 130.5-34T497-22ZM357-52q0,21-15,32T286-9H113Q98-20 92-35.5T86-64q0-16 9-27.5t28.5-18T176-116h65q44,0 69.5,8.5t36,23.5T357-52ZM272,280q41,0 64.5,19T367,352q3,15 3.5,22t0.5,11q0,27-17.5,41.5T298,441q-41,0-64.5-18.5T203,369q-3-15-3.5-22T199,336q0-27 18-41.5T272,280Z"/>
      <glyph unicode="h" glyph-name="gid9" horiz-adv-x="588" d="M14,0L162,740H302L235,403h6q30,63 71.5,98.5T415,537t93.5-35.5T541,401q0-19-2.5-36.5T532,327L489,112h53L520,0H429q-40,0-62,20.5T345,76q0,9 1,16.5t2,11.5l41,208q3,14 5,27.5t2,28.5q0,23-12,37.5T343,420q-25,0-46.5-14T258,372q-18-21-31-46.5T208,270L154,0H14Z"/>
      <glyph unicode="i" glyph-name="gid10" horiz-adv-x="281" d="M202,583q-37,0-54.5,14T130,635q0,9 2,20t4,20q7,26 26.5,49T232,747q37,0 54.5-14T304,695q0-9-2-20t-4-20q-7-26-26.5-49T202,583ZM213,0H122Q82,0 57,22T32,80q0,6 1,12t2,13l84,420H259L176,112h59L213,0Z"/>
      <glyph unicode="j" glyph-name="gid11" horiz-adv-x="276" d="M0-88L123,525H263L144-61q-13-68-51-103.5T-18-200H-97L-75-88H0ZM206,583q-37,0-54.5,14T134,635q0,9 2,20t4,20q7,26 26.5,49T236,747q37,0 54.5-14T308,695q0-9-2-20t-4-20q-7-26-26.5-49T206,583Z"/>
      <glyph unicode="k" glyph-name="gid12" horiz-adv-x="550" d="M14,0L162,740H302L233,395l-18-90h7l72,90L420,525H583L370,312l72-200h61L479,0H404q-37,0-61.5,19.5T305,79L261,216l-79-74L154,0H14Z"/>
      <glyph unicode="l" glyph-name="gid13" horiz-adv-x="281" d="M216,0H122Q82,0 57,22T32,80q0,6 1,12t2,13L162,740H302L176,112h62L216,0Z"/>
      <glyph unicode="m" glyph-name="gid14" horiz-adv-x="877" d="M154,0H14L119,525H259L235,403h6q29,62 69,98t100,36q59,0 90-35.5T532,403h5q29,59 70,96.5T711,537q58,0 88.5-35.5T830,404q0-23-3.5-45.5T818,313L778,112h53L809,0H718q-40,0-62,20.5T634,76q0,9 1,16.5t2,11.5l41,208q3,14 5.5,28t2.5,27q0,24-10.5,38.5T642,420t-44-13.5T560,373q-16-20-29.5-48T512,270L458,0H318l62,312q3,14 5,28t2,26q0,25-10.5,39.5T340,420q-25,0-46-13.5T256,372t-29.5-46.5T208,270L154,0Z"/>
      <glyph unicode="n" glyph-name="gid15" horiz-adv-x="588" d="M154,0H14L119,525H259L235,403h6q30,63 71.5,98.5T415,537t93.5-35.5T541,401q0-19-2.5-36.5T532,327L489,112h53L520,0H429q-40,0-62,20.5T345,76q0,9 1,16.5t2,11.5l41,208q3,14 5,27.5t2,28.5q0,23-12,37.5T343,420q-25,0-46.5-14T258,372q-18-21-31-46.5T208,270L154,0Z"/>
      <glyph unicode="o" glyph-name="gid16" horiz-adv-x="542" d="M240-12q-64,0-111,26T56.5,89T31,207q0,23 2,44t6,41q15,73 52,128t91,86t120,31q64,0 111-26t72.5-75T511,318q0-22-2-43.5T503,233q-14-72-51.5-127.5T360,19T240-12Zm5,113q40,0 67,29.5T350,216l19,94q1,5 2,13t1,18q0,25-8.5,43.5t-25,29T297,424q-40,0-67-29.5T192,309l-19-94q-1-4-2-12.5T170,184q0-25 8.5-43.5t25.5-29T245,101Z"/>
      <glyph unicode="p" glyph-name="gid17" horiz-adv-x="583" d="M-26-200L119,525H259L235,403h6q31,64 70.5,99T412,537q49,0 80-23.5T537.5,449T552,355q0-31-3-60.5T541,238q-15-77-49.5-133.5T410,18T308-12T217.5,18T177,91h-5L114-200H-26ZM274,103q47,0 75,29t40,88l14,70q2,11 4,28t2,29q0,24-8,40.5T378.5,413T343,422q-27,0-49-14t-38-34t-29-47.5T208,270l-16-80q-5-26 3.5-46t29-30.5T274,103Z"/>
      <glyph unicode="q" glyph-name="gid18" horiz-adv-x="583" d="M284-200l64,322h-6q-31-64-70-99T171-12q-49,0-80,23.5t-45.5,65T31,170q0,32 3,61t8,56q16,78 50,134t81.5,86T275,537q55,0 90.5-30T406,434h5l18,91H569L424-200H284ZM240,103q27,0 49,14.5T327,151q17,20 29.5,47.5T375,255l16,80q6,27-3,46.5t-29.5,30T309,422q-46,0-74.5-29T194,305l-14-70q-2-10-4-27.5T174,178q0-23 8-40t23-26t35-9Z"/>
      <glyph unicode="r" glyph-name="gid19" horiz-adv-x="394" d="M154,0H14L119,525H259L233,394h7q11,29 32.5,59t53,51T397,525h25L394,389H359q-44,0-74.5-10.5t-48.5-35T209,276L154,0Z"/>
      <glyph unicode="s" glyph-name="gid20" horiz-adv-x="497" d="M213-12Q147-12 92,11T2,80l88,82q22-29 52-45.5T216,100q49,0 69.5,18T306,158q0,15-10.5,27T257,201l-53,7q-45,6-76,23.5T80.5,278T64,349q0,50 23.5,92.5t72,69T282,537q61,0 111-20.5T477,454l-88-82q-19,24-48.5,38.5T276,425t-55.5-15.5T200,370q0-15 10.5-27T249,327l53-7q45-6 76.5-23.5T426,250t16-70q0-51-26-94.5T339,15T213-12Z"/>
      <glyph unicode="t" glyph-name="gid21" horiz-adv-x="354" d="M270,0H182Q121,0 90,25T59,99q0,8 1,20t3,23l54,271H43L65,525h36q32,0 43,13t16,40l18,89H308L280,525H385L362,413H257L197,112h95L270,0Z"/>
      <glyph unicode="u" glyph-name="gid22" horiz-adv-x="582" d="M114,525H254L192,213q-3-14-5-28t-2-25q0-25 12-40t37-15q26,0 46.5,13.5T318,153t29.5,46.5T366,255l54,270H560L477,112h59L514,0H421q-37,0-62.5,20T333,77q0,8 1,17t2,13l3,15h-6q-29-61-69-97.5T164-12q-59,0-91.5,36T40,124q0,20 2.5,38T49,200l65,325Z"/>
      <glyph unicode="v" glyph-name="gid23" horiz-adv-x="512" d="M281,0H111L46,525H185l17-198l15-202h7l88,202l93,198H554L281,0Z"/>
      <glyph unicode="w" glyph-name="gid24" horiz-adv-x="791" d="M94,0L54,525H193l7-190l3-178h6l65,152l98,216H502l14-190l11-185h6l62,159l90,216H823L583,0H436L421,175L408,349h-6L334,198L243,0H94Z"/>
      <glyph unicode="x" glyph-name="gid25" horiz-adv-x="518" d="M102,0H-51L177,274L65,525H216l62-175h6L414,525H567L338,252L453,0H302L238,172h-6L102,0Z"/>
      <glyph unicode="y" glyph-name="gid26" horiz-adv-x="509" d="M314,327l94,198H557L235-85q-31-58-71-86.5T49-200H-29L-6-88H91l28,58L45,525H184l20-198l16-196h6l88,196Z"/>
      <glyph unicode="z" glyph-name="gid27" horiz-adv-x="492" d="M414,0H-11L11,112L317,413H76L98,525H507L485,413L178,112H436L414,0Z"/>
      <glyph unicode="{" glyph-name="gid95" horiz-adv-x="361" d="M246-138H138q-36,0-58.5,19.5T57-63q0,6 0.5,13T59-39L97,151q2,8 2.5,15.5T100,181q0,37-19,55.5T23,255L46,368q45,0 74,21.5T158,456l41,205q10,49 39.5,74T309,760H426L405,656H328L284,436q-6-30-21-57.5T222,333t-66-20v-4q34-7 57.5-32.5T237,211q0-7-1-14.5T233,181L190-34h77L246-138Z"/>
      <glyph unicode="|" glyph-name="gid102" horiz-adv-x="395" d="M180-138H54L234,760H360L180-138Z"/>
      <glyph unicode="}" glyph-name="gid96" horiz-adv-x="361" d="M-47-138L-26-34H51L95,186q6,30 21,57.5T157.5,289T223,309v4q-34,7-57.5,32.5T142,411q0,7 1.5,15t2.5,15l43,215H112l21,104H241q36,0 58.5-19.5T322,685q0-6-0.5-13T320,661L282,471q-1-7-2-14.5T279,441q0-37 19-55.5T356,367L333,254q-45,0-74-21.5T221,166L180-39q-10-49-39.5-74T70-138H-47Z"/>
      <glyph unicode="~" glyph-name="gid117" horiz-adv-x="600" d="M400,211q-41,0-65.5,11.5T281,250q-25,14-48.5,24T179,284q-22,0-40.5-7T96,255L59,342q21,23 56,40.5T200,400q41,0 66-11.5T319,361q25-13 48.5-23.5T421,327q23,0 41,7t42,22l37-87q-21-23-56-40.5T400,211Z"/>
      <glyph unicode="&#xa0;" glyph-name="gid262" horiz-adv-x="236"/>
      <glyph unicode="&#xa1;" glyph-name="gid87" horiz-adv-x="314" d="M147-173H-9L30,21L132,305h63L186,21L147-173Zm28,534q-42,0-59.5,16.5T98,419q0,5 1,12.5t5,29.5q7,35 31.5,55.5T205,537q42,0 59.5-16.5T282,479q0-4-0.5-12T276,437q-7-34-31.5-55T175,361Z"/>
      <glyph unicode="&#xa2;" glyph-name="gid130" horiz-adv-x="532" d="M160-114L182-4Q115,14 74,72.5T33,222q0,17 1.5,32.5T39,286q12,61 44.5,111.5T168,482t119,43l21,105H418L396,521q51-13 85-45.5T527,399L419,346q-5,22-18.5,39.5T365,412L303,103q27,9 49.5,28T391,173l92-59q-33-48-80-80T291-8L270-114H160Zm8,300q0-28 11.5-48.5T213,106l61,304q-33-13-55-40.5T189,303l-18-90q-1-7-2-13.5T168,186Z"/>
      <glyph unicode="&#xa3;" glyph-name="gid132" horiz-adv-x="591" d="M503,0H30L57,134q24,10 42.5,26T131,196t20.5,43.5T159,288q0,1 0,1.5t0,1.5H56L80,408h64q-1,11-2,22.5T141,455q0,71 33.5,129t94,92T410,710q79,0 130.5-30T627,590L512,514q-19,37-45.5,52.5T399,582q-36,0-61.5-16.5t-39-47T285,447q0-10 1-20t2-19H479L455,291H304q0-1 0-1.5t0-1.5q0-36-15.5-67T250,167.5T205,134l-2-9H528L503,0Z"/>
      <glyph unicode="&#xa4;" glyph-name="gid129" horiz-adv-x="624" d="M293,108q-39,0-70.5,7.5T166,137L53,43l-69,87L93,222q-6,17-9,35t-3,38q0,17 2,34.5T88,362q6,31 19,64.5T139,485L62,580l91,74l75-93q29,15 63,22t71,7q39,0 70.5-7.5T489,561l113,94l69-87L562,476q6-16 9-34.5t3-38.5q0-17-2-34.5T567,336q-6-31-18.5-64T516,213l77-95L502,44l-75,93q-29-15-62.5-22T293,108Zm7,105q47,0 78,29.5T419,321l11,56q2,8 3,17.5t1,18.5q0,32-20.5,52T355,485q-46,0-77.5-29T236,377l-11-56q-1-8-2.5-17.5T221,285q0-32 20.5-52T300,213Z"/>
      <glyph unicode="&#xa5;" glyph-name="gid134" horiz-adv-x="626" d="M524,134H360L333,0H187l26,134H52l18,88H231l14,71H84l18,88H207L108,698H263l79-272h4L530,698H698L469,381H574l-18-88H392l-14-71H542l-18-88Z"/>
      <glyph unicode="&#xa6;" glyph-name="gid103" horiz-adv-x="395" d="M288,401H162l72,359H360L288,401ZM180-138H54l72,359H252L180-138Z"/>
      <glyph unicode="&#xa7;" glyph-name="gid104" horiz-adv-x="557" d="M511,318q0-52-30.5-93.5T382,162l-2-10q29-22 42-50.5T435,38q0-58-29-103t-80-70.5T208-161q-57,0-109.5,17.5T13-86L95-4q20-26 50-40.5T221-59q26,0 46,10t31.5,27T310,15q0,28-17.5,42.5T240,82l-69,21q-63,20-90.5,56T53,236q0,52 31,93t98,63l2,10q-28,23-41.5,50.5T129,514q0,58 29,102t80,69t118,25q57,0 109-18t86-59l-82-80q-20,26-50,40.5T343,608q-25,0-45.5-9t-32-24.5T254,539q0-26 18-40.5T324,473l69-21q63-19 90.5-56T511,318ZM390,270q0,24-14.5,44T326,346l-69,20q-11,4-19,6.5T224,379q-28-22-39-45.5T174,284q0-24 14.5-44T238,208l69-20q11-4 19-6.5t14-6.5q29,22 39.5,45.5T390,270Z"/>
      <glyph unicode="&#xa8;" glyph-name="gid231" horiz-adv-x="585" d="M207,600q-35,0-50,14t-15,34q0,5 1.5,14t4.5,26q5,26 24.5,44.5T233,751q35,0 50-14t15-34q0-5-1.5-14T292,663q-4-25-24-44t-61-19Zm200,0q-35,0-50,14t-15,34q0,5 1.5,14t4.5,26q5,26 24.5,44.5T433,751q35,0 50-14t15-34q0-5-1.5-14T492,663q-4-25-24-44t-61-19Z"/>
      <glyph unicode="&#xa9;" glyph-name="gid106" horiz-adv-x="771" d="M353,51q75,0 139,33t107.5,89T656,297q7,32 11,60.5t4,47.5q0,74-28.5,128.5t-79,84T448,647q-74,0-138.5-33t-108-89T145,401q-7-32-11-60.5T130,293q0-74 28.5-128.5t79-84T353,51Zm-4-63q-87,0-152.5,39T94.5,134.5T58,293q0,23 2,45t6,43q18,97 72,171T273,668t179,42q88,0 153-38.5T706.5,564T743,405q0-22-2-44.5T735,317q-18-96-72-170.5T528,30T349-12Zm33,146q-80,0-129,49T204,313q0,14 1.5,28.5T210,369q12,54 43,98t76.5,70.5T429,564q75,0 112.5-32T595,450l-99-44q-6,26-21.5,41.5T430,463q-34,0-54-19.5T350,394l-15-77q-1-7-1.5-13T333,292q0-25 17-41.5T398,234q28,0 47.5,16.5T480,290l90-46q-25-43-70.5-76.5T382,134Z"/>
      <glyph unicode="&#xaa;" glyph-name="gid109" horiz-adv-x="444" d="M430,404l-15-74H356q-28,0-44,14t-16,40q0,4 0,8t0,8v28l31-34H292q-16-34-44.5-52T181,324q-42,0-72.5,25T78,420q0,58 43.5,91T250,544h65l4,20q2,8 2.5,11.5T322,583q0,22-13.5,34T267,629q-31,0-50-13t-38-33l-57,48q26,32 64,52.5T282,704q63,0 104-26.5T427,598q0-7-0.5-14T424,569L391,404h39ZM304,489H247q-28,0-44.5-10.5T181,445q-1-7-1.5-13t-0.5-8q0-16 13-24.5t33-8.5q26,0 45.5,14.5T295,446l9,43Z"/>
      <glyph unicode="&#xab;" glyph-name="gid85" horiz-adv-x="562" d="M247,132L190,49L34,209L60,337L263,494l41-93L154,264v-2l93-130Zm250,0L440,49L284,209l26,128L513,494l41-93L404,264v-2l93-130Z"/>
      <glyph unicode="&#xac;" glyph-name="gid128" horiz-adv-x="600" d="M477,79H358l34,169H66L89,364H534L477,79Z"/>
      <glyph unicode="&#xad;" glyph-name="gid265" horiz-adv-x="0"/>
      <glyph unicode="&#xae;" glyph-name="gid107" horiz-adv-x="453" d="M246,298q-54,0-94,22T89.5,381.5T67,471q0,53 18.5,96.5T136,643t73.5,49.5T298,710q54,0 94.5-22T455,627t22-90q0-53-18.5-96.5T408,365t-73.5-49.5T246,298Zm6,44q38,0 73,16.5t60,47T418,478q6,30 7.5,43.5T427,542q0,60-38,92t-97,32q-38,0-73-16.5T159.5,603T126,530q-6-30-7.5-43T117,466q0-60 38.5-92T252,342ZM242,463l-12-63H168l42,209h89q41,0 59-18.5T376,543q0-21-14-41.5T321,473l28-73H285l-24,63H242Zm9,43h26q14,0 22.5,6T310,529q1,4 1.5,7.5T312,542q0,21-25,21H262l-11-57Z"/>
      <glyph unicode="&#xaf;" glyph-name="gid230" horiz-adv-x="585" d="M171,625l20,102H469L449,625H171Z"/>
      <glyph unicode="&#xb0;" glyph-name="gid111" horiz-adv-x="459" d="M263,334q-49,0-87,22.5T117,418T96,505q0,59 27.5,105.5t74,73T301,710q50,0 87.5-22.5t58.5-61T468,539q0-59-27.5-105.5t-74-73T263,334Zm10,92q28,0 49,15t33,40.5T367,538q0,34-20.5,57T291,618q-27,0-48.5-15T209,562.5T197,506q0-34 20.5-57T273,426Z"/>
      <glyph unicode="&#xb1;" glyph-name="gid120" horiz-adv-x="600" d="M346,184H221l33,167H85l23,116H277l33,167H435L402,467H571L548,351H379L346,184ZM479,0H16L39,116H502L479,0Z"/>
      <glyph unicode="&#xb2;" glyph-name="gid206" horiz-adv-x="340" d="M334,408l-16-79H37l17,85l140,91q38,24 51.5,39T263,578q1,4 1,6t0,4q0,17-11.5,26T224,623q-25,0-39.5-15T163,576L81,607q20,40 56,68.5T232,704q58,0 96-28t38-78q0-32-14.5-57T309,494t-70-46l-69-40H334Z"/>
      <glyph unicode="&#xb3;" glyph-name="gid207" horiz-adv-x="332" d="M159,556h36q30,0 45,9t17,20q1,4 1.5,7.5T259,599q0,13-12,21t-32,8t-38.5-10T138,585L86,645q28,28 61,43.5T229,704q63,0 97-24.5T360,614q0-34-22.5-59T270,522v-2q31-7 47.5-26T334,446q0-53-43-88T171,323q-61,0-92.5,22T34,396l69,49q8-20 24.5-33T172,399q21,0 37.5,9T230,436q1,4 1.5,7.5T232,450q0,14-12,21.5T184,479H144l15,77Z"/>
      <glyph unicode="&#xb4;" glyph-name="gid233" horiz-adv-x="585" d="M468,755L321,579l-84,46L356,815l112-60Z"/>
      <glyph unicode="&#xb5;" glyph-name="gid203" horiz-adv-x="587" d="M114-200H-26L119,525H259L197,215q-3-14-5-29t-2-26q0-25 12-40t37-15q26,0 46.5,13.5T323,153t29.5,46.5T371,255l54,270H565L482,112h59L519,0H426q-37,0-62.5,20T338,77q0,8 1,17t2,13l3,15h-6Q302,46 270,17T197-12q-25,0-41.5,14.5T133,44h-5l5-147l-19-97Z"/>
      <glyph unicode="&#xb6;" glyph-name="gid105" horiz-adv-x="646" d="M142-149l83,412q-45,0-81.5,26t-58,69.5T64,453q0,65 32.5,121t92,90T327,698H673L652,594H592L443-149H340L489,594H394L245-149H142Z"/>
      <glyph unicode="&#xb7;" glyph-name="gid126" horiz-adv-x="350" d="M169,213q-42,0-59,19T93,273q0,8 2.5,22t4.5,24q6,33 30.5,53.5T197,393t59-19t17-41q0-8-2.5-21.5T266,287q-6-33-30.5-53.5T169,213Z"/>
      <glyph unicode="&#xb8;" glyph-name="gid240" horiz-adv-x="585" d="M269-212q-41,0-69.5,13.5T158-166l52,52q6-9 21-18.5t37-9.5q21,0 35.5,7.5T318-111q0,12-14,22T252-75l-22,2L274,30h66L306-55l2-4q12,4 22.5,5.5T351-52q26,0 44-15t18-41q0-52-42-78T269-212Z"/>
      <glyph unicode="&#xb9;" glyph-name="gid205" horiz-adv-x="344" d="M317,329H67l15,76h81l44,220h-6l-72-83L70,591l92,107H318L259,405h73l-15-76Z"/>
      <glyph unicode="&#xba;" glyph-name="gid110" horiz-adv-x="427" d="M235,324q-67,0-109,42.5T84,485q0,13 1.5,26T89,536q10,47 37,85t69.5,60.5T293,704q68,0 109.5-42.5T444,543q0-13-1.5-26T439,492q-9-47-36.5-85T333,346.5T235,324Zm10,77q32,0 54,22.5T329,487l12,61q2,8 2,12.5t0,8.5q0,28-17,43t-43,15q-31,0-53.5-22.5T199,541l-12-61q-1-7-1.5-12t-0.5-9q0-28 17-43t43-15Z"/>
      <glyph unicode="&#xbb;" glyph-name="gid86" horiz-adv-x="562" d="M52,50L11,143L161,280v2L68,412l57,83L281,335L255,207L52,50Zm250,0l-41,93L411,280v2L318,412l57,83L531,335L505,207L302,50Z"/>
      <glyph unicode="&#xbc;" glyph-name="gid225" horiz-adv-x="891" d="M317,329H67l15,76h81l44,220h-6l-72-83L70,591l92,107H318L259,405h73l-15-76ZM77,0L734,698H848L191,0H77ZM722,0H629l14,70H473l18,81L685,369H797L751,141h45L780,70H736L722,0ZM658,141l24,117h-7L569,141h89Z"/>
      <glyph unicode="&#xbd;" glyph-name="gid224" horiz-adv-x="888" d="M317,329H67l15,76h81l44,220h-6l-72-83L70,591l92,107H318L259,405h73l-15-76ZM77,0L734,698H848L191,0H77ZM810,79L794,0H513l17,85l140,91q38,24 51.5,39T739,249q1,4 1,6t0,4q0,17-11.5,26T700,294q-25,0-39.5-15T639,247l-82,31q20,40 56,68.5T708,375q58,0 96-28t38-78q0-32-14.5-57T785,165t-70-46L646,79H810Z"/>
      <glyph unicode="&#xbe;" glyph-name="gid226" horiz-adv-x="869" d="M159,556h36q30,0 45,9t17,20q1,4 1.5,7.5T259,599q0,13-12,21t-32,8t-38.5-10T138,585L86,645q28,28 61,43.5T229,704q63,0 97-24.5T360,614q0-34-22.5-59T270,522v-2q31-7 47.5-26T334,446q0-53-43-88T171,323q-61,0-92.5,22T34,396l69,49q8-20 24.5-33T172,399q21,0 37.5,9T230,436q1,4 1.5,7.5T232,450q0,14-12,21.5T184,479H144l15,77ZM55,0L712,698H826L169,0H55ZM700,0H607l14,70H451l18,81L663,369H775L729,141h45L758,70H714L700,0ZM636,141l24,117h-7L547,141h89Z"/>
      <glyph unicode="&#xbf;" glyph-name="gid89" horiz-adv-x="490" d="M185-185q-95,0-149,46T-18-17Q-18,39 9.5,87.5t75,82.5T191,216l17,76H345L313,139q-80-7-123-32.5T136,37q-1-7-3-16.5T131,1q0-33 22-48.5T205-63q40,0 67.5,24.5T316,26L430-25q-33-71-91.5-115.5T185-185ZM288,361q-42,0-59.5,16.5T211,419q0,5 1,12.5t5,29.5q7,35 31.5,55.5T318,537q42,0 59.5-16.5T395,479q0-4-0.5-12T389,437q-7-34-31.5-55T288,361Z"/>
      <glyph unicode="&#xc0;" glyph-name="gid174" horiz-adv-x="658" d="M588,0H441L425,170H202L120,0H-35L324,698H509L588,0ZM415,291L403,451l-9,116h-8L333,451L259,291H415ZM397,740L292,916l126,59l68-196l-89-39Z"/>
      <glyph unicode="&#xc1;" glyph-name="gid171" horiz-adv-x="658" d="M588,0H441L425,170H202L120,0H-35L324,698H509L588,0ZM415,291L403,451l-9,116h-8L333,451L259,291H415ZM586,915L439,739l-84,46L474,975l112-60Z"/>
      <glyph unicode="&#xc2;" glyph-name="gid172" horiz-adv-x="658" d="M588,0H441L425,170H202L120,0H-35L324,698H509L588,0ZM415,291L403,451l-9,116h-8L333,451L259,291H415ZM392,954H514L614,796l-75-57L440,854L306,739l-70,57L392,954Z"/>
      <glyph unicode="&#xc3;" glyph-name="gid176" horiz-adv-x="658" d="M588,0H441L425,170H202L120,0H-35L324,698H509L588,0ZM415,291L403,451l-9,116h-8L333,451L259,291H415Zm90,470q-22,0-39,6t-37,15q-19,9-35.5,15.5T357,804q-17,0-29-6t-29-19l-43,69q23,29 51.5,45.5T371,910q22,0 39.5-6T447,889t36-15.5t36-6.5q17,0 29.5,6T577,892l43-69q-22-28-51-45t-64-17Z"/>
      <glyph unicode="&#xc4;" glyph-name="gid173" horiz-adv-x="658" d="M588,0H441L425,170H202L120,0H-35L324,698H509L588,0ZM415,291L403,451l-9,116h-8L333,451L259,291H415ZM325,760q-34,0-49.5,14.5T260,809q0,5 1.5,13t4.5,26q5,26 24.5,44.5T351,911q35,0 50-14.5T416,862q0-5-1.5-13T410,823q-4-25-24-44t-61-19Zm200,0q-34,0-49.5,14.5T460,809q0,5 1.5,13t4.5,26q5,26 24.5,44.5T551,911q35,0 50-14.5T616,862q0-5-1.5-13T610,823q-4-25-24-44t-61-19Z"/>
      <glyph unicode="&#xc5;" glyph-name="gid175" horiz-adv-x="658" d="M588,0H441L425,170H202L120,0H-35L324,698H509L588,0ZM415,291L403,451l-9,116h-8L333,451L259,291H415Zm1,428q-55,0-91.5,35T288,841q0,50 22.5,87T371,985t82,20q56,0 92-34.5T581,883q0-50-22.5-87t-60-57T416,719Zm6,74q23,0 38.5,14T480,845q4,19 6,28.5t2,18.5q0,19-10,29t-31,10q-23,0-38-14t-20-38q-4-19-6-28.5T381,832q0-19 10-29t31-10Z"/>
      <glyph unicode="&#xc6;" glyph-name="gid177" horiz-adv-x="920" d="M364,0l34,169H201L100,0H-56L388,698H953L927,570H624L593,417H861L835,289H567L535,128H849L823,0H364ZM478,570H449L278,291H422l56,279Z"/>
      <glyph unicode="&#xc7;" glyph-name="gid178" horiz-adv-x="635" d="M411-108q0-52-42-78T267-212q-41,0-69.5,13.5T156-166l52,52q6-9 21-18.5t37-9.5q21,0 35.5,7.5T316-111q0,12-14,22T250-75l-22,2L255-8Q195,2 150.5,36.5T81.5,130T57,272q0,28 2.5,54.5T67,378q14,72 45.5,133T190,616.5t103,69T415,710q93,0 152-45t84-125L522,486q-12,40-37,67.5T404,581q-46,0-81-22t-58-61t-34-92L209,296q-3-15-4-27.5T204,246q0-64 28.5-96.5T319,117q59,0 94.5,29T472,221l121-55Q549,79 478,35.5T321-12L304-55l2-4q12,4 22.5,5.5T349-52q26,0 44-15t18-41Z"/>
      <glyph unicode="&#xc8;" glyph-name="gid184" horiz-adv-x="578" d="M481,0H22L162,698H611L585,570H282L251,417H519L493,289H225L193,128H507L481,0ZM372,740L267,916l126,59l68-196l-89-39Z"/>
      <glyph unicode="&#xc9;" glyph-name="gid181" horiz-adv-x="578" d="M481,0H22L162,698H611L585,570H282L251,417H519L493,289H225L193,128H507L481,0Zm80,915L414,739l-84,46L449,975l112-60Z"/>
      <glyph unicode="&#xca;" glyph-name="gid182" horiz-adv-x="578" d="M481,0H22L162,698H611L585,570H282L251,417H519L493,289H225L193,128H507L481,0ZM367,954H489L589,796l-75-57L415,854L281,739l-70,57L367,954Z"/>
      <glyph unicode="&#xcb;" glyph-name="gid183" horiz-adv-x="578" d="M481,0H22L162,698H611L585,570H282L251,417H519L493,289H225L193,128H507L481,0ZM300,760q-34,0-49.5,14.5T235,809q0,5 1.5,13t4.5,26q5,26 24.5,44.5T326,911q35,0 50-14.5T391,862q0-5-1.5-13T385,823q-4-25-24-44t-61-19Zm200,0q-34,0-49.5,14.5T435,809q0,5 1.5,13t4.5,26q5,26 24.5,44.5T526,911q35,0 50-14.5T591,862q0-5-1.5-13T585,823q-4-25-24-44t-61-19Z"/>
      <glyph unicode="&#xcc;" glyph-name="gid188" horiz-adv-x="415" d="M314,0H-4L20,118h86l93,462H113l23,118H454L430,580H344L251,118h86L314,0ZM281,740L176,916l126,59l68-196l-89-39Z"/>
      <glyph unicode="&#xcd;" glyph-name="gid185" horiz-adv-x="415" d="M314,0H-4L20,118h86l93,462H113l23,118H454L430,580H344L251,118h86L314,0ZM470,915L323,739l-84,46L358,975l112-60Z"/>
      <glyph unicode="&#xce;" glyph-name="gid186" horiz-adv-x="415" d="M314,0H-4L20,118h86l93,462H113l23,118H454L430,580H344L251,118h86L314,0ZM276,954H398L498,796l-75-57L324,854L190,739l-70,57L276,954Z"/>
      <glyph unicode="&#xcf;" glyph-name="gid187" horiz-adv-x="415" d="M314,0H-4L20,118h86l93,462H113l23,118H454L430,580H344L251,118h86L314,0ZM209,760q-34,0-49.5,14.5T144,809q0,5 1.5,13t4.5,26q5,26 24.5,44.5T235,911q35,0 50-14.5T300,862q0-5-1.5-13T294,823q-4-25-24-44t-61-19Zm200,0q-34,0-49.5,14.5T344,809q0,5 1.5,13t4.5,26q5,26 24.5,44.5T435,911q35,0 50-14.5T500,862q0-5-1.5-13T494,823q-4-25-24-44t-61-19Z"/>
      <glyph unicode="&#xd0;" glyph-name="gid180" horiz-adv-x="687" d="M27,0L88,298H10L33,410h76l58,288H391q83,0 143-29.5T626.5,581T659,437q0-33-3-64.5T647,312q-14-69-43.5-126T529,87T425,22.5T293,0H27ZM198,128H305q45,0 81.5,18.5T449,202t37,94l19,94q4,19 5.5,36t1.5,26q0,63-30.5,90.5T400,570H286L254,410H367L344,298H231L198,128Z"/>
      <glyph unicode="&#xd1;" glyph-name="gid189" horiz-adv-x="700" d="M415,0L302,336L260,475h-6L226,336L159,0H22L162,698H319L432,362l42-139h6l28,139l67,336H712L572,0H415ZM530,761q-22,0-39,6t-37,15q-19,9-35.5,15.5T382,804q-17,0-29-6t-29-19l-43,69q23,29 51.5,45.5T396,910q22,0 39.5-6T472,889t36-15.5t36-6.5q17,0 29.5,6T602,892l43-69q-22-28-51-45t-64-17Z"/>
      <glyph unicode="&#xd2;" glyph-name="gid193" horiz-adv-x="695" d="M308-12q-67,0-124,29.5t-92,92T57,271q0,29 3,56.5T68,382q14,71 45.5,130.5t77,104t103,69T417,710q67,0 124-29.5t92-92T668,427q0-28-3-56t-8-55q-14-70-45.5-130t-77-104.5t-103-69T308-12Zm10,129q47,0 82.5,21T460,199t35,97l21,105q3,15 4,28.5t1,23.5q0,63-28.5,95.5T407,581q-46,0-82-21t-59.5-61T230,402L209,297q-3-15-4-28t-1-24q0-63 28.5-95.5T318,117ZM425,740L320,916l126,59l68-196l-89-39Z"/>
      <glyph unicode="&#xd3;" glyph-name="gid190" horiz-adv-x="695" d="M308-12q-67,0-124,29.5t-92,92T57,271q0,29 3,56.5T68,382q14,71 45.5,130.5t77,104t103,69T417,710q67,0 124-29.5t92-92T668,427q0-28-3-56t-8-55q-14-70-45.5-130t-77-104.5t-103-69T308-12Zm10,129q47,0 82.5,21T460,199t35,97l21,105q3,15 4,28.5t1,23.5q0,63-28.5,95.5T407,581q-46,0-82-21t-59.5-61T230,402L209,297q-3-15-4-28t-1-24q0-63 28.5-95.5T318,117ZM614,915L467,739l-84,46L502,975l112-60Z"/>
      <glyph unicode="&#xd4;" glyph-name="gid191" horiz-adv-x="695" d="M308-12q-67,0-124,29.5t-92,92T57,271q0,29 3,56.5T68,382q14,71 45.5,130.5t77,104t103,69T417,710q67,0 124-29.5t92-92T668,427q0-28-3-56t-8-55q-14-70-45.5-130t-77-104.5t-103-69T308-12Zm10,129q47,0 82.5,21T460,199t35,97l21,105q3,15 4,28.5t1,23.5q0,63-28.5,95.5T407,581q-46,0-82-21t-59.5-61T230,402L209,297q-3-15-4-28t-1-24q0-63 28.5-95.5T318,117ZM420,954H542L642,796l-75-57L468,854L334,739l-70,57L420,954Z"/>
      <glyph unicode="&#xd5;" glyph-name="gid195" horiz-adv-x="695" d="M308-12q-67,0-124,29.5t-92,92T57,271q0,29 3,56.5T68,382q14,71 45.5,130.5t77,104t103,69T417,710q67,0 124-29.5t92-92T668,427q0-28-3-56t-8-55q-14-70-45.5-130t-77-104.5t-103-69T308-12Zm10,129q47,0 82.5,21T460,199t35,97l21,105q3,15 4,28.5t1,23.5q0,63-28.5,95.5T407,581q-46,0-82-21t-59.5-61T230,402L209,297q-3-15-4-28t-1-24q0-63 28.5-95.5T318,117ZM533,761q-22,0-39,6t-37,15q-19,9-35.5,15.5T385,804q-17,0-29-6t-29-19l-43,69q23,29 51.5,45.5T399,910q22,0 39.5-6T475,889t36-15.5t36-6.5q17,0 29.5,6T605,892l43-69q-22-28-51-45t-64-17Z"/>
      <glyph unicode="&#xd6;" glyph-name="gid192" horiz-adv-x="695" d="M308-12q-67,0-124,29.5t-92,92T57,271q0,29 3,56.5T68,382q14,71 45.5,130.5t77,104t103,69T417,710q67,0 124-29.5t92-92T668,427q0-28-3-56t-8-55q-14-70-45.5-130t-77-104.5t-103-69T308-12Zm10,129q47,0 82.5,21T460,199t35,97l21,105q3,15 4,28.5t1,23.5q0,63-28.5,95.5T407,581q-46,0-82-21t-59.5-61T230,402L209,297q-3-15-4-28t-1-24q0-63 28.5-95.5T318,117Zm35,643q-34,0-49.5,14.5T288,809q0,5 1.5,13t4.5,26q5,26 24.5,44.5T379,911q35,0 50-14.5T444,862q0-5-1.5-13T438,823q-4-25-24-44t-61-19Zm200,0q-34,0-49.5,14.5T488,809q0,5 1.5,13t4.5,26q5,26 24.5,44.5T579,911q35,0 50-14.5T644,862q0-5-1.5-13T638,823q-4-25-24-44t-61-19Z"/>
      <glyph unicode="&#xd7;" glyph-name="gid121" horiz-adv-x="600" d="M412,76L302,220L135,76L60,163L231,311L119,454l96,80L325,390L492,534l75-87L396,299L508,156L412,76Z"/>
      <glyph unicode="&#xd8;" glyph-name="gid194" horiz-adv-x="695" d="M79-60L2,7L91,111q-16,32-25,71.5T57,271q0,30 3,58.5T69,386q15,70 46.5,129T192,618t102,68t123,24q41,0 79.5-11T567,665l79,93l77-67L634,587q16-31 25-71t9-89q0-30-3-58.5T656,312q-15-70-46.5-129T533,80T431,12T308-12q-41,0-79.5,11T158,33L79-60ZM408,587q-47,0-83.5-21.5t-61-62T227,405L205,296q-3-15-5-29.5T198,240q0-3 0-8t1-9h2L379,431L488,558q-16,14-36,21.5T408,587ZM317,111q48,0 84.5,21.5t61,62T498,293l22,109q3,15 5,29.5t2,26.5q0,3 0,8t-1,9h-2L346,267L237,140q16-14 36-21.5t44-7.5Z"/>
      <glyph unicode="&#xd9;" glyph-name="gid201" horiz-adv-x="678" d="M160,698H303L219,280q-3-13-5-31t-2-32q0-49 26-74.5T314,117q40,0 69,16t48,49.5T460,267l87,431H690L605,275q-19-98-56-161.5T453.5,19T308-12q-76,0-128.5,25.5t-80,76T72,214q0,20 2,42t7,47l79,395Zm247,42L302,916l126,59l68-196l-89-39Z"/>
      <glyph unicode="&#xda;" glyph-name="gid198" horiz-adv-x="678" d="M160,698H303L219,280q-3-13-5-31t-2-32q0-49 26-74.5T314,117q40,0 69,16t48,49.5T460,267l87,431H690L605,275q-19-98-56-161.5T453.5,19T308-12q-76,0-128.5,25.5t-80,76T72,214q0,20 2,42t7,47l79,395ZM596,915L449,739l-84,46L484,975l112-60Z"/>
      <glyph unicode="&#xdb;" glyph-name="gid199" horiz-adv-x="678" d="M160,698H303L219,280q-3-13-5-31t-2-32q0-49 26-74.5T314,117q40,0 69,16t48,49.5T460,267l87,431H690L605,275q-19-98-56-161.5T453.5,19T308-12q-76,0-128.5,25.5t-80,76T72,214q0,20 2,42t7,47l79,395ZM402,954H524L624,796l-75-57L450,854L316,739l-70,57L402,954Z"/>
      <glyph unicode="&#xdc;" glyph-name="gid200" horiz-adv-x="678" d="M160,698H303L219,280q-3-13-5-31t-2-32q0-49 26-74.5T314,117q40,0 69,16t48,49.5T460,267l87,431H690L605,275q-19-98-56-161.5T453.5,19T308-12q-76,0-128.5,25.5t-80,76T72,214q0,20 2,42t7,47l79,395Zm175,62q-34,0-49.5,14.5T270,809q0,5 1.5,13t4.5,26q5,26 24.5,44.5T361,911q35,0 50-14.5T426,862q0-5-1.5-13T420,823q-4-25-24-44t-61-19Zm200,0q-34,0-49.5,14.5T470,809q0,5 1.5,13t4.5,26q5,26 24.5,44.5T561,911q35,0 50-14.5T626,862q0-5-1.5-13T620,823q-4-25-24-44t-61-19Z"/>
      <glyph unicode="&#xdd;" glyph-name="gid202" horiz-adv-x="624" d="M330,0H185l54,271L91,698H239l94-294h7L541,698H701L382,258L330,0ZM557,915L410,739l-84,46L445,975l112-60Z"/>
      <glyph unicode="&#xde;" glyph-name="gid197" horiz-adv-x="634" d="M168,0H22L162,698H307L283,577H403q104,0 162-49t58-138q0-76-35-134t-96-90T352,134H193L168,0Zm88,449L220,262H370q34,0 58.5,17.5T461,332q5,19 7.5,30.5T472,382t1,13q0,23-15.5,38.5T408,449H256Z"/>
      <glyph unicode="&#xdf;" glyph-name="gid163" horiz-adv-x="669" d="M628,189q0-51-25-97T530.5,17T416-12Q353-12 308,8T240,65l88,79q17-25 40-36.5T419,96q36,0 56.5,20T496,165q0,23-12.5,33.5T442,224l-40,20q-22,11-39.5,26.5t-27.5,38T325,361q0,45 20,80.5T404.5,500T501,530l1,6q2,9 2.5,16t0.5,15q0,38-23.5,56.5T413,642q-36,0-63-11.5t-44-36T281,531L175,0H35l82,410H43L66,525h74l1,5q21,105 96,163.5T420,752q69,0 118.5-22.5t76-61T641,580q0-16-1.5-34T633,508l-15-74H542q-29,0-48.5-5T465,414.5T456,390q0-19 14-32t38-25l39-20q26-13 44-30t27.5-39.5T628,189Z"/>
      <glyph unicode="&#xe0;" glyph-name="gid139" horiz-adv-x="591" d="M523,0H430q-37,0-62.5,20T342,77q0,8 1,17t2,13l3,15h-6q-31-64-70-99T171-12q-49,0-80,23.5t-45.5,65T31,170q0,32 3,60.5T42,286q16,78 50,134t81.5,86.5T275,537q55,0 90.5-30T406,434h5l18,91H569L486,112h59L523,0ZM240,103q27,0 49,14.5T327,151q17,20 29.5,47.5T375,255l16,80q5,25-4,44.5t-29,31T309,422q-46,0-74.5-29T194,305l-14-70q-2-10-4-27.5T174,178q0-23 8-40t23-26t35-9Zm79,477L214,756l126,59l68-196l-89-39Z"/>
      <glyph unicode="&#xe1;" glyph-name="gid136" horiz-adv-x="591" d="M523,0H430q-37,0-62.5,20T342,77q0,8 1,17t2,13l3,15h-6q-31-64-70-99T171-12q-49,0-80,23.5t-45.5,65T31,170q0,32 3,60.5T42,286q16,78 50,134t81.5,86.5T275,537q55,0 90.5-30T406,434h5l18,91H569L486,112h59L523,0ZM240,103q27,0 49,14.5T327,151q17,20 29.5,47.5T375,255l16,80q5,25-4,44.5t-29,31T309,422q-46,0-74.5-29T194,305l-14-70q-2-10-4-27.5T174,178q0-23 8-40t23-26t35-9ZM508,755L361,579l-84,46L396,815l112-60Z"/>
      <glyph unicode="&#xe2;" glyph-name="gid137" horiz-adv-x="591" d="M523,0H430q-37,0-62.5,20T342,77q0,8 1,17t2,13l3,15h-6q-31-64-70-99T171-12q-49,0-80,23.5t-45.5,65T31,170q0,32 3,60.5T42,286q16,78 50,134t81.5,86.5T275,537q55,0 90.5-30T406,434h5l18,91H569L486,112h59L523,0ZM240,103q27,0 49,14.5T327,151q17,20 29.5,47.5T375,255l16,80q5,25-4,44.5t-29,31T309,422q-46,0-74.5-29T194,305l-14-70q-2-10-4-27.5T174,178q0-23 8-40t23-26t35-9Zm74,691H436L536,636l-75-57L362,694L228,579l-70,57L314,794Z"/>
      <glyph unicode="&#xe3;" glyph-name="gid141" horiz-adv-x="591" d="M523,0H430q-37,0-62.5,20T342,77q0,8 1,17t2,13l3,15h-6q-31-64-70-99T171-12q-49,0-80,23.5t-45.5,65T31,170q0,32 3,60.5T42,286q16,78 50,134t81.5,86.5T275,537q55,0 90.5-30T406,434h5l18,91H569L486,112h59L523,0ZM240,103q27,0 49,14.5T327,151q17,20 29.5,47.5T375,255l16,80q5,25-4,44.5t-29,31T309,422q-46,0-74.5-29T194,305l-14-70q-2-10-4-27.5T174,178q0-23 8-40t23-26t35-9ZM427,601q-22,0-39,6t-37,15q-19,9-35.5,15.5T279,644q-17,0-29-6t-29-19l-43,69q23,29 51.5,45.5T293,750q22,0 39.5-6T369,729t36-15.5t36-6.5q17,0 29.5,6T499,732l43-69q-22-28-51-45t-64-17Z"/>
      <glyph unicode="&#xe4;" glyph-name="gid138" horiz-adv-x="591" d="M523,0H430q-37,0-62.5,20T342,77q0,8 1,17t2,13l3,15h-6q-31-64-70-99T171-12q-49,0-80,23.5t-45.5,65T31,170q0,32 3,60.5T42,286q16,78 50,134t81.5,86.5T275,537q55,0 90.5-30T406,434h5l18,91H569L486,112h59L523,0ZM240,103q27,0 49,14.5T327,151q17,20 29.5,47.5T375,255l16,80q5,25-4,44.5t-29,31T309,422q-46,0-74.5-29T194,305l-14-70q-2-10-4-27.5T174,178q0-23 8-40t23-26t35-9Zm7,497q-35,0-50,14t-15,34q0,5 1.5,14t4.5,26q5,26 24.5,44.5T273,751q35,0 50-14t15-34q0-5-1.5-14T332,663q-4-25-24-44t-61-19Zm200,0q-35,0-50,14t-15,34q0,5 1.5,14t4.5,26q5,26 24.5,44.5T473,751q35,0 50-14t15-34q0-5-1.5-14T532,663q-4-25-24-44t-61-19Z"/>
      <glyph unicode="&#xe5;" glyph-name="gid140" horiz-adv-x="591" d="M523,0H430q-37,0-62.5,20T342,77q0,8 1,17t2,13l3,15h-6q-31-64-70-99T171-12q-49,0-80,23.5t-45.5,65T31,170q0,32 3,60.5T42,286q16,78 50,134t81.5,86.5T275,537q55,0 90.5-30T406,434h5l18,91H569L486,112h59L523,0ZM240,103q27,0 49,14.5T327,151q17,20 29.5,47.5T375,255l16,80q5,25-4,44.5t-29,31T309,422q-46,0-74.5-29T194,305l-14-70q-2-10-4-27.5T174,178q0-23 8-40t23-26t35-9Zm98,455q-55,0-91.5,35T210,680q0,50 22.5,87T293,824t82,20q56,0 92-34.5T503,722q0-50-22.5-87t-60-57T338,558Zm6,74q23,0 38.5,14T402,684q4,19 6,29.5t2,17.5q0,19-10,29t-31,10q-23,0-38-14t-20-38q-4-19-6-29t-2-18q0-19 10-29t31-10Z"/>
      <glyph unicode="&#xe6;" glyph-name="gid142" horiz-adv-x="827" d="M231,89q23,0 44,8t36,23.5T331,160l12,57l-81-4q-31-1-55-10t-32-38q-3-11-3.5-20.5T171,134q0-22 16.5-33.5T231,89ZM620,430q-29,0-53.5-13.5t-41-38T503,320l-4-19q56,3 91.5,10t55,16.5t27,22T680,377q0,23-10,34t-23.5,15T620,430ZM182-12Q105-12 65,25T25,125q0,82 64,123t179,46l91,4l5,27q2,9 2.5,16t0.5,14q0,23-9,38.5T331.5,417T286,425q-46,0-74-20t-48-48L82,436q37,47 92,74t123,27q58,0 97-19.5T454,461h7q32,35 73.5,55.5T630,537q29,0 61-7t60.5-23.5T798,462t18-70q0-40-19-71.5t-59-54t-103-35T484,216q-1-12-1.5-19T482,185q0-37 21-60.5T576,101q34,0 63,14.5T703,174l86-68Q740,42 686.5,15T565-12q-74,0-123,27.5T368,92h-7q-17-37-44.5-60T255-1.5T182-12Z"/>
      <glyph unicode="&#xe7;" glyph-name="gid143" horiz-adv-x="494" d="M310,537q75,0 126.5-37T498,401L380,356q-9,31-24.5,49.5T302,424q-44,0-71-27t-38-83l-18-89q-2-10-3.5-20.5T170,183q0-24 8.5-42.5t26-29T249,101q41,0 61.5,23T353,184l107-50Q429,68 379.5,32T265-10L247-55l2-4q12,4 22.5,5.5T292-52q26,0 44-15t18-41q0-52-42-78T210-212q-41,0-69.5,13.5T99-166l52,52q6-9 21-18.5t37-9.5q21,0 35.5,7.5T259-111q0,12-14,22T193-75l-22,2L198-9q-47,7-85,32T53,95.5T31,215q0,21 2,41.5T39,296q15,72 53,126.5T186.5,507T310,537Z"/>
      <glyph unicode="&#xe8;" glyph-name="gid148" horiz-adv-x="515" d="M253-12Q141-12 86,49T31,214q0,19 1.5,37T38,287q14,69 51.5,125.5t95,90.5T316,537q30,0 62.5-7t61-23.5T486,462t18-71q0-32-12-59.5T455,282t-64.5-37.5t-93.5-25T172,208q-1-9-1.5-14t-0.5-9q0-37 20.5-60.5T263,101q35,0 64,14.5T391,174l86-68Q428,42 374.5,15T253-12Zm55,442q-29,0-53.5-13.5t-41-38T191,320l-4-23q56,3 91.5,10t55,17.5t27,23.5t7.5,29q0,34-20.5,43.5T308,430Zm1,150L204,756l126,59l68-196l-89-39Z"/>
      <glyph unicode="&#xe9;" glyph-name="gid145" horiz-adv-x="515" d="M253-12Q141-12 86,49T31,214q0,19 1.5,37T38,287q14,69 51.5,125.5t95,90.5T316,537q30,0 62.5-7t61-23.5T486,462t18-71q0-32-12-59.5T455,282t-64.5-37.5t-93.5-25T172,208q-1-9-1.5-14t-0.5-9q0-37 20.5-60.5T263,101q35,0 64,14.5T391,174l86-68Q428,42 374.5,15T253-12Zm55,442q-29,0-53.5-13.5t-41-38T191,320l-4-23q56,3 91.5,10t55,17.5t27,23.5t7.5,29q0,34-20.5,43.5T308,430ZM498,755L351,579l-84,46L386,815l112-60Z"/>
      <glyph unicode="&#xea;" glyph-name="gid146" horiz-adv-x="515" d="M253-12Q141-12 86,49T31,214q0,19 1.5,37T38,287q14,69 51.5,125.5t95,90.5T316,537q30,0 62.5-7t61-23.5T486,462t18-71q0-32-12-59.5T455,282t-64.5-37.5t-93.5-25T172,208q-1-9-1.5-14t-0.5-9q0-37 20.5-60.5T263,101q35,0 64,14.5T391,174l86-68Q428,42 374.5,15T253-12Zm55,442q-29,0-53.5-13.5t-41-38T191,320l-4-23q56,3 91.5,10t55,17.5t27,23.5t7.5,29q0,34-20.5,43.5T308,430Zm-4,364H426L526,636l-75-57L352,694L218,579l-70,57L304,794Z"/>
      <glyph unicode="&#xeb;" glyph-name="gid147" horiz-adv-x="515" d="M253-12Q141-12 86,49T31,214q0,19 1.5,37T38,287q14,69 51.5,125.5t95,90.5T316,537q30,0 62.5-7t61-23.5T486,462t18-71q0-32-12-59.5T455,282t-64.5-37.5t-93.5-25T172,208q-1-9-1.5-14t-0.5-9q0-37 20.5-60.5T263,101q35,0 64,14.5T391,174l86-68Q428,42 374.5,15T253-12Zm55,442q-29,0-53.5-13.5t-41-38T191,320l-4-23q56,3 91.5,10t55,17.5t27,23.5t7.5,29q0,34-20.5,43.5T308,430ZM237,600q-35,0-50,14t-15,34q0,5 1.5,14t4.5,26q5,26 24.5,44.5T263,751q35,0 50-14t15-34q0-5-1.5-14T322,663q-4-25-24-44t-61-19Zm200,0q-35,0-50,14t-15,34q0,5 1.5,14t4.5,26q5,26 24.5,44.5T463,751q35,0 50-14t15-34q0-5-1.5-14T522,663q-4-25-24-44t-61-19Z"/>
      <glyph unicode="&#xec;" glyph-name="gid153" horiz-adv-x="281" d="M213,0H122Q82,0 57,22T32,80q0,6 1,12t2,13l84,420H259L176,112h59L213,0ZM175,580L70,756l126,59l68-196l-89-39Z"/>
      <glyph unicode="&#xed;" glyph-name="gid150" horiz-adv-x="281" d="M213,0H122Q82,0 57,22T32,80q0,6 1,12t2,13l84,420H259L176,112h59L213,0ZM364,755L217,579l-84,46L252,815l112-60Z"/>
      <glyph unicode="&#xee;" glyph-name="gid151" horiz-adv-x="281" d="M213,0H122Q82,0 57,22T32,80q0,6 1,12t2,13l84,420H259L176,112h59L213,0ZM84,579L14,636L170,794H292L392,636l-75-57L218,694L84,579Z"/>
      <glyph unicode="&#xef;" glyph-name="gid152" horiz-adv-x="281" d="M213,0H122Q82,0 57,22T32,80q0,6 1,12t2,13l84,420H259L176,112h59L213,0Zm90,600q-35,0-50,14t-15,34q0,5 1.5,14t4.5,26q5,26 24.5,44.5T329,751q35,0 50-14t15-34q0-5-1.5-14T388,663q-4-25-24-44t-61-19Zm-200,0q-35,0-50,14T38,648q0,5 1.5,14T44,688q5,26 24.5,44.5T129,751q35,0 50-14t15-34q0-5-1.5-14T188,663q-4-25-24-44t-61-19Z"/>
      <glyph unicode="&#xf0;" glyph-name="gid144" horiz-adv-x="573" d="M530,688l-83-43q29-40 48.5-88T525,455.5T535,344q0-29-2.5-56T525,237q-17-87-60-142T364,14T242-12Q142-12 86.5,46.5T31,211q0,20 2,39.5T39,288q14,63 46,110.5T161.5,473T257,500q53,0 86-28.5T391,398h9q-8,52-28.5,99T325,581L218,526l-32,62l94,49q-33,35-65,61t-57,42H353q13-10 24.5-20T399,699l99,52l32-63ZM250,96q43,0 70.5,31.5T360,215l10,48q2,13 3,23.5t1,17.5q0,41-20.5,63.5T297,390q-43,0-70.5-31.5T187,271l-10-48q-2-13-3-23t-1-18q0-40 20.5-63T250,96Z"/>
      <glyph unicode="&#xf1;" glyph-name="gid155" horiz-adv-x="588" d="M154,0H14L119,525H259L235,403h6q30,63 71.5,98.5T415,537t93.5-35.5T541,401q0-19-2.5-36.5T532,327L489,112h53L520,0H429q-40,0-62,20.5T345,76q0,9 1,16.5t2,11.5l41,208q3,14 5,27.5t2,28.5q0,23-12,37.5T343,420q-25,0-46.5-14T258,372q-18-21-31-46.5T208,270L154,0ZM442,601q-22,0-39,6t-37,15q-19,9-35.5,15.5T294,644q-17,0-29-6t-29-19l-43,69q23,29 51.5,45.5T308,750q22,0 39.5-6T384,729t36-15.5t36-6.5q17,0 29.5,6T514,732l43-69q-22-28-51-45t-64-17Z"/>
      <glyph unicode="&#xf2;" glyph-name="gid159" horiz-adv-x="542" d="M240-12q-64,0-111,26T56.5,89T31,207q0,23 2,44t6,41q15,73 52,128t91,86t120,31q64,0 111-26t72.5-75T511,318q0-22-2-43.5T503,233q-14-72-51.5-127.5T360,19T240-12Zm5,113q40,0 67,29.5T350,216l19,94q1,5 2,13t1,18q0,25-8.5,43.5t-25,29T297,424q-40,0-67-29.5T192,309l-19-94q-1-4-2-12.5T170,184q0-25 8.5-43.5t25.5-29T245,101Zm58,479L198,756l126,59l68-196l-89-39Z"/>
      <glyph unicode="&#xf3;" glyph-name="gid156" horiz-adv-x="542" d="M240-12q-64,0-111,26T56.5,89T31,207q0,23 2,44t6,41q15,73 52,128t91,86t120,31q64,0 111-26t72.5-75T511,318q0-22-2-43.5T503,233q-14-72-51.5-127.5T360,19T240-12Zm5,113q40,0 67,29.5T350,216l19,94q1,5 2,13t1,18q0,25-8.5,43.5t-25,29T297,424q-40,0-67-29.5T192,309l-19-94q-1-4-2-12.5T170,184q0-25 8.5-43.5t25.5-29T245,101ZM492,755L345,579l-84,46L380,815l112-60Z"/>
      <glyph unicode="&#xf4;" glyph-name="gid157" horiz-adv-x="542" d="M240-12q-64,0-111,26T56.5,89T31,207q0,23 2,44t6,41q15,73 52,128t91,86t120,31q64,0 111-26t72.5-75T511,318q0-22-2-43.5T503,233q-14-72-51.5-127.5T360,19T240-12Zm5,113q40,0 67,29.5T350,216l19,94q1,5 2,13t1,18q0,25-8.5,43.5t-25,29T297,424q-40,0-67-29.5T192,309l-19-94q-1-4-2-12.5T170,184q0-25 8.5-43.5t25.5-29T245,101Zm53,693H420L520,636l-75-57L346,694L212,579l-70,57L298,794Z"/>
      <glyph unicode="&#xf5;" glyph-name="gid161" horiz-adv-x="542" d="M240-12q-64,0-111,26T56.5,89T31,207q0,23 2,44t6,41q15,73 52,128t91,86t120,31q64,0 111-26t72.5-75T511,318q0-22-2-43.5T503,233q-14-72-51.5-127.5T360,19T240-12Zm5,113q40,0 67,29.5T350,216l19,94q1,5 2,13t1,18q0,25-8.5,43.5t-25,29T297,424q-40,0-67-29.5T192,309l-19-94q-1-4-2-12.5T170,184q0-25 8.5-43.5t25.5-29T245,101ZM411,601q-22,0-39,6t-37,15q-19,9-35.5,15.5T263,644q-17,0-29-6t-29-19l-43,69q23,29 51.5,45.5T277,750q22,0 39.5-6T353,729t36-15.5t36-6.5q17,0 29.5,6T483,732l43-69q-22-28-51-45t-64-17Z"/>
      <glyph unicode="&#xf6;" glyph-name="gid158" horiz-adv-x="542" d="M240-12q-64,0-111,26T56.5,89T31,207q0,23 2,44t6,41q15,73 52,128t91,86t120,31q64,0 111-26t72.5-75T511,318q0-22-2-43.5T503,233q-14-72-51.5-127.5T360,19T240-12Zm5,113q40,0 67,29.5T350,216l19,94q1,5 2,13t1,18q0,25-8.5,43.5t-25,29T297,424q-40,0-67-29.5T192,309l-19-94q-1-4-2-12.5T170,184q0-25 8.5-43.5t25.5-29T245,101ZM231,600q-35,0-50,14t-15,34q0,5 1.5,14t4.5,26q5,26 24.5,44.5T257,751q35,0 50-14t15-34q0-5-1.5-14T316,663q-4-25-24-44t-61-19Zm200,0q-35,0-50,14t-15,34q0,5 1.5,14t4.5,26q5,26 24.5,44.5T457,751q35,0 50-14t15-34q0-5-1.5-14T516,663q-4-25-24-44t-61-19Z"/>
      <glyph unicode="&#xf7;" glyph-name="gid122" horiz-adv-x="600" d="M529,248H66L89,364H552L529,248ZM258,30q-42,0-59,15.5T182,80q0,8 2,21.5t4,22.5q7,29 28.5,47.5T283,190q42,0 59-15t17-35q0-7-2-21t-4-23q-7-28-28.5-47T258,30Zm77,392q-42,0-59,15.5T259,472q0,8 2,21.5t4,22.5q7,29 28.5,47.5T360,582q42,0 59-15t17-35q0-7-2-21t-4-23q-7-28-28.5-47T335,422Z"/>
      <glyph unicode="&#xf8;" glyph-name="gid160" horiz-adv-x="543" d="M240-12q-40,0-73.5,10.5T107,28L38-43L-34,21l83,86q-9,22-13.5,47T31,207q0,23 2.5,45.5T40,296q15,72 52.5,126T184,506.5T303,537q41,0 74.5-10T436,497l69,71l72-64l-83-86q9-22 13.5-46.5T512,318q0-23-2-45.5T503,229q-15-71-52.5-125.5T359,18.5T240-12Zm5,107q40,0 68.5,31.5T352,210l8,39q1,5 2,10t2,9.5t2,9.5q1,4 2.5,12.5T371,303h-2L257,189l-70-71q8-10 24-16.5T245,95Zm53,335q-40,0-68-31t-39-84l-8-39q-1-5-2-9.5t-2-9.5t-2-10q-1-4-2.5-12.5T172,222h2L286,336l70,71q-8,10-24,16.5T298,430Z"/>
      <glyph unicode="&#xf9;" glyph-name="gid168" horiz-adv-x="582" d="M114,525H254L192,213q-3-14-5-28t-2-25q0-25 12-40t37-15q26,0 46.5,13.5T318,153t29.5,46.5T366,255l54,270H560L477,112h59L514,0H421q-37,0-62.5,20T333,77q0,8 1,17t2,13l3,15h-6q-29-61-69-97.5T164-12q-59,0-91.5,36T40,124q0,20 2.5,38T49,200l65,325Zm208,55L217,756l126,59l68-196l-89-39Z"/>
      <glyph unicode="&#xfa;" glyph-name="gid165" horiz-adv-x="582" d="M114,525H254L192,213q-3-14-5-28t-2-25q0-25 12-40t37-15q26,0 46.5,13.5T318,153t29.5,46.5T366,255l54,270H560L477,112h59L514,0H421q-37,0-62.5,20T333,77q0,8 1,17t2,13l3,15h-6q-29-61-69-97.5T164-12q-59,0-91.5,36T40,124q0,20 2.5,38T49,200l65,325ZM511,755L364,579l-84,46L399,815l112-60Z"/>
      <glyph unicode="&#xfb;" glyph-name="gid166" horiz-adv-x="582" d="M114,525H254L192,213q-3-14-5-28t-2-25q0-25 12-40t37-15q26,0 46.5,13.5T318,153t29.5,46.5T366,255l54,270H560L477,112h59L514,0H421q-37,0-62.5,20T333,77q0,8 1,17t2,13l3,15h-6q-29-61-69-97.5T164-12q-59,0-91.5,36T40,124q0,20 2.5,38T49,200l65,325ZM317,794H439L539,636l-75-57L365,694L231,579l-70,57L317,794Z"/>
      <glyph unicode="&#xfc;" glyph-name="gid167" horiz-adv-x="582" d="M114,525H254L192,213q-3-14-5-28t-2-25q0-25 12-40t37-15q26,0 46.5,13.5T318,153t29.5,46.5T366,255l54,270H560L477,112h59L514,0H421q-37,0-62.5,20T333,77q0,8 1,17t2,13l3,15h-6q-29-61-69-97.5T164-12q-59,0-91.5,36T40,124q0,20 2.5,38T49,200l65,325Zm136,75q-35,0-50,14t-15,34q0,5 1.5,14t4.5,26q5,26 24.5,44.5T276,751q35,0 50-14t15-34q0-5-1.5-14T335,663q-4-25-24-44t-61-19Zm200,0q-35,0-50,14t-15,34q0,5 1.5,14t4.5,26q5,26 24.5,44.5T476,751q35,0 50-14t15-34q0-5-1.5-14T535,663q-4-25-24-44t-61-19Z"/>
      <glyph unicode="&#xfd;" glyph-name="gid169" horiz-adv-x="509" d="M314,327l94,198H557L235-85q-31-58-71-86.5T49-200H-29L-6-88H91l28,58L45,525H184l20-198l16-196h6l88,196ZM461,755L314,579l-84,46L349,815l112-60Z"/>
      <glyph unicode="&#xfe;" glyph-name="gid164" horiz-adv-x="583" d="M-26-200L162,740H302L235,403h6q31,64 70.5,99T412,537q49,0 80-23.5T537.5,449T552,355q0-31-3-60t-8-56q-15-78-49.5-134.5T410,18T308-12T217.5,18T177,91h-5L114-200H-26ZM274,103q47,0 75,29t40,88l14,70q2,11 4,28t2,29q0,24-8,40.5T378.5,413T343,422q-27,0-49-14t-38-34t-29-47.5T208,270l-16-80q-5-26 3.5-46t29-30.5T274,103Z"/>
      <glyph unicode="&#xff;" glyph-name="gid170" horiz-adv-x="509" d="M314,327l94,198H557L235-85q-31-58-71-86.5T49-200H-29L-6-88H91l28,58L45,525H184l20-198l16-196h6l88,196ZM200,600q-35,0-50,14t-15,34q0,5 1.5,14t4.5,26q5,26 24.5,44.5T226,751q35,0 50-14t15-34q0-5-1.5-14T285,663q-4-25-24-44t-61-19Zm200,0q-35,0-50,14t-15,34q0,5 1.5,14t4.5,26q5,26 24.5,44.5T426,751q35,0 50-14t15-34q0-5-1.5-14T485,663q-4-25-24-44t-61-19Z"/>
      <glyph unicode="&#x2013;" glyph-name="gid67" horiz-adv-x="583" d="M543,246H32L55,361H566L543,246Z"/>
      <glyph unicode="&#x2014;" glyph-name="gid68" horiz-adv-x="773" d="M733,246H32L55,361H756L733,246Z"/>
      <glyph unicode="&#x2018;" glyph-name="gid77" horiz-adv-x="286" d="M172,440q-42,0-58.5,19.5T97,501q0,9 2,20.5t4,22.5q6,30 25.5,65.5t49.5,70T244,740h99q-41-31-69.5-61.5T224,610q28-6 39.5-22T275,555q0-7-2.5-20T268,511q-6-30-30-50.5T172,440Z"/>
      <glyph unicode="&#x2019;" glyph-name="gid78" horiz-adv-x="286" d="M237,750q42,0 58.5-19.5T312,689q0-9-2-20.5T306,646q-6-30-25.5-65.5t-49-70T165,450H66q41,32 69.5,62.5T185,580q-28,6-39.5,22T134,635q0,8 2.5,20.5T141,679q6,30 30,50.5T237,750Z"/>
      <glyph unicode="&#x201a;" glyph-name="gid81" horiz-adv-x="286" d="M126,183q42,0 58.5-19.5T201,122q0-9-2-20.5T195,79q-6-30-25.5-65.5t-49-70T54-117H-45Q-4-85 24.5-54.5T74,13Q46,19 34.5,35T23,68q0,8 2.5,20.5T30,112q6,30 30,50.5T126,183Z"/>
      <glyph unicode="&#x201c;" glyph-name="gid79" horiz-adv-x="520" d="M172,440q-42,0-58.5,19.5T97,501q0,9 2,20.5t4,22.5q6,30 25.5,65.5t49.5,70T244,740h99q-41-31-69.5-61.5T224,610q28-6 39.5-22T275,555q0-7-2.5-20T268,511q-6-30-30-50.5T172,440Zm234,0q-42,0-58.5,19.5T331,501q0,9 2,20.5t4,22.5q6,30 25.5,65.5t49.5,70T478,740h99q-41-31-69.5-61.5T458,610q28-6 39.5-22T509,555q0-7-2.5-20T502,511q-6-30-30-50.5T406,440Z"/>
      <glyph unicode="&#x201d;" glyph-name="gid80" horiz-adv-x="520" d="M237,750q42,0 58.5-19.5T312,689q0-9-2-20.5T306,646q-6-30-25.5-65.5t-49-70T165,450H66q41,32 69.5,62.5T185,580q-28,6-39.5,22T134,635q0,8 2.5,20.5T141,679q6,30 30,50.5T237,750Zm234,0q42,0 58.5-19.5T546,689q0-9-2-20.5T540,646q-6-30-25.5-65.5t-49-70T399,450H300q41,32 69.5,62.5T419,580q-28,6-39.5,22T368,635q0,8 2.5,20.5T375,679q6,30 30,50.5T471,750Z"/>
      <glyph unicode="&#x201e;" glyph-name="gid82" horiz-adv-x="520" d="M126,183q42,0 58.5-19.5T201,122q0-9-2-20.5T195,79q-6-30-25.5-65.5t-49-70T54-117H-45Q-4-85 24.5-54.5T74,13Q46,19 34.5,35T23,68q0,8 2.5,20.5T30,112q6,30 30,50.5T126,183Zm234,0q42,0 58.5-19.5T435,122q0-9-2-20.5T429,79q-6-30-25.5-65.5t-49-70T288-117H189q41,32 69.5,62.5T308,13q-28,6-39.5,22T257,68q0,8 2.5,20.5T264,112q6,30 30,50.5T360,183Z"/>
      <glyph unicode="&#x2022;" glyph-name="gid127" horiz-adv-x="421" d="M198,150q-77,0-107.5,28.5T60,250q0,4 1.5,19.5T69,317q11,55 50,93t119,38q77,0 108-27.5T377,349q0-14-3.5-31.5T366,281q-11-58-50.5-94.5T198,150Z"/>
      <glyph unicode="&#x2039;" glyph-name="gid83" horiz-adv-x="312" d="M247,132L190,49L34,209L60,337L263,494l41-93L154,264v-2l93-130Z"/>
      <glyph unicode="&#x203a;" glyph-name="gid84" horiz-adv-x="312" d="M52,50L11,143L161,280v2L68,412l57,83L281,335L255,207L52,50Z"/>
    </font>
</defs>
</svg>
